G04 #@! TF.GenerationSoftware,KiCad,Pcbnew,5.1.4+dfsg1-1*
G04 #@! TF.CreationDate,2020-01-19T16:19:53-05:00*
G04 #@! TF.ProjectId,Windig_Kicad,57696e64-6967-45f4-9b69-6361642e6b69,rev?*
G04 #@! TF.SameCoordinates,Original*
G04 #@! TF.FileFunction,Copper,L1,Top*
G04 #@! TF.FilePolarity,Positive*
%FSLAX46Y46*%
G04 Gerber Fmt 4.6, Leading zero omitted, Abs format (unit mm)*
G04 Created by KiCad (PCBNEW 5.1.4+dfsg1-1) date 2020-01-19 16:19:53*
%MOMM*%
%LPD*%
G04 APERTURE LIST*
%ADD10O,1.600000X1.600000*%
%ADD11C,1.600000*%
%ADD12C,2.000000*%
%ADD13C,2.000000*%
%ADD14C,0.100000*%
%ADD15C,1.524000*%
%ADD16R,1.600000X1.600000*%
%ADD17C,3.100000*%
%ADD18R,1.700000X1.700000*%
%ADD19O,1.700000X1.700000*%
%ADD20C,3.500000*%
%ADD21C,1.700000*%
%ADD22R,3.500000X3.500000*%
%ADD23C,3.000000*%
%ADD24C,1.800000*%
%ADD25R,1.800000X1.800000*%
%ADD26C,1.100000*%
%ADD27C,0.500000*%
%ADD28C,1.000000*%
G04 APERTURE END LIST*
D10*
X145045000Y-93300000D03*
D11*
X137425000Y-93300000D03*
D10*
X105065000Y-73950000D03*
D11*
X102525000Y-73950000D03*
D10*
X93510000Y-67975000D03*
D11*
X96050000Y-67975000D03*
D10*
X116690000Y-82000000D03*
D11*
X114150000Y-82000000D03*
D10*
X116790000Y-86900000D03*
D11*
X114250000Y-86900000D03*
D10*
X102725000Y-69540000D03*
D11*
X102725000Y-67000000D03*
D10*
X107600000Y-66285000D03*
D11*
X107600000Y-68825000D03*
X104925000Y-78375000D03*
X102425000Y-78375000D03*
D12*
X98842102Y-77867102D03*
D13*
X98842102Y-77867102D02*
X98842102Y-77867102D01*
D12*
X95250000Y-74275000D03*
D14*
G36*
X93835786Y-74275000D02*
G01*
X95250000Y-72860786D01*
X96664214Y-74275000D01*
X95250000Y-75689214D01*
X93835786Y-74275000D01*
X93835786Y-74275000D01*
G37*
D15*
X134175000Y-73225000D03*
X134175000Y-75765000D03*
D10*
X122830000Y-96075000D03*
X130450000Y-63055000D03*
X122830000Y-93535000D03*
X130450000Y-65595000D03*
X122830000Y-90995000D03*
X130450000Y-68135000D03*
X122830000Y-88455000D03*
X130450000Y-70675000D03*
X122830000Y-85915000D03*
X130450000Y-73215000D03*
X122830000Y-83375000D03*
X130450000Y-75755000D03*
X122830000Y-80835000D03*
X130450000Y-78295000D03*
X122830000Y-78295000D03*
X130450000Y-80835000D03*
X122830000Y-75755000D03*
X130450000Y-83375000D03*
X122830000Y-73215000D03*
X130450000Y-85915000D03*
X122830000Y-70675000D03*
X130450000Y-88455000D03*
X122830000Y-68135000D03*
X130450000Y-90995000D03*
X122830000Y-65595000D03*
X130450000Y-93535000D03*
X122830000Y-63055000D03*
D16*
X130450000Y-96075000D03*
D17*
X149700000Y-93450000D03*
X154400000Y-93450000D03*
X159100000Y-93450000D03*
X134240000Y-55245000D03*
X129540000Y-55245000D03*
X124840000Y-55245000D03*
D18*
X151245000Y-64235000D03*
D19*
X148705000Y-64235000D03*
X146165000Y-64235000D03*
X143625000Y-64235000D03*
D18*
X168600000Y-64235000D03*
D19*
X166060000Y-64235000D03*
X163520000Y-64235000D03*
X160980000Y-64235000D03*
D18*
X151245000Y-82015000D03*
D19*
X148705000Y-82015000D03*
X146165000Y-82015000D03*
X143625000Y-82015000D03*
D18*
X168600000Y-82015000D03*
D19*
X166060000Y-82015000D03*
X163520000Y-82015000D03*
X160980000Y-82015000D03*
X116690000Y-69350000D03*
X114150000Y-69350000D03*
X116690000Y-66810000D03*
X114150000Y-66810000D03*
X116690000Y-64270000D03*
D18*
X114150000Y-64270000D03*
X151245000Y-55345000D03*
D19*
X148705000Y-55345000D03*
X146165000Y-55345000D03*
X143625000Y-55345000D03*
D18*
X168600000Y-55345000D03*
D19*
X166060000Y-55345000D03*
X163520000Y-55345000D03*
X160980000Y-55345000D03*
D18*
X151245000Y-73125000D03*
D19*
X148705000Y-73125000D03*
X146165000Y-73125000D03*
X143625000Y-73125000D03*
D18*
X168600000Y-73125000D03*
D19*
X166060000Y-73125000D03*
X163520000Y-73125000D03*
X160980000Y-73125000D03*
D20*
X102440000Y-83535000D03*
X102440000Y-95575000D03*
D21*
X105150000Y-90805000D03*
X105150000Y-88305000D03*
X107150000Y-88305000D03*
D18*
X107150000Y-90805000D03*
D22*
X105880000Y-55245000D03*
D14*
G36*
X100703513Y-53498611D02*
G01*
X100776318Y-53509411D01*
X100847714Y-53527295D01*
X100917013Y-53552090D01*
X100983548Y-53583559D01*
X101046678Y-53621398D01*
X101105795Y-53665242D01*
X101160330Y-53714670D01*
X101209758Y-53769205D01*
X101253602Y-53828322D01*
X101291441Y-53891452D01*
X101322910Y-53957987D01*
X101347705Y-54027286D01*
X101365589Y-54098682D01*
X101376389Y-54171487D01*
X101380000Y-54245000D01*
X101380000Y-56245000D01*
X101376389Y-56318513D01*
X101365589Y-56391318D01*
X101347705Y-56462714D01*
X101322910Y-56532013D01*
X101291441Y-56598548D01*
X101253602Y-56661678D01*
X101209758Y-56720795D01*
X101160330Y-56775330D01*
X101105795Y-56824758D01*
X101046678Y-56868602D01*
X100983548Y-56906441D01*
X100917013Y-56937910D01*
X100847714Y-56962705D01*
X100776318Y-56980589D01*
X100703513Y-56991389D01*
X100630000Y-56995000D01*
X99130000Y-56995000D01*
X99056487Y-56991389D01*
X98983682Y-56980589D01*
X98912286Y-56962705D01*
X98842987Y-56937910D01*
X98776452Y-56906441D01*
X98713322Y-56868602D01*
X98654205Y-56824758D01*
X98599670Y-56775330D01*
X98550242Y-56720795D01*
X98506398Y-56661678D01*
X98468559Y-56598548D01*
X98437090Y-56532013D01*
X98412295Y-56462714D01*
X98394411Y-56391318D01*
X98383611Y-56318513D01*
X98380000Y-56245000D01*
X98380000Y-54245000D01*
X98383611Y-54171487D01*
X98394411Y-54098682D01*
X98412295Y-54027286D01*
X98437090Y-53957987D01*
X98468559Y-53891452D01*
X98506398Y-53828322D01*
X98550242Y-53769205D01*
X98599670Y-53714670D01*
X98654205Y-53665242D01*
X98713322Y-53621398D01*
X98776452Y-53583559D01*
X98842987Y-53552090D01*
X98912286Y-53527295D01*
X98983682Y-53509411D01*
X99056487Y-53498611D01*
X99130000Y-53495000D01*
X100630000Y-53495000D01*
X100703513Y-53498611D01*
X100703513Y-53498611D01*
G37*
D23*
X99880000Y-55245000D03*
D14*
G36*
X103840765Y-58199213D02*
G01*
X103925704Y-58211813D01*
X104008999Y-58232677D01*
X104089848Y-58261605D01*
X104167472Y-58298319D01*
X104241124Y-58342464D01*
X104310094Y-58393616D01*
X104373718Y-58451282D01*
X104431384Y-58514906D01*
X104482536Y-58583876D01*
X104526681Y-58657528D01*
X104563395Y-58735152D01*
X104592323Y-58816001D01*
X104613187Y-58899296D01*
X104625787Y-58984235D01*
X104630000Y-59070000D01*
X104630000Y-60820000D01*
X104625787Y-60905765D01*
X104613187Y-60990704D01*
X104592323Y-61073999D01*
X104563395Y-61154848D01*
X104526681Y-61232472D01*
X104482536Y-61306124D01*
X104431384Y-61375094D01*
X104373718Y-61438718D01*
X104310094Y-61496384D01*
X104241124Y-61547536D01*
X104167472Y-61591681D01*
X104089848Y-61628395D01*
X104008999Y-61657323D01*
X103925704Y-61678187D01*
X103840765Y-61690787D01*
X103755000Y-61695000D01*
X102005000Y-61695000D01*
X101919235Y-61690787D01*
X101834296Y-61678187D01*
X101751001Y-61657323D01*
X101670152Y-61628395D01*
X101592528Y-61591681D01*
X101518876Y-61547536D01*
X101449906Y-61496384D01*
X101386282Y-61438718D01*
X101328616Y-61375094D01*
X101277464Y-61306124D01*
X101233319Y-61232472D01*
X101196605Y-61154848D01*
X101167677Y-61073999D01*
X101146813Y-60990704D01*
X101134213Y-60905765D01*
X101130000Y-60820000D01*
X101130000Y-59070000D01*
X101134213Y-58984235D01*
X101146813Y-58899296D01*
X101167677Y-58816001D01*
X101196605Y-58735152D01*
X101233319Y-58657528D01*
X101277464Y-58583876D01*
X101328616Y-58514906D01*
X101386282Y-58451282D01*
X101449906Y-58393616D01*
X101518876Y-58342464D01*
X101592528Y-58298319D01*
X101670152Y-58261605D01*
X101751001Y-58232677D01*
X101834296Y-58211813D01*
X101919235Y-58199213D01*
X102005000Y-58195000D01*
X103755000Y-58195000D01*
X103840765Y-58199213D01*
X103840765Y-58199213D01*
G37*
D20*
X102880000Y-59945000D03*
D24*
X97775000Y-64215000D03*
D25*
X97775000Y-61675000D03*
D24*
X93800000Y-64215000D03*
D25*
X93800000Y-61675000D03*
D11*
X138100000Y-70325000D03*
X138100000Y-72825000D03*
X138125000Y-78800000D03*
X138125000Y-76300000D03*
X107900000Y-62375000D03*
X110400000Y-62375000D03*
X116650000Y-76450000D03*
X116650000Y-73950000D03*
D26*
X94275000Y-71325000D03*
X155775000Y-72125000D03*
X119325000Y-71640000D03*
X153000000Y-77750000D03*
X110002817Y-86900000D03*
D27*
X94309999Y-67175001D02*
X93510000Y-67975000D01*
X94660001Y-66824999D02*
X94309999Y-67175001D01*
X96602001Y-66824999D02*
X94660001Y-66824999D01*
X99317002Y-69540000D02*
X96602001Y-66824999D01*
X102725000Y-69540000D02*
X99317002Y-69540000D01*
X93485776Y-78416778D02*
X93485776Y-72114224D01*
X104673997Y-89604999D02*
X93485776Y-78416778D01*
X107150000Y-90805000D02*
X105949999Y-89604999D01*
X105949999Y-89604999D02*
X104673997Y-89604999D01*
X93485776Y-72114224D02*
X94275000Y-71325000D01*
X94275000Y-71325000D02*
X94275000Y-71325000D01*
X103524999Y-68740001D02*
X102725000Y-69540000D01*
X104665000Y-67600000D02*
X103524999Y-68740001D01*
X110106457Y-65470001D02*
X107976458Y-67600000D01*
X115489999Y-65470001D02*
X110106457Y-65470001D01*
X107976458Y-67600000D02*
X104665000Y-67600000D01*
X116690000Y-64270000D02*
X115489999Y-65470001D01*
X117345000Y-75755000D02*
X116650000Y-76450000D01*
X122830000Y-75755000D02*
X117345000Y-75755000D01*
X108500000Y-90805000D02*
X107150000Y-90805000D01*
X112047002Y-90805000D02*
X108500000Y-90805000D01*
X115400001Y-87452001D02*
X112047002Y-90805000D01*
X115400001Y-81587997D02*
X115400001Y-87452001D01*
X116650000Y-80337998D02*
X115400001Y-81587997D01*
X116650000Y-76450000D02*
X116650000Y-80337998D01*
X122517997Y-94924999D02*
X119950000Y-92357002D01*
X145045000Y-93300000D02*
X143420001Y-94924999D01*
X143420001Y-94924999D02*
X122517997Y-94924999D01*
X119950000Y-79750000D02*
X116650000Y-76450000D01*
X119950000Y-92357002D02*
X119950000Y-79750000D01*
X125370000Y-78295000D02*
X130450000Y-78295000D01*
X122830000Y-80835000D02*
X125370000Y-78295000D01*
D28*
X149922919Y-52925000D02*
X163350000Y-52925000D01*
X148705000Y-55345000D02*
X148705000Y-54142919D01*
X166060000Y-54142919D02*
X164917081Y-53000000D01*
X166060000Y-55345000D02*
X166060000Y-54142919D01*
X163425000Y-53000000D02*
X163350000Y-52925000D01*
X164917081Y-53000000D02*
X163425000Y-53000000D01*
X147055001Y-53695001D02*
X147855001Y-54495001D01*
X135789999Y-53695001D02*
X147055001Y-53695001D01*
X147855001Y-54495001D02*
X148705000Y-55345000D01*
X134240000Y-55245000D02*
X135789999Y-53695001D01*
X148854999Y-53695001D02*
X149000000Y-53550000D01*
X147055001Y-53695001D02*
X148854999Y-53695001D01*
X148705000Y-54142919D02*
X149000000Y-53550000D01*
X149000000Y-53550000D02*
X149922919Y-52925000D01*
D27*
X111531370Y-62375000D02*
X116156370Y-57750000D01*
X110400000Y-62375000D02*
X111531370Y-62375000D01*
X131735000Y-57750000D02*
X134240000Y-55245000D01*
X116156370Y-57750000D02*
X131735000Y-57750000D01*
X101593630Y-67000000D02*
X102725000Y-67000000D01*
X95072792Y-64215000D02*
X97857792Y-67000000D01*
X97857792Y-67000000D02*
X101593630Y-67000000D01*
X93800000Y-64215000D02*
X95072792Y-64215000D01*
X108399999Y-68025001D02*
X118600001Y-68025001D01*
X107600000Y-68825000D02*
X108399999Y-68025001D01*
X121030002Y-65595000D02*
X122830000Y-65595000D01*
X118600001Y-68025001D02*
X121030002Y-65595000D01*
X99175000Y-61675000D02*
X97775000Y-61675000D01*
X101025001Y-63525001D02*
X99175000Y-61675000D01*
X111229911Y-63525001D02*
X101025001Y-63525001D01*
X112499911Y-62255001D02*
X111229911Y-63525001D01*
X122030001Y-62255001D02*
X112499911Y-62255001D01*
X122830000Y-63055000D02*
X122030001Y-62255001D01*
D28*
X129025000Y-54730000D02*
X129540000Y-55245000D01*
X129025000Y-53925000D02*
X129025000Y-54730000D01*
X128675000Y-53575000D02*
X129025000Y-53925000D01*
X114118999Y-52799999D02*
X125674999Y-52799999D01*
X111673998Y-55245000D02*
X114118999Y-52799999D01*
X105880000Y-55245000D02*
X111673998Y-55245000D01*
X125674999Y-52799999D02*
X126450000Y-53575000D01*
X126450000Y-53575000D02*
X128675000Y-53575000D01*
D27*
X150825003Y-84764999D02*
X155775000Y-79815002D01*
X122830000Y-90995000D02*
X129060001Y-84764999D01*
X129060001Y-84764999D02*
X150825003Y-84764999D01*
X155775000Y-79815002D02*
X155775000Y-72125000D01*
X155775000Y-72125000D02*
X155775000Y-72125000D01*
X160980000Y-82015000D02*
X156220000Y-86775000D01*
X131310000Y-86775000D02*
X130450000Y-85915000D01*
X156220000Y-86775000D02*
X131310000Y-86775000D01*
X128747998Y-93535000D02*
X122830000Y-93535000D01*
X130137997Y-92145001D02*
X128747998Y-93535000D01*
X164859999Y-78184999D02*
X164859999Y-86515001D01*
X146900000Y-87600000D02*
X142354999Y-92145001D01*
X164000000Y-87375000D02*
X163975000Y-87375000D01*
X163520000Y-55345000D02*
X163520000Y-62458998D01*
X162319999Y-75644999D02*
X164859999Y-78184999D01*
X142354999Y-92145001D02*
X130137997Y-92145001D01*
X162319999Y-63658999D02*
X162319999Y-75644999D01*
X163520000Y-62458998D02*
X162319999Y-63658999D01*
X164859999Y-86515001D02*
X164000000Y-87375000D01*
X163975000Y-87375000D02*
X163750000Y-87600000D01*
X163750000Y-87600000D02*
X146900000Y-87600000D01*
X160980000Y-55345000D02*
X156250000Y-60075000D01*
X138510000Y-60075000D02*
X135825000Y-62760000D01*
X156250000Y-60075000D02*
X138510000Y-60075000D01*
X135825000Y-62760000D02*
X135825000Y-65025000D01*
X132715000Y-68135000D02*
X130450000Y-68135000D01*
X135825000Y-65025000D02*
X132715000Y-68135000D01*
X159560001Y-63385001D02*
X156250000Y-60075000D01*
X160130001Y-63385001D02*
X159560001Y-63385001D01*
X160980000Y-64235000D02*
X160130001Y-63385001D01*
X130450000Y-63055000D02*
X135955000Y-57550000D01*
X143960000Y-57550000D02*
X146165000Y-55345000D01*
X135955000Y-57550000D02*
X143960000Y-57550000D01*
X122830000Y-68135000D02*
X119325000Y-71640000D01*
X119325000Y-71640000D02*
X119325000Y-71640000D01*
X123980001Y-82224999D02*
X123629999Y-82575001D01*
X123629999Y-82575001D02*
X122830000Y-83375000D01*
X130950001Y-82224999D02*
X123980001Y-82224999D01*
X133224999Y-79950001D02*
X130950001Y-82224999D01*
X150799999Y-79950001D02*
X133224999Y-79950001D01*
X153000000Y-77750000D02*
X150799999Y-79950001D01*
X172300000Y-73015000D02*
X163520000Y-64235000D01*
X172300000Y-83775000D02*
X172300000Y-73015000D01*
X123980001Y-97225001D02*
X143112997Y-97225001D01*
X167750000Y-88325000D02*
X172300000Y-83775000D01*
X122830000Y-96075000D02*
X123980001Y-97225001D01*
X143112997Y-97225001D02*
X152012998Y-88325000D01*
X152012998Y-88325000D02*
X167750000Y-88325000D01*
X129897999Y-69524999D02*
X125200000Y-74222998D01*
X146165000Y-65437081D02*
X142867071Y-68735010D01*
X146165000Y-64235000D02*
X146165000Y-65437081D01*
X142867071Y-68735010D02*
X131489990Y-68735010D01*
X131489990Y-68735010D02*
X130700001Y-69524999D01*
X130700001Y-69524999D02*
X129897999Y-69524999D01*
X121679999Y-77742999D02*
X121679999Y-84764999D01*
X122030001Y-85115001D02*
X122830000Y-85915000D01*
X122277999Y-77144999D02*
X121679999Y-77742999D01*
X123142003Y-77144999D02*
X122277999Y-77144999D01*
X121679999Y-84764999D02*
X122030001Y-85115001D01*
X125200000Y-75087002D02*
X123142003Y-77144999D01*
X125200000Y-74222998D02*
X125200000Y-75087002D01*
X110002817Y-86900000D02*
X110002817Y-86900000D01*
X110002817Y-86900000D02*
X114250000Y-86900000D01*
X97014224Y-78037226D02*
X97014224Y-68939224D01*
X96849999Y-68774999D02*
X96050000Y-67975000D01*
X98194101Y-79217103D02*
X97014224Y-78037226D01*
X101565101Y-79217103D02*
X98194101Y-79217103D01*
X104347998Y-82000000D02*
X101565101Y-79217103D01*
X97014224Y-68939224D02*
X96849999Y-68774999D01*
X107150000Y-88305000D02*
X107150000Y-84800000D01*
X104375000Y-82025000D02*
X104347998Y-82000000D01*
X104925000Y-82300000D02*
X105200000Y-82025000D01*
X104925000Y-82575000D02*
X104925000Y-82300000D01*
X107150000Y-84800000D02*
X104925000Y-82575000D01*
X114150000Y-82000000D02*
X105200000Y-82025000D01*
X104925000Y-82575000D02*
X104375000Y-82025000D01*
X105200000Y-82025000D02*
X104375000Y-82025000D01*
X106429999Y-65114999D02*
X107600000Y-66285000D01*
X97775000Y-64215000D02*
X98674999Y-65114999D01*
X98674999Y-65114999D02*
X106429999Y-65114999D01*
X99842101Y-76867103D02*
X108542103Y-76867103D01*
X98842102Y-77867102D02*
X99842101Y-76867103D01*
X112609207Y-72799999D02*
X115475001Y-72799999D01*
X108542103Y-76867103D02*
X112609207Y-72799999D01*
X129299999Y-66745001D02*
X129650001Y-66394999D01*
X129650001Y-66394999D02*
X130450000Y-65595000D01*
X121529999Y-66745001D02*
X129299999Y-66745001D01*
X115475001Y-72799999D02*
X121529999Y-66745001D01*
M02*
