M48
; DRILL file {KiCad 5.1.4+dfsg1-1} date Sun 19 Jan 2020 04:19:49 PM EST
; FORMAT={-:-/ absolute / inch / decimal}
; #@! TF.CreationDate,2020-01-19T16:19:49-05:00
; #@! TF.GenerationSoftware,Kicad,Pcbnew,5.1.4+dfsg1-1
; #@! TF.FileFunction,Plated,1,2,PTH
FMAT,2
INCH
T1C0.0300
T2C0.0315
T3C0.0354
T4C0.0362
T5C0.0394
T6C0.0472
T7C0.0917
%
G90
G05
T1
X5.2825Y-2.8829
X5.2825Y-2.9829
T2
X3.7116Y-2.8081
X4.3308Y-3.4213
X4.6978Y-2.8205
X6.0236Y-3.061
X6.1329Y-2.8396
X4.498Y-3.4213
X4.598Y-3.4213
X5.438Y-3.0039
X5.438Y-3.1024
X4.2362Y-2.6096
X4.2362Y-2.7096
X4.0443Y-2.6378
X4.0443Y-2.7378
X4.8358Y-2.4825
X4.8358Y-2.5825
X4.8358Y-2.6825
X4.8358Y-2.7825
X4.8358Y-2.8825
X4.8358Y-2.9825
X4.8358Y-3.0825
X4.8358Y-3.1825
X4.8358Y-3.2825
X4.8358Y-3.3825
X4.8358Y-3.4825
X4.8358Y-3.5825
X4.8358Y-3.6825
X4.8358Y-3.7825
X5.1358Y-2.4825
X5.1358Y-2.5825
X5.1358Y-2.6825
X5.1358Y-2.7825
X5.1358Y-2.8825
X5.1358Y-2.9825
X5.1358Y-3.0825
X5.1358Y-3.1825
X5.1358Y-3.2825
X5.1358Y-3.3825
X5.1358Y-3.4825
X5.1358Y-3.5825
X5.1358Y-3.6825
X5.1358Y-3.7825
X4.0325Y-3.0856
X4.1309Y-3.0856
X4.248Y-2.4557
X4.3465Y-2.4557
X5.437Y-2.7687
X5.437Y-2.8671
X4.5925Y-2.9114
X4.5925Y-3.0098
X5.4104Y-3.6732
X5.7104Y-3.6732
X4.4941Y-3.2283
X4.5941Y-3.2283
X3.6815Y-2.6762
X3.7815Y-2.6762
X4.0364Y-2.9114
X4.1364Y-2.9114
T3
X3.8494Y-2.4281
X3.8494Y-2.5281
X3.6929Y-2.4281
X3.6929Y-2.5281
T4
X4.1398Y-3.4766
X4.1398Y-3.575
X4.2185Y-3.4766
X4.2185Y-3.575
T5
X5.6545Y-3.2289
X5.7545Y-3.2289
X5.8545Y-3.2289
X5.9545Y-3.2289
X5.6545Y-2.5289
X5.7545Y-2.5289
X5.8545Y-2.5289
X5.9545Y-2.5289
X6.3378Y-2.5289
X6.4378Y-2.5289
X6.5378Y-2.5289
X6.6378Y-2.5289
X6.3378Y-3.2289
X6.4378Y-3.2289
X6.5378Y-3.2289
X6.6378Y-3.2289
X6.3378Y-2.1789
X6.4378Y-2.1789
X6.5378Y-2.1789
X6.6378Y-2.1789
X5.6545Y-2.8789
X5.7545Y-2.8789
X5.8545Y-2.8789
X5.9545Y-2.8789
X5.6545Y-2.1789
X5.7545Y-2.1789
X5.8545Y-2.1789
X5.9545Y-2.1789
X4.4941Y-2.5303
X4.4941Y-2.6303
X4.4941Y-2.7303
X4.5941Y-2.5303
X4.5941Y-2.6303
X4.5941Y-2.7303
X3.75Y-2.9242
X3.8914Y-3.0656
X6.3378Y-2.8789
X6.4378Y-2.8789
X6.5378Y-2.8789
X6.6378Y-2.8789
T7
X4.0331Y-3.2888
X4.0331Y-3.7628
T5
G00X3.9323Y-2.1356
M15
G01X3.9323Y-2.2144
M16
G05
G00X4.011Y-2.36
M15
G01X4.0898Y-2.36
M16
G05
G00X4.1685Y-2.1356
M15
G01X4.1685Y-2.2144
M16
G05
T6
G00X4.915Y-2.1553
M15
G01X4.915Y-2.1947
M16
G05
G00X5.1Y-2.1553
M15
G01X5.1Y-2.1947
M16
G05
G00X5.285Y-2.1553
M15
G01X5.285Y-2.1947
M16
G05
G00X5.8937Y-3.6988
M15
G01X5.8937Y-3.6594
M16
G05
G00X6.0787Y-3.6988
M15
G01X6.0787Y-3.6594
M16
G05
G00X6.2638Y-3.6988
M15
G01X6.2638Y-3.6594
M16
G05
T0
M30
