G04 #@! TF.GenerationSoftware,KiCad,Pcbnew,5.1.4+dfsg1-1*
G04 #@! TF.CreationDate,2020-01-19T16:19:53-05:00*
G04 #@! TF.ProjectId,Windig_Kicad,57696e64-6967-45f4-9b69-6361642e6b69,rev?*
G04 #@! TF.SameCoordinates,Original*
G04 #@! TF.FileFunction,Legend,Top*
G04 #@! TF.FilePolarity,Positive*
%FSLAX46Y46*%
G04 Gerber Fmt 4.6, Leading zero omitted, Abs format (unit mm)*
G04 Created by KiCad (PCBNEW 5.1.4+dfsg1-1) date 2020-01-19 16:19:53*
%MOMM*%
%LPD*%
G04 APERTURE LIST*
%ADD10C,0.250000*%
%ADD11C,0.100000*%
%ADD12C,0.150000*%
%ADD13C,0.120000*%
%ADD14C,0.125000*%
%ADD15C,0.300000*%
%ADD16C,0.152400*%
%ADD17C,0.190500*%
G04 APERTURE END LIST*
D10*
X153559523Y-80844047D02*
X157559523Y-79891666D01*
X154702380Y-79129761D01*
X157559523Y-78367857D01*
X153559523Y-77415476D01*
X157559523Y-75891666D02*
X153559523Y-75891666D01*
X157559523Y-73986904D02*
X153559523Y-73986904D01*
X157559523Y-71701190D01*
X153559523Y-71701190D01*
X157559523Y-69796428D02*
X153559523Y-69796428D01*
X153559523Y-68844047D01*
X153750000Y-68272619D01*
X154130952Y-67891666D01*
X154511904Y-67701190D01*
X155273809Y-67510714D01*
X155845238Y-67510714D01*
X156607142Y-67701190D01*
X156988095Y-67891666D01*
X157369047Y-68272619D01*
X157559523Y-68844047D01*
X157559523Y-69796428D01*
X157559523Y-65796428D02*
X153559523Y-65796428D01*
X153750000Y-61796428D02*
X153559523Y-62177380D01*
X153559523Y-62748809D01*
X153750000Y-63320238D01*
X154130952Y-63701190D01*
X154511904Y-63891666D01*
X155273809Y-64082142D01*
X155845238Y-64082142D01*
X156607142Y-63891666D01*
X156988095Y-63701190D01*
X157369047Y-63320238D01*
X157559523Y-62748809D01*
X157559523Y-62367857D01*
X157369047Y-61796428D01*
X157178571Y-61605952D01*
X155845238Y-61605952D01*
X155845238Y-62367857D01*
X157178571Y-59891666D02*
X157369047Y-59701190D01*
X157559523Y-59891666D01*
X157369047Y-60082142D01*
X157178571Y-59891666D01*
X157559523Y-59891666D01*
X156035714Y-59891666D02*
X153750000Y-60082142D01*
X153559523Y-59891666D01*
X153750000Y-59701190D01*
X156035714Y-59891666D01*
X153559523Y-59891666D01*
X157178571Y-57986904D02*
X157369047Y-57796428D01*
X157559523Y-57986904D01*
X157369047Y-58177380D01*
X157178571Y-57986904D01*
X157559523Y-57986904D01*
X156035714Y-57986904D02*
X153750000Y-58177380D01*
X153559523Y-57986904D01*
X153750000Y-57796428D01*
X156035714Y-57986904D01*
X153559523Y-57986904D01*
D11*
G36*
X146900000Y-86600000D02*
G01*
X145125000Y-86600000D01*
X145125000Y-84175000D01*
X146900000Y-84175000D01*
X146900000Y-86600000D01*
G37*
X146900000Y-86600000D02*
X145125000Y-86600000D01*
X145125000Y-84175000D01*
X146900000Y-84175000D01*
X146900000Y-86600000D01*
G36*
X164450000Y-86575000D02*
G01*
X162675000Y-86575000D01*
X162675000Y-84150000D01*
X164450000Y-84150000D01*
X164450000Y-86575000D01*
G37*
X164450000Y-86575000D02*
X162675000Y-86575000D01*
X162675000Y-84150000D01*
X164450000Y-84150000D01*
X164450000Y-86575000D01*
G36*
X152125000Y-86575000D02*
G01*
X150350000Y-86575000D01*
X150350000Y-84150000D01*
X152125000Y-84150000D01*
X152125000Y-86575000D01*
G37*
X152125000Y-86575000D02*
X150350000Y-86575000D01*
X150350000Y-84150000D01*
X152125000Y-84150000D01*
X152125000Y-86575000D01*
G36*
X169675000Y-86550000D02*
G01*
X167900000Y-86550000D01*
X167900000Y-84125000D01*
X169675000Y-84125000D01*
X169675000Y-86550000D01*
G37*
X169675000Y-86550000D02*
X167900000Y-86550000D01*
X167900000Y-84125000D01*
X169675000Y-84125000D01*
X169675000Y-86550000D01*
G36*
X152150000Y-77850000D02*
G01*
X150375000Y-77850000D01*
X150375000Y-75425000D01*
X152150000Y-75425000D01*
X152150000Y-77850000D01*
G37*
X152150000Y-77850000D02*
X150375000Y-77850000D01*
X150375000Y-75425000D01*
X152150000Y-75425000D01*
X152150000Y-77850000D01*
G36*
X146925000Y-77875000D02*
G01*
X145150000Y-77875000D01*
X145150000Y-75450000D01*
X146925000Y-75450000D01*
X146925000Y-77875000D01*
G37*
X146925000Y-77875000D02*
X145150000Y-77875000D01*
X145150000Y-75450000D01*
X146925000Y-75450000D01*
X146925000Y-77875000D01*
G36*
X164475000Y-77850000D02*
G01*
X162700000Y-77850000D01*
X162700000Y-75425000D01*
X164475000Y-75425000D01*
X164475000Y-77850000D01*
G37*
X164475000Y-77850000D02*
X162700000Y-77850000D01*
X162700000Y-75425000D01*
X164475000Y-75425000D01*
X164475000Y-77850000D01*
G36*
X169700000Y-77825000D02*
G01*
X167925000Y-77825000D01*
X167925000Y-75400000D01*
X169700000Y-75400000D01*
X169700000Y-77825000D01*
G37*
X169700000Y-77825000D02*
X167925000Y-77825000D01*
X167925000Y-75400000D01*
X169700000Y-75400000D01*
X169700000Y-77825000D01*
G36*
X146875000Y-68900000D02*
G01*
X145100000Y-68900000D01*
X145100000Y-66475000D01*
X146875000Y-66475000D01*
X146875000Y-68900000D01*
G37*
X146875000Y-68900000D02*
X145100000Y-68900000D01*
X145100000Y-66475000D01*
X146875000Y-66475000D01*
X146875000Y-68900000D01*
G36*
X164425000Y-68875000D02*
G01*
X162650000Y-68875000D01*
X162650000Y-66450000D01*
X164425000Y-66450000D01*
X164425000Y-68875000D01*
G37*
X164425000Y-68875000D02*
X162650000Y-68875000D01*
X162650000Y-66450000D01*
X164425000Y-66450000D01*
X164425000Y-68875000D01*
G36*
X152100000Y-68875000D02*
G01*
X150325000Y-68875000D01*
X150325000Y-66450000D01*
X152100000Y-66450000D01*
X152100000Y-68875000D01*
G37*
X152100000Y-68875000D02*
X150325000Y-68875000D01*
X150325000Y-66450000D01*
X152100000Y-66450000D01*
X152100000Y-68875000D01*
G36*
X169650000Y-68850000D02*
G01*
X167875000Y-68850000D01*
X167875000Y-66425000D01*
X169650000Y-66425000D01*
X169650000Y-68850000D01*
G37*
X169650000Y-68850000D02*
X167875000Y-68850000D01*
X167875000Y-66425000D01*
X169650000Y-66425000D01*
X169650000Y-68850000D01*
G36*
X164525000Y-60000000D02*
G01*
X162750000Y-60000000D01*
X162750000Y-57575000D01*
X164525000Y-57575000D01*
X164525000Y-60000000D01*
G37*
X164525000Y-60000000D02*
X162750000Y-60000000D01*
X162750000Y-57575000D01*
X164525000Y-57575000D01*
X164525000Y-60000000D01*
G36*
X169750000Y-59975000D02*
G01*
X167975000Y-59975000D01*
X167975000Y-57550000D01*
X169750000Y-57550000D01*
X169750000Y-59975000D01*
G37*
X169750000Y-59975000D02*
X167975000Y-59975000D01*
X167975000Y-57550000D01*
X169750000Y-57550000D01*
X169750000Y-59975000D01*
G36*
X146975000Y-60025000D02*
G01*
X145200000Y-60025000D01*
X145200000Y-57600000D01*
X146975000Y-57600000D01*
X146975000Y-60025000D01*
G37*
X146975000Y-60025000D02*
X145200000Y-60025000D01*
X145200000Y-57600000D01*
X146975000Y-57600000D01*
X146975000Y-60025000D01*
G36*
X152200000Y-60000000D02*
G01*
X150425000Y-60000000D01*
X150425000Y-57575000D01*
X152200000Y-57575000D01*
X152200000Y-60000000D01*
G37*
X152200000Y-60000000D02*
X150425000Y-60000000D01*
X150425000Y-57575000D01*
X152200000Y-57575000D01*
X152200000Y-60000000D01*
D12*
X130032619Y-31630952D02*
X129937380Y-31583333D01*
X129889761Y-31535714D01*
X129842142Y-31440476D01*
X129842142Y-31392857D01*
X129889761Y-31297619D01*
X129937380Y-31250000D01*
X130032619Y-31202380D01*
X130223095Y-31202380D01*
X130318333Y-31250000D01*
X130365952Y-31297619D01*
X130413571Y-31392857D01*
X130413571Y-31440476D01*
X130365952Y-31535714D01*
X130318333Y-31583333D01*
X130223095Y-31630952D01*
X130032619Y-31630952D01*
X129937380Y-31678571D01*
X129889761Y-31726190D01*
X129842142Y-31821428D01*
X129842142Y-32011904D01*
X129889761Y-32107142D01*
X129937380Y-32154761D01*
X130032619Y-32202380D01*
X130223095Y-32202380D01*
X130318333Y-32154761D01*
X130365952Y-32107142D01*
X130413571Y-32011904D01*
X130413571Y-31821428D01*
X130365952Y-31726190D01*
X130318333Y-31678571D01*
X130223095Y-31630952D01*
X131318333Y-31202380D02*
X130842142Y-31202380D01*
X130794523Y-31678571D01*
X130842142Y-31630952D01*
X130937380Y-31583333D01*
X131175476Y-31583333D01*
X131270714Y-31630952D01*
X131318333Y-31678571D01*
X131365952Y-31773809D01*
X131365952Y-32011904D01*
X131318333Y-32107142D01*
X131270714Y-32154761D01*
X131175476Y-32202380D01*
X130937380Y-32202380D01*
X130842142Y-32154761D01*
X130794523Y-32107142D01*
X131794523Y-32107142D02*
X131842142Y-32154761D01*
X131794523Y-32202380D01*
X131746904Y-32154761D01*
X131794523Y-32107142D01*
X131794523Y-32202380D01*
X132461190Y-31202380D02*
X132556428Y-31202380D01*
X132651666Y-31250000D01*
X132699285Y-31297619D01*
X132746904Y-31392857D01*
X132794523Y-31583333D01*
X132794523Y-31821428D01*
X132746904Y-32011904D01*
X132699285Y-32107142D01*
X132651666Y-32154761D01*
X132556428Y-32202380D01*
X132461190Y-32202380D01*
X132365952Y-32154761D01*
X132318333Y-32107142D01*
X132270714Y-32011904D01*
X132223095Y-31821428D01*
X132223095Y-31583333D01*
X132270714Y-31392857D01*
X132318333Y-31297619D01*
X132365952Y-31250000D01*
X132461190Y-31202380D01*
X133270714Y-32202380D02*
X133461190Y-32202380D01*
X133556428Y-32154761D01*
X133604047Y-32107142D01*
X133699285Y-31964285D01*
X133746904Y-31773809D01*
X133746904Y-31392857D01*
X133699285Y-31297619D01*
X133651666Y-31250000D01*
X133556428Y-31202380D01*
X133365952Y-31202380D01*
X133270714Y-31250000D01*
X133223095Y-31297619D01*
X133175476Y-31392857D01*
X133175476Y-31630952D01*
X133223095Y-31726190D01*
X133270714Y-31773809D01*
X133365952Y-31821428D01*
X133556428Y-31821428D01*
X133651666Y-31773809D01*
X133699285Y-31726190D01*
X133746904Y-31630952D01*
X134365952Y-31202380D02*
X134461190Y-31202380D01*
X134556428Y-31250000D01*
X134604047Y-31297619D01*
X134651666Y-31392857D01*
X134699285Y-31583333D01*
X134699285Y-31821428D01*
X134651666Y-32011904D01*
X134604047Y-32107142D01*
X134556428Y-32154761D01*
X134461190Y-32202380D01*
X134365952Y-32202380D01*
X134270714Y-32154761D01*
X134223095Y-32107142D01*
X134175476Y-32011904D01*
X134127857Y-31821428D01*
X134127857Y-31583333D01*
X134175476Y-31392857D01*
X134223095Y-31297619D01*
X134270714Y-31250000D01*
X134365952Y-31202380D01*
X135889761Y-32202380D02*
X135889761Y-31535714D01*
X135889761Y-31630952D02*
X135937380Y-31583333D01*
X136032619Y-31535714D01*
X136175476Y-31535714D01*
X136270714Y-31583333D01*
X136318333Y-31678571D01*
X136318333Y-32202380D01*
X136318333Y-31678571D02*
X136365952Y-31583333D01*
X136461190Y-31535714D01*
X136604047Y-31535714D01*
X136699285Y-31583333D01*
X136746904Y-31678571D01*
X136746904Y-32202380D01*
X137223095Y-32202380D02*
X137223095Y-31535714D01*
X137223095Y-31630952D02*
X137270714Y-31583333D01*
X137365952Y-31535714D01*
X137508809Y-31535714D01*
X137604047Y-31583333D01*
X137651666Y-31678571D01*
X137651666Y-32202380D01*
X137651666Y-31678571D02*
X137699285Y-31583333D01*
X137794523Y-31535714D01*
X137937380Y-31535714D01*
X138032619Y-31583333D01*
X138080238Y-31678571D01*
X138080238Y-32202380D01*
D13*
X91440000Y-33020000D02*
X176530000Y-33020000D01*
X91440000Y-45720000D02*
X91440000Y-32433579D01*
X176530000Y-45720000D02*
X176530000Y-32433579D01*
X176530000Y-33020000D02*
X175403496Y-33606421D01*
X176530000Y-33020000D02*
X175403496Y-32433579D01*
X91440000Y-33020000D02*
X92566504Y-33606421D01*
X91440000Y-33020000D02*
X92566504Y-32433579D01*
D12*
X76414285Y-70628333D02*
X75747619Y-70628333D01*
X76795238Y-70390238D02*
X76080952Y-70152142D01*
X76080952Y-70771190D01*
X75747619Y-71199761D02*
X75747619Y-71390238D01*
X75795238Y-71485476D01*
X75842857Y-71533095D01*
X75985714Y-71628333D01*
X76176190Y-71675952D01*
X76557142Y-71675952D01*
X76652380Y-71628333D01*
X76700000Y-71580714D01*
X76747619Y-71485476D01*
X76747619Y-71295000D01*
X76700000Y-71199761D01*
X76652380Y-71152142D01*
X76557142Y-71104523D01*
X76319047Y-71104523D01*
X76223809Y-71152142D01*
X76176190Y-71199761D01*
X76128571Y-71295000D01*
X76128571Y-71485476D01*
X76176190Y-71580714D01*
X76223809Y-71628333D01*
X76319047Y-71675952D01*
X75842857Y-72104523D02*
X75795238Y-72152142D01*
X75747619Y-72104523D01*
X75795238Y-72056904D01*
X75842857Y-72104523D01*
X75747619Y-72104523D01*
X76747619Y-73056904D02*
X76747619Y-72580714D01*
X76271428Y-72533095D01*
X76319047Y-72580714D01*
X76366666Y-72675952D01*
X76366666Y-72914047D01*
X76319047Y-73009285D01*
X76271428Y-73056904D01*
X76176190Y-73104523D01*
X75938095Y-73104523D01*
X75842857Y-73056904D01*
X75795238Y-73009285D01*
X75747619Y-72914047D01*
X75747619Y-72675952D01*
X75795238Y-72580714D01*
X75842857Y-72533095D01*
X76747619Y-73437857D02*
X76747619Y-74056904D01*
X76366666Y-73723571D01*
X76366666Y-73866428D01*
X76319047Y-73961666D01*
X76271428Y-74009285D01*
X76176190Y-74056904D01*
X75938095Y-74056904D01*
X75842857Y-74009285D01*
X75795238Y-73961666D01*
X75747619Y-73866428D01*
X75747619Y-73580714D01*
X75795238Y-73485476D01*
X75842857Y-73437857D01*
X76747619Y-74675952D02*
X76747619Y-74771190D01*
X76700000Y-74866428D01*
X76652380Y-74914047D01*
X76557142Y-74961666D01*
X76366666Y-75009285D01*
X76128571Y-75009285D01*
X75938095Y-74961666D01*
X75842857Y-74914047D01*
X75795238Y-74866428D01*
X75747619Y-74771190D01*
X75747619Y-74675952D01*
X75795238Y-74580714D01*
X75842857Y-74533095D01*
X75938095Y-74485476D01*
X76128571Y-74437857D01*
X76366666Y-74437857D01*
X76557142Y-74485476D01*
X76652380Y-74533095D01*
X76700000Y-74580714D01*
X76747619Y-74675952D01*
X75747619Y-76199761D02*
X76414285Y-76199761D01*
X76319047Y-76199761D02*
X76366666Y-76247380D01*
X76414285Y-76342619D01*
X76414285Y-76485476D01*
X76366666Y-76580714D01*
X76271428Y-76628333D01*
X75747619Y-76628333D01*
X76271428Y-76628333D02*
X76366666Y-76675952D01*
X76414285Y-76771190D01*
X76414285Y-76914047D01*
X76366666Y-77009285D01*
X76271428Y-77056904D01*
X75747619Y-77056904D01*
X75747619Y-77533095D02*
X76414285Y-77533095D01*
X76319047Y-77533095D02*
X76366666Y-77580714D01*
X76414285Y-77675952D01*
X76414285Y-77818809D01*
X76366666Y-77914047D01*
X76271428Y-77961666D01*
X75747619Y-77961666D01*
X76271428Y-77961666D02*
X76366666Y-78009285D01*
X76414285Y-78104523D01*
X76414285Y-78247380D01*
X76366666Y-78342619D01*
X76271428Y-78390238D01*
X75747619Y-78390238D01*
D13*
X77470000Y-49530000D02*
X77470000Y-99060000D01*
X87630000Y-49530000D02*
X76883579Y-49530000D01*
X87630000Y-99060000D02*
X76883579Y-99060000D01*
X77470000Y-99060000D02*
X76883579Y-97933496D01*
X77470000Y-99060000D02*
X78056421Y-97933496D01*
X77470000Y-49530000D02*
X76883579Y-50656504D01*
X77470000Y-49530000D02*
X78056421Y-50656504D01*
X144505000Y-94670000D02*
X144505000Y-94340000D01*
X137965000Y-94670000D02*
X144505000Y-94670000D01*
X137965000Y-94340000D02*
X137965000Y-94670000D01*
X144505000Y-91930000D02*
X144505000Y-92260000D01*
X137965000Y-91930000D02*
X144505000Y-91930000D01*
X137965000Y-92260000D02*
X137965000Y-91930000D01*
X103869775Y-74921380D02*
G75*
G02X103978272Y-73150000I-1344775J971380D01*
G01*
X94705225Y-67003620D02*
G75*
G02X94596728Y-68775000I1344775J-971380D01*
G01*
X115494775Y-82971380D02*
G75*
G02X115603272Y-81200000I-1344775J971380D01*
G01*
X115594775Y-87871380D02*
G75*
G02X115703272Y-86100000I-1344775J971380D01*
G01*
X101753620Y-68344775D02*
G75*
G02X103525000Y-68453272I971380J1344775D01*
G01*
X108571380Y-67480225D02*
G75*
G02X106800000Y-67371728I-971380J-1344775D01*
G01*
X105695000Y-79170000D02*
X105695000Y-79795000D01*
X105695000Y-76955000D02*
X105695000Y-77580000D01*
X101655000Y-79170000D02*
X101655000Y-79795000D01*
X101655000Y-76955000D02*
X101655000Y-77580000D01*
X101655000Y-79795000D02*
X105695000Y-79795000D01*
X101655000Y-76955000D02*
X105695000Y-76955000D01*
X97173330Y-74190147D02*
X95165147Y-76198330D01*
X97343036Y-74359853D02*
X95334853Y-76368036D01*
X97258183Y-74275000D02*
X95250000Y-76283183D01*
X97258183Y-78291367D02*
X97385462Y-78164087D01*
X94825736Y-75858919D02*
X97258183Y-78291367D01*
X94953015Y-75731640D02*
X94825736Y-75858919D01*
X99266367Y-76283183D02*
X99139087Y-76410462D01*
X96833919Y-73850736D02*
X99266367Y-76283183D01*
X96706640Y-73978015D02*
X96833919Y-73850736D01*
D12*
X134175000Y-70939000D02*
G75*
G03X132143000Y-72971000I0J-2032000D01*
G01*
X136207000Y-72971000D02*
G75*
G03X134175000Y-70939000I-2032000J0D01*
G01*
X132143000Y-76019000D02*
G75*
G03X134175000Y-78051000I2032000J0D01*
G01*
X134175000Y-78051000D02*
G75*
G03X136207000Y-76019000I0J2032000D01*
G01*
X132143000Y-72971000D02*
X132143000Y-76019000D01*
X132143000Y-76019000D02*
X132143000Y-72971000D01*
X136207000Y-76019000D02*
X136207000Y-72971000D01*
D13*
X123990000Y-97405000D02*
X125640000Y-97405000D01*
X123990000Y-61725000D02*
X123990000Y-97405000D01*
X129290000Y-61725000D02*
X123990000Y-61725000D01*
X129290000Y-97405000D02*
X129290000Y-61725000D01*
X127640000Y-97405000D02*
X129290000Y-97405000D01*
X125640000Y-97405000D02*
G75*
G02X127640000Y-97405000I1000000J0D01*
G01*
D14*
X147800000Y-97350000D02*
X147800000Y-89550000D01*
X147900000Y-89450000D02*
X160900000Y-89450000D01*
X161000000Y-89550000D02*
X161000000Y-97350000D01*
X160900000Y-97450000D02*
X147900000Y-97450000D01*
X157400000Y-93450000D02*
G75*
G03X157400000Y-93450000I-3000000J0D01*
G01*
X147923000Y-97450500D02*
G75*
G02X147796000Y-97323500I0J127000D01*
G01*
X160877000Y-89449500D02*
G75*
G02X161004000Y-89576500I0J-127000D01*
G01*
X147796000Y-89576500D02*
G75*
G02X147923000Y-89449500I127000J0D01*
G01*
X161004000Y-97323500D02*
G75*
G02X160877000Y-97450500I-127000J0D01*
G01*
X157205522Y-93450000D02*
G75*
G03X157205522Y-93450000I-2805522J0D01*
G01*
X156081252Y-93450000D02*
G75*
G03X156081252Y-93450000I-1681252J0D01*
G01*
X136140000Y-51345000D02*
X136140000Y-59145000D01*
X136040000Y-59245000D02*
X123040000Y-59245000D01*
X122940000Y-59145000D02*
X122940000Y-51345000D01*
X123040000Y-51245000D02*
X136040000Y-51245000D01*
X132540000Y-55245000D02*
G75*
G03X132540000Y-55245000I-3000000J0D01*
G01*
X136017000Y-51244500D02*
G75*
G02X136144000Y-51371500I0J-127000D01*
G01*
X123063000Y-59245500D02*
G75*
G02X122936000Y-59118500I0J127000D01*
G01*
X136144000Y-59118500D02*
G75*
G02X136017000Y-59245500I-127000J0D01*
G01*
X122936000Y-51371500D02*
G75*
G02X123063000Y-51244500I127000J0D01*
G01*
X132345522Y-55245000D02*
G75*
G03X132345522Y-55245000I-2805522J0D01*
G01*
X131221252Y-55245000D02*
G75*
G03X131221252Y-55245000I-1681252J0D01*
G01*
D13*
X152515000Y-62965000D02*
X142355000Y-62965000D01*
X142355000Y-62965000D02*
X142355000Y-65632000D01*
X142355000Y-65632000D02*
X152515000Y-65632000D01*
X152515000Y-65632000D02*
X152515000Y-62965000D01*
X169870000Y-62965000D02*
X159710000Y-62965000D01*
X159710000Y-62965000D02*
X159710000Y-65632000D01*
X159710000Y-65632000D02*
X169870000Y-65632000D01*
X169870000Y-65632000D02*
X169870000Y-62965000D01*
X152515000Y-80745000D02*
X142355000Y-80745000D01*
X142355000Y-80745000D02*
X142355000Y-83412000D01*
X142355000Y-83412000D02*
X152515000Y-83412000D01*
X152515000Y-83412000D02*
X152515000Y-80745000D01*
X169870000Y-80745000D02*
X159710000Y-80745000D01*
X159710000Y-80745000D02*
X159710000Y-83412000D01*
X159710000Y-83412000D02*
X169870000Y-83412000D01*
X169870000Y-83412000D02*
X169870000Y-80745000D01*
D15*
X118214000Y-62238000D02*
X112626000Y-62238000D01*
D13*
X112820000Y-62940000D02*
X114090000Y-62940000D01*
X112820000Y-64270000D02*
X112820000Y-62940000D01*
X115420000Y-65540000D02*
X112820000Y-65540000D01*
X115420000Y-62940000D02*
X115420000Y-65540000D01*
X118020000Y-62940000D02*
X115420000Y-62940000D01*
X118020000Y-70680000D02*
X118020000Y-62940000D01*
X112820000Y-70680000D02*
X118020000Y-70680000D01*
X112820000Y-65540000D02*
X112820000Y-70680000D01*
X152515000Y-54075000D02*
X142355000Y-54075000D01*
X142355000Y-54075000D02*
X142355000Y-56742000D01*
X142355000Y-56742000D02*
X152515000Y-56742000D01*
X152515000Y-56742000D02*
X152515000Y-54075000D01*
X169870000Y-54075000D02*
X159710000Y-54075000D01*
X159710000Y-54075000D02*
X159710000Y-56742000D01*
X159710000Y-56742000D02*
X169870000Y-56742000D01*
X169870000Y-56742000D02*
X169870000Y-54075000D01*
X152515000Y-71855000D02*
X142355000Y-71855000D01*
X142355000Y-71855000D02*
X142355000Y-74522000D01*
X142355000Y-74522000D02*
X152515000Y-74522000D01*
X152515000Y-74522000D02*
X152515000Y-71855000D01*
X169870000Y-71855000D02*
X159710000Y-71855000D01*
X159710000Y-71855000D02*
X159710000Y-74522000D01*
X159710000Y-74522000D02*
X169870000Y-74522000D01*
X169870000Y-74522000D02*
X169870000Y-71855000D01*
X109470000Y-90305000D02*
X108970000Y-90805000D01*
X109470000Y-91305000D02*
X109470000Y-90305000D01*
X108970000Y-90805000D02*
X109470000Y-91305000D01*
X92030000Y-83395000D02*
X100390000Y-83395000D01*
X92030000Y-95715000D02*
X92030000Y-83395000D01*
X100390000Y-95715000D02*
X92030000Y-95715000D01*
X108750000Y-83395000D02*
X104490000Y-83395000D01*
X108750000Y-95715000D02*
X108750000Y-83395000D01*
X104490000Y-95715000D02*
X108750000Y-95715000D01*
X106980000Y-51495000D02*
X106980000Y-50445000D01*
X105930000Y-50445000D02*
X106980000Y-50445000D01*
X100880000Y-59845000D02*
X92080000Y-59845000D01*
X92080000Y-59845000D02*
X92080000Y-50645000D01*
X106780000Y-57145000D02*
X106780000Y-59845000D01*
X106780000Y-59845000D02*
X104880000Y-59845000D01*
X92080000Y-50645000D02*
X106780000Y-50645000D01*
X106780000Y-50645000D02*
X106780000Y-53245000D01*
X96695000Y-61475000D02*
X96515000Y-61475000D01*
X99035000Y-61475000D02*
X98855000Y-61475000D01*
X96695000Y-61355000D02*
X96515000Y-61355000D01*
X99035000Y-61355000D02*
X98855000Y-61355000D01*
X96680000Y-64655000D02*
X96515000Y-64655000D01*
X99035000Y-64655000D02*
X98870000Y-64655000D01*
X96695000Y-61235000D02*
X96515000Y-61235000D01*
X99035000Y-61235000D02*
X98855000Y-61235000D01*
X96515000Y-61235000D02*
X96515000Y-64655000D01*
X99035000Y-61235000D02*
X99035000Y-64655000D01*
X92720000Y-61475000D02*
X92540000Y-61475000D01*
X95060000Y-61475000D02*
X94880000Y-61475000D01*
X92720000Y-61355000D02*
X92540000Y-61355000D01*
X95060000Y-61355000D02*
X94880000Y-61355000D01*
X92705000Y-64655000D02*
X92540000Y-64655000D01*
X95060000Y-64655000D02*
X94895000Y-64655000D01*
X92720000Y-61235000D02*
X92540000Y-61235000D01*
X95060000Y-61235000D02*
X94880000Y-61235000D01*
X92540000Y-61235000D02*
X92540000Y-64655000D01*
X95060000Y-61235000D02*
X95060000Y-64655000D01*
X138895000Y-69555000D02*
X139520000Y-69555000D01*
X136680000Y-69555000D02*
X137305000Y-69555000D01*
X138895000Y-73595000D02*
X139520000Y-73595000D01*
X136680000Y-73595000D02*
X137305000Y-73595000D01*
X139520000Y-73595000D02*
X139520000Y-69555000D01*
X136680000Y-73595000D02*
X136680000Y-69555000D01*
X137330000Y-79570000D02*
X136705000Y-79570000D01*
X139545000Y-79570000D02*
X138920000Y-79570000D01*
X137330000Y-75530000D02*
X136705000Y-75530000D01*
X139545000Y-75530000D02*
X138920000Y-75530000D01*
X136705000Y-75530000D02*
X136705000Y-79570000D01*
X139545000Y-75530000D02*
X139545000Y-79570000D01*
X107130000Y-61580000D02*
X107130000Y-60955000D01*
X107130000Y-63795000D02*
X107130000Y-63170000D01*
X111170000Y-61580000D02*
X111170000Y-60955000D01*
X111170000Y-63795000D02*
X111170000Y-63170000D01*
X111170000Y-60955000D02*
X107130000Y-60955000D01*
X111170000Y-63795000D02*
X107130000Y-63795000D01*
X115855000Y-77220000D02*
X115230000Y-77220000D01*
X118070000Y-77220000D02*
X117445000Y-77220000D01*
X115855000Y-73180000D02*
X115230000Y-73180000D01*
X118070000Y-73180000D02*
X117445000Y-73180000D01*
X115230000Y-73180000D02*
X115230000Y-77220000D01*
X118070000Y-73180000D02*
X118070000Y-77220000D01*
D12*
X141068333Y-91382380D02*
X140735000Y-90906190D01*
X140496904Y-91382380D02*
X140496904Y-90382380D01*
X140877857Y-90382380D01*
X140973095Y-90430000D01*
X141020714Y-90477619D01*
X141068333Y-90572857D01*
X141068333Y-90715714D01*
X141020714Y-90810952D01*
X140973095Y-90858571D01*
X140877857Y-90906190D01*
X140496904Y-90906190D01*
X142020714Y-91382380D02*
X141449285Y-91382380D01*
X141735000Y-91382380D02*
X141735000Y-90382380D01*
X141639761Y-90525238D01*
X141544523Y-90620476D01*
X141449285Y-90668095D01*
X140639761Y-96122380D02*
X140068333Y-96122380D01*
X140354047Y-96122380D02*
X140354047Y-95122380D01*
X140258809Y-95265238D01*
X140163571Y-95360476D01*
X140068333Y-95408095D01*
X141258809Y-95122380D02*
X141354047Y-95122380D01*
X141449285Y-95170000D01*
X141496904Y-95217619D01*
X141544523Y-95312857D01*
X141592142Y-95503333D01*
X141592142Y-95741428D01*
X141544523Y-95931904D01*
X141496904Y-96027142D01*
X141449285Y-96074761D01*
X141354047Y-96122380D01*
X141258809Y-96122380D01*
X141163571Y-96074761D01*
X141115952Y-96027142D01*
X141068333Y-95931904D01*
X141020714Y-95741428D01*
X141020714Y-95503333D01*
X141068333Y-95312857D01*
X141115952Y-95217619D01*
X141163571Y-95170000D01*
X141258809Y-95122380D01*
X142020714Y-96122380D02*
X142020714Y-95122380D01*
X142115952Y-95741428D02*
X142401666Y-96122380D01*
X142401666Y-95455714D02*
X142020714Y-95836666D01*
X106933333Y-73477380D02*
X106600000Y-73001190D01*
X106361904Y-73477380D02*
X106361904Y-72477380D01*
X106742857Y-72477380D01*
X106838095Y-72525000D01*
X106885714Y-72572619D01*
X106933333Y-72667857D01*
X106933333Y-72810714D01*
X106885714Y-72905952D01*
X106838095Y-72953571D01*
X106742857Y-73001190D01*
X106361904Y-73001190D01*
X107266666Y-72477380D02*
X107933333Y-72477380D01*
X107504761Y-73477380D01*
X106483333Y-74697619D02*
X106530952Y-74650000D01*
X106626190Y-74602380D01*
X106864285Y-74602380D01*
X106959523Y-74650000D01*
X107007142Y-74697619D01*
X107054761Y-74792857D01*
X107054761Y-74888095D01*
X107007142Y-75030952D01*
X106435714Y-75602380D01*
X107054761Y-75602380D01*
X107435714Y-74697619D02*
X107483333Y-74650000D01*
X107578571Y-74602380D01*
X107816666Y-74602380D01*
X107911904Y-74650000D01*
X107959523Y-74697619D01*
X108007142Y-74792857D01*
X108007142Y-74888095D01*
X107959523Y-75030952D01*
X107388095Y-75602380D01*
X108007142Y-75602380D01*
X108435714Y-75602380D02*
X108435714Y-74602380D01*
X108530952Y-75221428D02*
X108816666Y-75602380D01*
X108816666Y-74935714D02*
X108435714Y-75316666D01*
X93283333Y-71147380D02*
X92950000Y-70671190D01*
X92711904Y-71147380D02*
X92711904Y-70147380D01*
X93092857Y-70147380D01*
X93188095Y-70195000D01*
X93235714Y-70242619D01*
X93283333Y-70337857D01*
X93283333Y-70480714D01*
X93235714Y-70575952D01*
X93188095Y-70623571D01*
X93092857Y-70671190D01*
X92711904Y-70671190D01*
X94140476Y-70147380D02*
X93950000Y-70147380D01*
X93854761Y-70195000D01*
X93807142Y-70242619D01*
X93711904Y-70385476D01*
X93664285Y-70575952D01*
X93664285Y-70956904D01*
X93711904Y-71052142D01*
X93759523Y-71099761D01*
X93854761Y-71147380D01*
X94045238Y-71147380D01*
X94140476Y-71099761D01*
X94188095Y-71052142D01*
X94235714Y-70956904D01*
X94235714Y-70718809D01*
X94188095Y-70623571D01*
X94140476Y-70575952D01*
X94045238Y-70528333D01*
X93854761Y-70528333D01*
X93759523Y-70575952D01*
X93711904Y-70623571D01*
X93664285Y-70718809D01*
X95529761Y-71102380D02*
X94958333Y-71102380D01*
X95244047Y-71102380D02*
X95244047Y-70102380D01*
X95148809Y-70245238D01*
X95053571Y-70340476D01*
X94958333Y-70388095D01*
X95958333Y-71102380D02*
X95958333Y-70102380D01*
X96053571Y-70721428D02*
X96339285Y-71102380D01*
X96339285Y-70435714D02*
X95958333Y-70816666D01*
X97244047Y-70102380D02*
X96767857Y-70102380D01*
X96720238Y-70578571D01*
X96767857Y-70530952D01*
X96863095Y-70483333D01*
X97101190Y-70483333D01*
X97196428Y-70530952D01*
X97244047Y-70578571D01*
X97291666Y-70673809D01*
X97291666Y-70911904D01*
X97244047Y-71007142D01*
X97196428Y-71054761D01*
X97101190Y-71102380D01*
X96863095Y-71102380D01*
X96767857Y-71054761D01*
X96720238Y-71007142D01*
X118883333Y-81152380D02*
X118550000Y-80676190D01*
X118311904Y-81152380D02*
X118311904Y-80152380D01*
X118692857Y-80152380D01*
X118788095Y-80200000D01*
X118835714Y-80247619D01*
X118883333Y-80342857D01*
X118883333Y-80485714D01*
X118835714Y-80580952D01*
X118788095Y-80628571D01*
X118692857Y-80676190D01*
X118311904Y-80676190D01*
X119788095Y-80152380D02*
X119311904Y-80152380D01*
X119264285Y-80628571D01*
X119311904Y-80580952D01*
X119407142Y-80533333D01*
X119645238Y-80533333D01*
X119740476Y-80580952D01*
X119788095Y-80628571D01*
X119835714Y-80723809D01*
X119835714Y-80961904D01*
X119788095Y-81057142D01*
X119740476Y-81104761D01*
X119645238Y-81152380D01*
X119407142Y-81152380D01*
X119311904Y-81104761D01*
X119264285Y-81057142D01*
X118504761Y-82327380D02*
X118314285Y-82327380D01*
X118219047Y-82375000D01*
X118171428Y-82422619D01*
X118076190Y-82565476D01*
X118028571Y-82755952D01*
X118028571Y-83136904D01*
X118076190Y-83232142D01*
X118123809Y-83279761D01*
X118219047Y-83327380D01*
X118409523Y-83327380D01*
X118504761Y-83279761D01*
X118552380Y-83232142D01*
X118600000Y-83136904D01*
X118600000Y-82898809D01*
X118552380Y-82803571D01*
X118504761Y-82755952D01*
X118409523Y-82708333D01*
X118219047Y-82708333D01*
X118123809Y-82755952D01*
X118076190Y-82803571D01*
X118028571Y-82898809D01*
X118980952Y-82422619D02*
X119028571Y-82375000D01*
X119123809Y-82327380D01*
X119361904Y-82327380D01*
X119457142Y-82375000D01*
X119504761Y-82422619D01*
X119552380Y-82517857D01*
X119552380Y-82613095D01*
X119504761Y-82755952D01*
X118933333Y-83327380D01*
X119552380Y-83327380D01*
X119980952Y-83327380D02*
X119980952Y-82660714D01*
X119980952Y-82851190D02*
X120028571Y-82755952D01*
X120076190Y-82708333D01*
X120171428Y-82660714D01*
X120266666Y-82660714D01*
X119033333Y-86302380D02*
X118700000Y-85826190D01*
X118461904Y-86302380D02*
X118461904Y-85302380D01*
X118842857Y-85302380D01*
X118938095Y-85350000D01*
X118985714Y-85397619D01*
X119033333Y-85492857D01*
X119033333Y-85635714D01*
X118985714Y-85730952D01*
X118938095Y-85778571D01*
X118842857Y-85826190D01*
X118461904Y-85826190D01*
X119890476Y-85635714D02*
X119890476Y-86302380D01*
X119652380Y-85254761D02*
X119414285Y-85969047D01*
X120033333Y-85969047D01*
X118454761Y-87477380D02*
X118264285Y-87477380D01*
X118169047Y-87525000D01*
X118121428Y-87572619D01*
X118026190Y-87715476D01*
X117978571Y-87905952D01*
X117978571Y-88286904D01*
X118026190Y-88382142D01*
X118073809Y-88429761D01*
X118169047Y-88477380D01*
X118359523Y-88477380D01*
X118454761Y-88429761D01*
X118502380Y-88382142D01*
X118550000Y-88286904D01*
X118550000Y-88048809D01*
X118502380Y-87953571D01*
X118454761Y-87905952D01*
X118359523Y-87858333D01*
X118169047Y-87858333D01*
X118073809Y-87905952D01*
X118026190Y-87953571D01*
X117978571Y-88048809D01*
X118930952Y-87572619D02*
X118978571Y-87525000D01*
X119073809Y-87477380D01*
X119311904Y-87477380D01*
X119407142Y-87525000D01*
X119454761Y-87572619D01*
X119502380Y-87667857D01*
X119502380Y-87763095D01*
X119454761Y-87905952D01*
X118883333Y-88477380D01*
X119502380Y-88477380D01*
X119930952Y-88477380D02*
X119930952Y-87810714D01*
X119930952Y-88001190D02*
X119978571Y-87905952D01*
X120026190Y-87858333D01*
X120121428Y-87810714D01*
X120216666Y-87810714D01*
X110627380Y-69766666D02*
X110151190Y-70100000D01*
X110627380Y-70338095D02*
X109627380Y-70338095D01*
X109627380Y-69957142D01*
X109675000Y-69861904D01*
X109722619Y-69814285D01*
X109817857Y-69766666D01*
X109960714Y-69766666D01*
X110055952Y-69814285D01*
X110103571Y-69861904D01*
X110151190Y-69957142D01*
X110151190Y-70338095D01*
X109627380Y-69433333D02*
X109627380Y-68814285D01*
X110008333Y-69147619D01*
X110008333Y-69004761D01*
X110055952Y-68909523D01*
X110103571Y-68861904D01*
X110198809Y-68814285D01*
X110436904Y-68814285D01*
X110532142Y-68861904D01*
X110579761Y-68909523D01*
X110627380Y-69004761D01*
X110627380Y-69290476D01*
X110579761Y-69385714D01*
X110532142Y-69433333D01*
X100427380Y-66444047D02*
X100427380Y-67015476D01*
X100427380Y-66729761D02*
X99427380Y-66729761D01*
X99570238Y-66825000D01*
X99665476Y-66920238D01*
X99713095Y-67015476D01*
X100427380Y-66015476D02*
X99427380Y-66015476D01*
X100046428Y-65920238D02*
X100427380Y-65634523D01*
X99760714Y-65634523D02*
X100141666Y-66015476D01*
X100627380Y-69966666D02*
X100151190Y-70300000D01*
X100627380Y-70538095D02*
X99627380Y-70538095D01*
X99627380Y-70157142D01*
X99675000Y-70061904D01*
X99722619Y-70014285D01*
X99817857Y-69966666D01*
X99960714Y-69966666D01*
X100055952Y-70014285D01*
X100103571Y-70061904D01*
X100151190Y-70157142D01*
X100151190Y-70538095D01*
X99722619Y-69585714D02*
X99675000Y-69538095D01*
X99627380Y-69442857D01*
X99627380Y-69204761D01*
X99675000Y-69109523D01*
X99722619Y-69061904D01*
X99817857Y-69014285D01*
X99913095Y-69014285D01*
X100055952Y-69061904D01*
X100627380Y-69633333D01*
X100627380Y-69014285D01*
X110777380Y-66344047D02*
X110777380Y-66915476D01*
X110777380Y-66629761D02*
X109777380Y-66629761D01*
X109920238Y-66725000D01*
X110015476Y-66820238D01*
X110063095Y-66915476D01*
X110777380Y-65915476D02*
X109777380Y-65915476D01*
X110396428Y-65820238D02*
X110777380Y-65534523D01*
X110110714Y-65534523D02*
X110491666Y-65915476D01*
X107133333Y-78282142D02*
X107085714Y-78329761D01*
X106942857Y-78377380D01*
X106847619Y-78377380D01*
X106704761Y-78329761D01*
X106609523Y-78234523D01*
X106561904Y-78139285D01*
X106514285Y-77948809D01*
X106514285Y-77805952D01*
X106561904Y-77615476D01*
X106609523Y-77520238D01*
X106704761Y-77425000D01*
X106847619Y-77377380D01*
X106942857Y-77377380D01*
X107085714Y-77425000D01*
X107133333Y-77472619D01*
X108038095Y-77377380D02*
X107561904Y-77377380D01*
X107514285Y-77853571D01*
X107561904Y-77805952D01*
X107657142Y-77758333D01*
X107895238Y-77758333D01*
X107990476Y-77805952D01*
X108038095Y-77853571D01*
X108085714Y-77948809D01*
X108085714Y-78186904D01*
X108038095Y-78282142D01*
X107990476Y-78329761D01*
X107895238Y-78377380D01*
X107657142Y-78377380D01*
X107561904Y-78329761D01*
X107514285Y-78282142D01*
X106952380Y-80102380D02*
X106380952Y-80102380D01*
X106666666Y-80102380D02*
X106666666Y-79102380D01*
X106571428Y-79245238D01*
X106476190Y-79340476D01*
X106380952Y-79388095D01*
X107571428Y-79102380D02*
X107666666Y-79102380D01*
X107761904Y-79150000D01*
X107809523Y-79197619D01*
X107857142Y-79292857D01*
X107904761Y-79483333D01*
X107904761Y-79721428D01*
X107857142Y-79911904D01*
X107809523Y-80007142D01*
X107761904Y-80054761D01*
X107666666Y-80102380D01*
X107571428Y-80102380D01*
X107476190Y-80054761D01*
X107428571Y-80007142D01*
X107380952Y-79911904D01*
X107333333Y-79721428D01*
X107333333Y-79483333D01*
X107380952Y-79292857D01*
X107428571Y-79197619D01*
X107476190Y-79150000D01*
X107571428Y-79102380D01*
X108523809Y-79102380D02*
X108619047Y-79102380D01*
X108714285Y-79150000D01*
X108761904Y-79197619D01*
X108809523Y-79292857D01*
X108857142Y-79483333D01*
X108857142Y-79721428D01*
X108809523Y-79911904D01*
X108761904Y-80007142D01*
X108714285Y-80054761D01*
X108619047Y-80102380D01*
X108523809Y-80102380D01*
X108428571Y-80054761D01*
X108380952Y-80007142D01*
X108333333Y-79911904D01*
X108285714Y-79721428D01*
X108285714Y-79483333D01*
X108333333Y-79292857D01*
X108380952Y-79197619D01*
X108428571Y-79150000D01*
X108523809Y-79102380D01*
X109285714Y-79435714D02*
X109285714Y-80102380D01*
X109285714Y-79530952D02*
X109333333Y-79483333D01*
X109428571Y-79435714D01*
X109571428Y-79435714D01*
X109666666Y-79483333D01*
X109714285Y-79578571D01*
X109714285Y-80102380D01*
X110523809Y-79578571D02*
X110190476Y-79578571D01*
X110190476Y-80102380D02*
X110190476Y-79102380D01*
X110666666Y-79102380D01*
X97915456Y-74157822D02*
X98622562Y-73450715D01*
X98790921Y-73619074D01*
X98858265Y-73753761D01*
X98858265Y-73888448D01*
X98824593Y-73989463D01*
X98723578Y-74157822D01*
X98622562Y-74258837D01*
X98454204Y-74359853D01*
X98353188Y-74393524D01*
X98218501Y-74393524D01*
X98083814Y-74326181D01*
X97915456Y-74157822D01*
X99262326Y-74090478D02*
X99700059Y-74528211D01*
X99194982Y-74561883D01*
X99295998Y-74662898D01*
X99329669Y-74763914D01*
X99329669Y-74831257D01*
X99295998Y-74932272D01*
X99127639Y-75100631D01*
X99026624Y-75134303D01*
X98959280Y-75134303D01*
X98858265Y-75100631D01*
X98656234Y-74898601D01*
X98622562Y-74797585D01*
X98622562Y-74730242D01*
X93499742Y-76586902D02*
X93095681Y-76182841D01*
X93297712Y-76384872D02*
X94004818Y-75677765D01*
X93836460Y-75711437D01*
X93701773Y-75711437D01*
X93600757Y-75677765D01*
X93802788Y-76889948D02*
X94509895Y-76182841D01*
X94206849Y-77294009D01*
X94913956Y-76586902D01*
X95318017Y-77462368D02*
X94846612Y-77933772D01*
X95419032Y-77024635D02*
X94745597Y-77361353D01*
X95183330Y-77799085D01*
X95587391Y-78674551D02*
X95183330Y-78270490D01*
X95385360Y-78472520D02*
X96092467Y-77765414D01*
X95924108Y-77799085D01*
X95789421Y-77799085D01*
X95688406Y-77765414D01*
X96664887Y-78809238D02*
X96193482Y-79280642D01*
X96765902Y-78371505D02*
X96092467Y-78708223D01*
X96530200Y-79145955D01*
X97068948Y-79347986D02*
X97035276Y-79246971D01*
X97035276Y-79179627D01*
X97068948Y-79078612D01*
X97102619Y-79044940D01*
X97203635Y-79011268D01*
X97270978Y-79011268D01*
X97371993Y-79044940D01*
X97506680Y-79179627D01*
X97540352Y-79280642D01*
X97540352Y-79347986D01*
X97506680Y-79449001D01*
X97473009Y-79482673D01*
X97371993Y-79516345D01*
X97304650Y-79516345D01*
X97203635Y-79482673D01*
X97068948Y-79347986D01*
X96967932Y-79314314D01*
X96900589Y-79314314D01*
X96799574Y-79347986D01*
X96664887Y-79482673D01*
X96631215Y-79583688D01*
X96631215Y-79651032D01*
X96664887Y-79752047D01*
X96799574Y-79886734D01*
X96900589Y-79920406D01*
X96967932Y-79920406D01*
X97068948Y-79886734D01*
X97203635Y-79752047D01*
X97237306Y-79651032D01*
X97237306Y-79583688D01*
X97203635Y-79482673D01*
X96159137Y-72995473D02*
X96866244Y-72288366D01*
X96563198Y-73399534D02*
X96664214Y-72692427D01*
X97270305Y-72692427D02*
X96462183Y-72692427D01*
D11*
X135315666Y-75061666D02*
X136015666Y-74595000D01*
X135315666Y-74595000D02*
X136015666Y-75061666D01*
X136015666Y-73961666D02*
X136015666Y-74361666D01*
X136015666Y-74161666D02*
X135315666Y-74161666D01*
X135415666Y-74228333D01*
X135482333Y-74295000D01*
X135515666Y-74361666D01*
X132967666Y-75628333D02*
X132967666Y-76028333D01*
X132967666Y-75828333D02*
X132267666Y-75828333D01*
X132367666Y-75895000D01*
X132434333Y-75961666D01*
X132467666Y-76028333D01*
X132267666Y-75028333D02*
X132267666Y-75161666D01*
X132301000Y-75228333D01*
X132334333Y-75261666D01*
X132434333Y-75328333D01*
X132567666Y-75361666D01*
X132834333Y-75361666D01*
X132901000Y-75328333D01*
X132934333Y-75295000D01*
X132967666Y-75228333D01*
X132967666Y-75095000D01*
X132934333Y-75028333D01*
X132901000Y-74995000D01*
X132834333Y-74961666D01*
X132667666Y-74961666D01*
X132601000Y-74995000D01*
X132567666Y-75028333D01*
X132534333Y-75095000D01*
X132534333Y-75228333D01*
X132567666Y-75295000D01*
X132601000Y-75328333D01*
X132667666Y-75361666D01*
X132967666Y-74661666D02*
X132267666Y-74661666D01*
X132767666Y-74428333D01*
X132267666Y-74195000D01*
X132967666Y-74195000D01*
X132967666Y-73861666D02*
X132267666Y-73861666D01*
X132967666Y-73561666D02*
X132601000Y-73561666D01*
X132534333Y-73595000D01*
X132501000Y-73661666D01*
X132501000Y-73761666D01*
X132534333Y-73828333D01*
X132567666Y-73861666D01*
X132501000Y-73295000D02*
X132501000Y-72928333D01*
X132967666Y-73295000D01*
X132967666Y-72928333D01*
D12*
X125878095Y-97857380D02*
X125878095Y-98666904D01*
X125925714Y-98762142D01*
X125973333Y-98809761D01*
X126068571Y-98857380D01*
X126259047Y-98857380D01*
X126354285Y-98809761D01*
X126401904Y-98762142D01*
X126449523Y-98666904D01*
X126449523Y-97857380D01*
X127449523Y-98857380D02*
X126878095Y-98857380D01*
X127163809Y-98857380D02*
X127163809Y-97857380D01*
X127068571Y-98000238D01*
X126973333Y-98095476D01*
X126878095Y-98143095D01*
X122092380Y-60891666D02*
X122568571Y-60891666D01*
X121997142Y-61177380D02*
X122330476Y-60177380D01*
X122663809Y-61177380D01*
X122854285Y-60177380D02*
X123425714Y-60177380D01*
X123140000Y-61177380D02*
X123140000Y-60177380D01*
X123759047Y-61177380D02*
X123759047Y-60510714D01*
X123759047Y-60605952D02*
X123806666Y-60558333D01*
X123901904Y-60510714D01*
X124044761Y-60510714D01*
X124140000Y-60558333D01*
X124187619Y-60653571D01*
X124187619Y-61177380D01*
X124187619Y-60653571D02*
X124235238Y-60558333D01*
X124330476Y-60510714D01*
X124473333Y-60510714D01*
X124568571Y-60558333D01*
X124616190Y-60653571D01*
X124616190Y-61177380D01*
X125473333Y-61129761D02*
X125378095Y-61177380D01*
X125187619Y-61177380D01*
X125092380Y-61129761D01*
X125044761Y-61034523D01*
X125044761Y-60653571D01*
X125092380Y-60558333D01*
X125187619Y-60510714D01*
X125378095Y-60510714D01*
X125473333Y-60558333D01*
X125520952Y-60653571D01*
X125520952Y-60748809D01*
X125044761Y-60844047D01*
X126378095Y-60510714D02*
X126378095Y-61320238D01*
X126330476Y-61415476D01*
X126282857Y-61463095D01*
X126187619Y-61510714D01*
X126044761Y-61510714D01*
X125949523Y-61463095D01*
X126378095Y-61129761D02*
X126282857Y-61177380D01*
X126092380Y-61177380D01*
X125997142Y-61129761D01*
X125949523Y-61082142D01*
X125901904Y-60986904D01*
X125901904Y-60701190D01*
X125949523Y-60605952D01*
X125997142Y-60558333D01*
X126092380Y-60510714D01*
X126282857Y-60510714D01*
X126378095Y-60558333D01*
X127282857Y-61177380D02*
X127282857Y-60653571D01*
X127235238Y-60558333D01*
X127140000Y-60510714D01*
X126949523Y-60510714D01*
X126854285Y-60558333D01*
X127282857Y-61129761D02*
X127187619Y-61177380D01*
X126949523Y-61177380D01*
X126854285Y-61129761D01*
X126806666Y-61034523D01*
X126806666Y-60939285D01*
X126854285Y-60844047D01*
X126949523Y-60796428D01*
X127187619Y-60796428D01*
X127282857Y-60748809D01*
X127663809Y-60177380D02*
X128282857Y-60177380D01*
X127949523Y-60558333D01*
X128092380Y-60558333D01*
X128187619Y-60605952D01*
X128235238Y-60653571D01*
X128282857Y-60748809D01*
X128282857Y-60986904D01*
X128235238Y-61082142D01*
X128187619Y-61129761D01*
X128092380Y-61177380D01*
X127806666Y-61177380D01*
X127711428Y-61129761D01*
X127663809Y-61082142D01*
X128663809Y-60272619D02*
X128711428Y-60225000D01*
X128806666Y-60177380D01*
X129044761Y-60177380D01*
X129140000Y-60225000D01*
X129187619Y-60272619D01*
X129235238Y-60367857D01*
X129235238Y-60463095D01*
X129187619Y-60605952D01*
X128616190Y-61177380D01*
X129235238Y-61177380D01*
X129806666Y-60605952D02*
X129711428Y-60558333D01*
X129663809Y-60510714D01*
X129616190Y-60415476D01*
X129616190Y-60367857D01*
X129663809Y-60272619D01*
X129711428Y-60225000D01*
X129806666Y-60177380D01*
X129997142Y-60177380D01*
X130092380Y-60225000D01*
X130140000Y-60272619D01*
X130187619Y-60367857D01*
X130187619Y-60415476D01*
X130140000Y-60510714D01*
X130092380Y-60558333D01*
X129997142Y-60605952D01*
X129806666Y-60605952D01*
X129711428Y-60653571D01*
X129663809Y-60701190D01*
X129616190Y-60796428D01*
X129616190Y-60986904D01*
X129663809Y-61082142D01*
X129711428Y-61129761D01*
X129806666Y-61177380D01*
X129997142Y-61177380D01*
X130092380Y-61129761D01*
X130140000Y-61082142D01*
X130187619Y-60986904D01*
X130187619Y-60796428D01*
X130140000Y-60701190D01*
X130092380Y-60653571D01*
X129997142Y-60605952D01*
X130616190Y-61177380D02*
X130616190Y-60177380D01*
X130997142Y-60177380D01*
X131092380Y-60225000D01*
X131140000Y-60272619D01*
X131187619Y-60367857D01*
X131187619Y-60510714D01*
X131140000Y-60605952D01*
X131092380Y-60653571D01*
X130997142Y-60701190D01*
X130616190Y-60701190D01*
D16*
X147360095Y-90371130D02*
X147417547Y-90198773D01*
X147417547Y-89911511D01*
X147360095Y-89796606D01*
X147302642Y-89739154D01*
X147187738Y-89681701D01*
X147072833Y-89681701D01*
X146957928Y-89739154D01*
X146900476Y-89796606D01*
X146843023Y-89911511D01*
X146785571Y-90141320D01*
X146728119Y-90256225D01*
X146670666Y-90313678D01*
X146555761Y-90371130D01*
X146440857Y-90371130D01*
X146325952Y-90313678D01*
X146268500Y-90256225D01*
X146211047Y-90141320D01*
X146211047Y-89854059D01*
X146268500Y-89681701D01*
X146211047Y-89279535D02*
X147417547Y-88992273D01*
X146555761Y-88762463D01*
X147417547Y-88532654D01*
X146211047Y-88245392D01*
X146325952Y-87843225D02*
X146268500Y-87785773D01*
X146211047Y-87670868D01*
X146211047Y-87383606D01*
X146268500Y-87268701D01*
X146325952Y-87211249D01*
X146440857Y-87153797D01*
X146555761Y-87153797D01*
X146728119Y-87211249D01*
X147417547Y-87900678D01*
X147417547Y-87153797D01*
X150918869Y-88255095D02*
X151091226Y-88312547D01*
X151378488Y-88312547D01*
X151493393Y-88255095D01*
X151550845Y-88197642D01*
X151608298Y-88082738D01*
X151608298Y-87967833D01*
X151550845Y-87852928D01*
X151493393Y-87795476D01*
X151378488Y-87738023D01*
X151148679Y-87680571D01*
X151033774Y-87623119D01*
X150976321Y-87565666D01*
X150918869Y-87450761D01*
X150918869Y-87335857D01*
X150976321Y-87220952D01*
X151033774Y-87163500D01*
X151148679Y-87106047D01*
X151435940Y-87106047D01*
X151608298Y-87163500D01*
X152010464Y-87106047D02*
X152297726Y-88312547D01*
X152527536Y-87450761D01*
X152757345Y-88312547D01*
X153044607Y-87106047D01*
X153216964Y-88427452D02*
X154136202Y-88427452D01*
X154366012Y-88255095D02*
X154538369Y-88312547D01*
X154825631Y-88312547D01*
X154940536Y-88255095D01*
X154997988Y-88197642D01*
X155055440Y-88082738D01*
X155055440Y-87967833D01*
X154997988Y-87852928D01*
X154940536Y-87795476D01*
X154825631Y-87738023D01*
X154595821Y-87680571D01*
X154480917Y-87623119D01*
X154423464Y-87565666D01*
X154366012Y-87450761D01*
X154366012Y-87335857D01*
X154423464Y-87220952D01*
X154480917Y-87163500D01*
X154595821Y-87106047D01*
X154883083Y-87106047D01*
X155055440Y-87163500D01*
X155572512Y-88312547D02*
X155572512Y-87106047D01*
X156032131Y-87106047D01*
X156147036Y-87163500D01*
X156204488Y-87220952D01*
X156261940Y-87335857D01*
X156261940Y-87508214D01*
X156204488Y-87623119D01*
X156147036Y-87680571D01*
X156032131Y-87738023D01*
X155572512Y-87738023D01*
X156779012Y-88312547D02*
X156779012Y-87106047D01*
X157066274Y-87106047D01*
X157238631Y-87163500D01*
X157353536Y-87278404D01*
X157410988Y-87393309D01*
X157468440Y-87623119D01*
X157468440Y-87795476D01*
X157410988Y-88025285D01*
X157353536Y-88140190D01*
X157238631Y-88255095D01*
X157066274Y-88312547D01*
X156779012Y-88312547D01*
X157813155Y-87106047D02*
X158502583Y-87106047D01*
X158157869Y-88312547D02*
X158157869Y-87106047D01*
X137710095Y-59471202D02*
X137767547Y-59298845D01*
X137767547Y-59011583D01*
X137710095Y-58896679D01*
X137652642Y-58839226D01*
X137537738Y-58781774D01*
X137422833Y-58781774D01*
X137307928Y-58839226D01*
X137250476Y-58896679D01*
X137193023Y-59011583D01*
X137135571Y-59241393D01*
X137078119Y-59356298D01*
X137020666Y-59413750D01*
X136905761Y-59471202D01*
X136790857Y-59471202D01*
X136675952Y-59413750D01*
X136618500Y-59356298D01*
X136561047Y-59241393D01*
X136561047Y-58954131D01*
X136618500Y-58781774D01*
X136561047Y-58379607D02*
X137767547Y-58092345D01*
X136905761Y-57862536D01*
X137767547Y-57632726D01*
X136561047Y-57345464D01*
X137767547Y-56253869D02*
X137767547Y-56943298D01*
X137767547Y-56598583D02*
X136561047Y-56598583D01*
X136733404Y-56713488D01*
X136848309Y-56828393D01*
X136905761Y-56943298D01*
X121043095Y-58851679D02*
X121100547Y-58679321D01*
X121100547Y-58392060D01*
X121043095Y-58277155D01*
X120985642Y-58219702D01*
X120870738Y-58162250D01*
X120755833Y-58162250D01*
X120640928Y-58219702D01*
X120583476Y-58277155D01*
X120526023Y-58392060D01*
X120468571Y-58621869D01*
X120411119Y-58736774D01*
X120353666Y-58794226D01*
X120238761Y-58851679D01*
X120123857Y-58851679D01*
X120008952Y-58794226D01*
X119951500Y-58736774D01*
X119894047Y-58621869D01*
X119894047Y-58334607D01*
X119951500Y-58162250D01*
X119894047Y-57760083D02*
X121100547Y-57472821D01*
X120238761Y-57243012D01*
X121100547Y-57013202D01*
X119894047Y-56725940D01*
X121215452Y-56553583D02*
X121215452Y-55634345D01*
X121043095Y-55404536D02*
X121100547Y-55232179D01*
X121100547Y-54944917D01*
X121043095Y-54830012D01*
X120985642Y-54772560D01*
X120870738Y-54715107D01*
X120755833Y-54715107D01*
X120640928Y-54772560D01*
X120583476Y-54830012D01*
X120526023Y-54944917D01*
X120468571Y-55174726D01*
X120411119Y-55289631D01*
X120353666Y-55347083D01*
X120238761Y-55404536D01*
X120123857Y-55404536D01*
X120008952Y-55347083D01*
X119951500Y-55289631D01*
X119894047Y-55174726D01*
X119894047Y-54887464D01*
X119951500Y-54715107D01*
X121100547Y-54198036D02*
X119894047Y-54198036D01*
X119894047Y-53738417D01*
X119951500Y-53623512D01*
X120008952Y-53566060D01*
X120123857Y-53508607D01*
X120296214Y-53508607D01*
X120411119Y-53566060D01*
X120468571Y-53623512D01*
X120526023Y-53738417D01*
X120526023Y-54198036D01*
X121100547Y-52991536D02*
X119894047Y-52991536D01*
X119894047Y-52704274D01*
X119951500Y-52531917D01*
X120066404Y-52417012D01*
X120181309Y-52359560D01*
X120411119Y-52302107D01*
X120583476Y-52302107D01*
X120813285Y-52359560D01*
X120928190Y-52417012D01*
X121043095Y-52531917D01*
X121100547Y-52704274D01*
X121100547Y-52991536D01*
X119894047Y-51957393D02*
X119894047Y-51267964D01*
X121100547Y-51612679D02*
X119894047Y-51612679D01*
D17*
X118727523Y-62718619D02*
X118727523Y-63444333D01*
X118679142Y-63589476D01*
X118582380Y-63686238D01*
X118437238Y-63734619D01*
X118340476Y-63734619D01*
X119743523Y-63734619D02*
X119162952Y-63734619D01*
X119453238Y-63734619D02*
X119453238Y-62718619D01*
X119356476Y-62863761D01*
X119259714Y-62960523D01*
X119162952Y-63008904D01*
X120711142Y-63734619D02*
X120130571Y-63734619D01*
X120420857Y-63734619D02*
X120420857Y-62718619D01*
X120324095Y-62863761D01*
X120227333Y-62960523D01*
X120130571Y-63008904D01*
X114851000Y-61734619D02*
X114851000Y-60718619D01*
X115238047Y-60718619D01*
X115334809Y-60767000D01*
X115383190Y-60815380D01*
X115431571Y-60912142D01*
X115431571Y-61057285D01*
X115383190Y-61154047D01*
X115334809Y-61202428D01*
X115238047Y-61250809D01*
X114851000Y-61250809D01*
X115867000Y-61734619D02*
X115867000Y-60718619D01*
X116350809Y-61734619D02*
X116350809Y-60718619D01*
X116931380Y-61734619D01*
X116931380Y-60718619D01*
X117366809Y-61686238D02*
X117511952Y-61734619D01*
X117753857Y-61734619D01*
X117850619Y-61686238D01*
X117899000Y-61637857D01*
X117947380Y-61541095D01*
X117947380Y-61444333D01*
X117899000Y-61347571D01*
X117850619Y-61299190D01*
X117753857Y-61250809D01*
X117560333Y-61202428D01*
X117463571Y-61154047D01*
X117415190Y-61105666D01*
X117366809Y-61008904D01*
X117366809Y-60912142D01*
X117415190Y-60815380D01*
X117463571Y-60767000D01*
X117560333Y-60718619D01*
X117802238Y-60718619D01*
X117947380Y-60767000D01*
D12*
X109977380Y-91509523D02*
X110691666Y-91509523D01*
X110834523Y-91557142D01*
X110929761Y-91652380D01*
X110977380Y-91795238D01*
X110977380Y-91890476D01*
X110977380Y-90509523D02*
X110977380Y-91080952D01*
X110977380Y-90795238D02*
X109977380Y-90795238D01*
X110120238Y-90890476D01*
X110215476Y-90985714D01*
X110263095Y-91080952D01*
X109977380Y-89890476D02*
X109977380Y-89795238D01*
X110025000Y-89700000D01*
X110072619Y-89652380D01*
X110167857Y-89604761D01*
X110358333Y-89557142D01*
X110596428Y-89557142D01*
X110786904Y-89604761D01*
X110882142Y-89652380D01*
X110929761Y-89700000D01*
X110977380Y-89795238D01*
X110977380Y-89890476D01*
X110929761Y-89985714D01*
X110882142Y-90033333D01*
X110786904Y-90080952D01*
X110596428Y-90128571D01*
X110358333Y-90128571D01*
X110167857Y-90080952D01*
X110072619Y-90033333D01*
X110025000Y-89985714D01*
X109977380Y-89890476D01*
X109577380Y-88192857D02*
X110386904Y-88192857D01*
X110482142Y-88145238D01*
X110529761Y-88097619D01*
X110577380Y-88002380D01*
X110577380Y-87811904D01*
X110529761Y-87716666D01*
X110482142Y-87669047D01*
X110386904Y-87621428D01*
X109577380Y-87621428D01*
X110529761Y-87192857D02*
X110577380Y-87050000D01*
X110577380Y-86811904D01*
X110529761Y-86716666D01*
X110482142Y-86669047D01*
X110386904Y-86621428D01*
X110291666Y-86621428D01*
X110196428Y-86669047D01*
X110148809Y-86716666D01*
X110101190Y-86811904D01*
X110053571Y-87002380D01*
X110005952Y-87097619D01*
X109958333Y-87145238D01*
X109863095Y-87192857D01*
X109767857Y-87192857D01*
X109672619Y-87145238D01*
X109625000Y-87097619D01*
X109577380Y-87002380D01*
X109577380Y-86764285D01*
X109625000Y-86621428D01*
X110053571Y-85859523D02*
X110101190Y-85716666D01*
X110148809Y-85669047D01*
X110244047Y-85621428D01*
X110386904Y-85621428D01*
X110482142Y-85669047D01*
X110529761Y-85716666D01*
X110577380Y-85811904D01*
X110577380Y-86192857D01*
X109577380Y-86192857D01*
X109577380Y-85859523D01*
X109625000Y-85764285D01*
X109672619Y-85716666D01*
X109767857Y-85669047D01*
X109863095Y-85669047D01*
X109958333Y-85716666D01*
X110005952Y-85764285D01*
X110053571Y-85859523D01*
X110053571Y-86192857D01*
X110672619Y-85430952D02*
X110672619Y-84669047D01*
X110053571Y-84097619D02*
X110101190Y-83954761D01*
X110148809Y-83907142D01*
X110244047Y-83859523D01*
X110386904Y-83859523D01*
X110482142Y-83907142D01*
X110529761Y-83954761D01*
X110577380Y-84050000D01*
X110577380Y-84430952D01*
X109577380Y-84430952D01*
X109577380Y-84097619D01*
X109625000Y-84002380D01*
X109672619Y-83954761D01*
X109767857Y-83907142D01*
X109863095Y-83907142D01*
X109958333Y-83954761D01*
X110005952Y-84002380D01*
X110053571Y-84097619D01*
X110053571Y-84430952D01*
X108166666Y-50927380D02*
X108166666Y-51641666D01*
X108119047Y-51784523D01*
X108023809Y-51879761D01*
X107880952Y-51927380D01*
X107785714Y-51927380D01*
X109166666Y-51927380D02*
X108595238Y-51927380D01*
X108880952Y-51927380D02*
X108880952Y-50927380D01*
X108785714Y-51070238D01*
X108690476Y-51165476D01*
X108595238Y-51213095D01*
X109652380Y-57176190D02*
X108652380Y-57176190D01*
X108652380Y-56795238D01*
X108700000Y-56700000D01*
X108747619Y-56652380D01*
X108842857Y-56604761D01*
X108985714Y-56604761D01*
X109080952Y-56652380D01*
X109128571Y-56700000D01*
X109176190Y-56795238D01*
X109176190Y-57176190D01*
X109652380Y-56033333D02*
X109604761Y-56128571D01*
X109557142Y-56176190D01*
X109461904Y-56223809D01*
X109176190Y-56223809D01*
X109080952Y-56176190D01*
X109033333Y-56128571D01*
X108985714Y-56033333D01*
X108985714Y-55890476D01*
X109033333Y-55795238D01*
X109080952Y-55747619D01*
X109176190Y-55700000D01*
X109461904Y-55700000D01*
X109557142Y-55747619D01*
X109604761Y-55795238D01*
X109652380Y-55890476D01*
X109652380Y-56033333D01*
X108985714Y-55366666D02*
X109652380Y-55176190D01*
X109176190Y-54985714D01*
X109652380Y-54795238D01*
X108985714Y-54604761D01*
X109604761Y-53842857D02*
X109652380Y-53938095D01*
X109652380Y-54128571D01*
X109604761Y-54223809D01*
X109509523Y-54271428D01*
X109128571Y-54271428D01*
X109033333Y-54223809D01*
X108985714Y-54128571D01*
X108985714Y-53938095D01*
X109033333Y-53842857D01*
X109128571Y-53795238D01*
X109223809Y-53795238D01*
X109319047Y-54271428D01*
X109652380Y-53366666D02*
X108985714Y-53366666D01*
X109176190Y-53366666D02*
X109080952Y-53319047D01*
X109033333Y-53271428D01*
X108985714Y-53176190D01*
X108985714Y-53080952D01*
X100487380Y-63683095D02*
X99487380Y-63683095D01*
X99487380Y-63445000D01*
X99535000Y-63302142D01*
X99630238Y-63206904D01*
X99725476Y-63159285D01*
X99915952Y-63111666D01*
X100058809Y-63111666D01*
X100249285Y-63159285D01*
X100344523Y-63206904D01*
X100439761Y-63302142D01*
X100487380Y-63445000D01*
X100487380Y-63683095D01*
X99582619Y-62730714D02*
X99535000Y-62683095D01*
X99487380Y-62587857D01*
X99487380Y-62349761D01*
X99535000Y-62254523D01*
X99582619Y-62206904D01*
X99677857Y-62159285D01*
X99773095Y-62159285D01*
X99915952Y-62206904D01*
X100487380Y-62778333D01*
X100487380Y-62159285D01*
X96512380Y-63683095D02*
X95512380Y-63683095D01*
X95512380Y-63445000D01*
X95560000Y-63302142D01*
X95655238Y-63206904D01*
X95750476Y-63159285D01*
X95940952Y-63111666D01*
X96083809Y-63111666D01*
X96274285Y-63159285D01*
X96369523Y-63206904D01*
X96464761Y-63302142D01*
X96512380Y-63445000D01*
X96512380Y-63683095D01*
X96512380Y-62159285D02*
X96512380Y-62730714D01*
X96512380Y-62445000D02*
X95512380Y-62445000D01*
X95655238Y-62540238D01*
X95750476Y-62635476D01*
X95798095Y-62730714D01*
X139582142Y-67741666D02*
X139629761Y-67789285D01*
X139677380Y-67932142D01*
X139677380Y-68027380D01*
X139629761Y-68170238D01*
X139534523Y-68265476D01*
X139439285Y-68313095D01*
X139248809Y-68360714D01*
X139105952Y-68360714D01*
X138915476Y-68313095D01*
X138820238Y-68265476D01*
X138725000Y-68170238D01*
X138677380Y-68027380D01*
X138677380Y-67932142D01*
X138725000Y-67789285D01*
X138772619Y-67741666D01*
X138677380Y-67408333D02*
X138677380Y-66789285D01*
X139058333Y-67122619D01*
X139058333Y-66979761D01*
X139105952Y-66884523D01*
X139153571Y-66836904D01*
X139248809Y-66789285D01*
X139486904Y-66789285D01*
X139582142Y-66836904D01*
X139629761Y-66884523D01*
X139677380Y-66979761D01*
X139677380Y-67265476D01*
X139629761Y-67360714D01*
X139582142Y-67408333D01*
X136722619Y-68542857D02*
X136675000Y-68495238D01*
X136627380Y-68400000D01*
X136627380Y-68161904D01*
X136675000Y-68066666D01*
X136722619Y-68019047D01*
X136817857Y-67971428D01*
X136913095Y-67971428D01*
X137055952Y-68019047D01*
X137627380Y-68590476D01*
X137627380Y-67971428D01*
X136722619Y-67590476D02*
X136675000Y-67542857D01*
X136627380Y-67447619D01*
X136627380Y-67209523D01*
X136675000Y-67114285D01*
X136722619Y-67066666D01*
X136817857Y-67019047D01*
X136913095Y-67019047D01*
X137055952Y-67066666D01*
X137627380Y-67638095D01*
X137627380Y-67019047D01*
X136960714Y-66590476D02*
X137960714Y-66590476D01*
X137008333Y-66590476D02*
X136960714Y-66495238D01*
X136960714Y-66304761D01*
X137008333Y-66209523D01*
X137055952Y-66161904D01*
X137151190Y-66114285D01*
X137436904Y-66114285D01*
X137532142Y-66161904D01*
X137579761Y-66209523D01*
X137627380Y-66304761D01*
X137627380Y-66495238D01*
X137579761Y-66590476D01*
X137103571Y-65352380D02*
X137103571Y-65685714D01*
X137627380Y-65685714D02*
X136627380Y-65685714D01*
X136627380Y-65209523D01*
X139507142Y-81566666D02*
X139554761Y-81614285D01*
X139602380Y-81757142D01*
X139602380Y-81852380D01*
X139554761Y-81995238D01*
X139459523Y-82090476D01*
X139364285Y-82138095D01*
X139173809Y-82185714D01*
X139030952Y-82185714D01*
X138840476Y-82138095D01*
X138745238Y-82090476D01*
X138650000Y-81995238D01*
X138602380Y-81852380D01*
X138602380Y-81757142D01*
X138650000Y-81614285D01*
X138697619Y-81566666D01*
X138697619Y-81185714D02*
X138650000Y-81138095D01*
X138602380Y-81042857D01*
X138602380Y-80804761D01*
X138650000Y-80709523D01*
X138697619Y-80661904D01*
X138792857Y-80614285D01*
X138888095Y-80614285D01*
X139030952Y-80661904D01*
X139602380Y-81233333D01*
X139602380Y-80614285D01*
X136347619Y-83767857D02*
X136300000Y-83720238D01*
X136252380Y-83625000D01*
X136252380Y-83386904D01*
X136300000Y-83291666D01*
X136347619Y-83244047D01*
X136442857Y-83196428D01*
X136538095Y-83196428D01*
X136680952Y-83244047D01*
X137252380Y-83815476D01*
X137252380Y-83196428D01*
X136347619Y-82815476D02*
X136300000Y-82767857D01*
X136252380Y-82672619D01*
X136252380Y-82434523D01*
X136300000Y-82339285D01*
X136347619Y-82291666D01*
X136442857Y-82244047D01*
X136538095Y-82244047D01*
X136680952Y-82291666D01*
X137252380Y-82863095D01*
X137252380Y-82244047D01*
X136585714Y-81815476D02*
X137585714Y-81815476D01*
X136633333Y-81815476D02*
X136585714Y-81720238D01*
X136585714Y-81529761D01*
X136633333Y-81434523D01*
X136680952Y-81386904D01*
X136776190Y-81339285D01*
X137061904Y-81339285D01*
X137157142Y-81386904D01*
X137204761Y-81434523D01*
X137252380Y-81529761D01*
X137252380Y-81720238D01*
X137204761Y-81815476D01*
X136728571Y-80577380D02*
X136728571Y-80910714D01*
X137252380Y-80910714D02*
X136252380Y-80910714D01*
X136252380Y-80434523D01*
X105708333Y-61932142D02*
X105660714Y-61979761D01*
X105517857Y-62027380D01*
X105422619Y-62027380D01*
X105279761Y-61979761D01*
X105184523Y-61884523D01*
X105136904Y-61789285D01*
X105089285Y-61598809D01*
X105089285Y-61455952D01*
X105136904Y-61265476D01*
X105184523Y-61170238D01*
X105279761Y-61075000D01*
X105422619Y-61027380D01*
X105517857Y-61027380D01*
X105660714Y-61075000D01*
X105708333Y-61122619D01*
X106660714Y-62027380D02*
X106089285Y-62027380D01*
X106375000Y-62027380D02*
X106375000Y-61027380D01*
X106279761Y-61170238D01*
X106184523Y-61265476D01*
X106089285Y-61313095D01*
X102652380Y-63927380D02*
X102080952Y-63927380D01*
X102366666Y-63927380D02*
X102366666Y-62927380D01*
X102271428Y-63070238D01*
X102176190Y-63165476D01*
X102080952Y-63213095D01*
X103271428Y-62927380D02*
X103366666Y-62927380D01*
X103461904Y-62975000D01*
X103509523Y-63022619D01*
X103557142Y-63117857D01*
X103604761Y-63308333D01*
X103604761Y-63546428D01*
X103557142Y-63736904D01*
X103509523Y-63832142D01*
X103461904Y-63879761D01*
X103366666Y-63927380D01*
X103271428Y-63927380D01*
X103176190Y-63879761D01*
X103128571Y-63832142D01*
X103080952Y-63736904D01*
X103033333Y-63546428D01*
X103033333Y-63308333D01*
X103080952Y-63117857D01*
X103128571Y-63022619D01*
X103176190Y-62975000D01*
X103271428Y-62927380D01*
X104223809Y-62927380D02*
X104319047Y-62927380D01*
X104414285Y-62975000D01*
X104461904Y-63022619D01*
X104509523Y-63117857D01*
X104557142Y-63308333D01*
X104557142Y-63546428D01*
X104509523Y-63736904D01*
X104461904Y-63832142D01*
X104414285Y-63879761D01*
X104319047Y-63927380D01*
X104223809Y-63927380D01*
X104128571Y-63879761D01*
X104080952Y-63832142D01*
X104033333Y-63736904D01*
X103985714Y-63546428D01*
X103985714Y-63308333D01*
X104033333Y-63117857D01*
X104080952Y-63022619D01*
X104128571Y-62975000D01*
X104223809Y-62927380D01*
X104985714Y-63260714D02*
X104985714Y-64260714D01*
X104985714Y-63308333D02*
X105080952Y-63260714D01*
X105271428Y-63260714D01*
X105366666Y-63308333D01*
X105414285Y-63355952D01*
X105461904Y-63451190D01*
X105461904Y-63736904D01*
X105414285Y-63832142D01*
X105366666Y-63879761D01*
X105271428Y-63927380D01*
X105080952Y-63927380D01*
X104985714Y-63879761D01*
X106223809Y-63403571D02*
X105890476Y-63403571D01*
X105890476Y-63927380D02*
X105890476Y-62927380D01*
X106366666Y-62927380D01*
X118332142Y-78666666D02*
X118379761Y-78714285D01*
X118427380Y-78857142D01*
X118427380Y-78952380D01*
X118379761Y-79095238D01*
X118284523Y-79190476D01*
X118189285Y-79238095D01*
X117998809Y-79285714D01*
X117855952Y-79285714D01*
X117665476Y-79238095D01*
X117570238Y-79190476D01*
X117475000Y-79095238D01*
X117427380Y-78952380D01*
X117427380Y-78857142D01*
X117475000Y-78714285D01*
X117522619Y-78666666D01*
X117760714Y-77809523D02*
X118427380Y-77809523D01*
X117379761Y-78047619D02*
X118094047Y-78285714D01*
X118094047Y-77666666D01*
X119602380Y-76872619D02*
X119602380Y-77444047D01*
X119602380Y-77158333D02*
X118602380Y-77158333D01*
X118745238Y-77253571D01*
X118840476Y-77348809D01*
X118888095Y-77444047D01*
X118602380Y-76253571D02*
X118602380Y-76158333D01*
X118650000Y-76063095D01*
X118697619Y-76015476D01*
X118792857Y-75967857D01*
X118983333Y-75920238D01*
X119221428Y-75920238D01*
X119411904Y-75967857D01*
X119507142Y-76015476D01*
X119554761Y-76063095D01*
X119602380Y-76158333D01*
X119602380Y-76253571D01*
X119554761Y-76348809D01*
X119507142Y-76396428D01*
X119411904Y-76444047D01*
X119221428Y-76491666D01*
X118983333Y-76491666D01*
X118792857Y-76444047D01*
X118697619Y-76396428D01*
X118650000Y-76348809D01*
X118602380Y-76253571D01*
X118602380Y-75301190D02*
X118602380Y-75205952D01*
X118650000Y-75110714D01*
X118697619Y-75063095D01*
X118792857Y-75015476D01*
X118983333Y-74967857D01*
X119221428Y-74967857D01*
X119411904Y-75015476D01*
X119507142Y-75063095D01*
X119554761Y-75110714D01*
X119602380Y-75205952D01*
X119602380Y-75301190D01*
X119554761Y-75396428D01*
X119507142Y-75444047D01*
X119411904Y-75491666D01*
X119221428Y-75539285D01*
X118983333Y-75539285D01*
X118792857Y-75491666D01*
X118697619Y-75444047D01*
X118650000Y-75396428D01*
X118602380Y-75301190D01*
X118935714Y-74539285D02*
X119935714Y-74539285D01*
X118983333Y-74539285D02*
X118935714Y-74444047D01*
X118935714Y-74253571D01*
X118983333Y-74158333D01*
X119030952Y-74110714D01*
X119126190Y-74063095D01*
X119411904Y-74063095D01*
X119507142Y-74110714D01*
X119554761Y-74158333D01*
X119602380Y-74253571D01*
X119602380Y-74444047D01*
X119554761Y-74539285D01*
X119078571Y-73301190D02*
X119078571Y-73634523D01*
X119602380Y-73634523D02*
X118602380Y-73634523D01*
X118602380Y-73158333D01*
M02*
