G04 #@! TF.GenerationSoftware,KiCad,Pcbnew,5.1.4+dfsg1-1*
G04 #@! TF.CreationDate,2020-01-19T16:19:53-05:00*
G04 #@! TF.ProjectId,Windig_Kicad,57696e64-6967-45f4-9b69-6361642e6b69,rev?*
G04 #@! TF.SameCoordinates,Original*
G04 #@! TF.FileFunction,Copper,L2,Bot*
G04 #@! TF.FilePolarity,Positive*
%FSLAX46Y46*%
G04 Gerber Fmt 4.6, Leading zero omitted, Abs format (unit mm)*
G04 Created by KiCad (PCBNEW 5.1.4+dfsg1-1) date 2020-01-19 16:19:53*
%MOMM*%
%LPD*%
G04 APERTURE LIST*
%ADD10O,1.600000X1.600000*%
%ADD11C,1.600000*%
%ADD12C,2.000000*%
%ADD13C,2.000000*%
%ADD14C,0.100000*%
%ADD15C,1.524000*%
%ADD16R,1.600000X1.600000*%
%ADD17C,3.100000*%
%ADD18R,1.700000X1.700000*%
%ADD19O,1.700000X1.700000*%
%ADD20C,3.500000*%
%ADD21C,1.700000*%
%ADD22R,3.500000X3.500000*%
%ADD23C,3.000000*%
%ADD24C,1.800000*%
%ADD25R,1.800000X1.800000*%
%ADD26C,1.100000*%
%ADD27C,0.500000*%
%ADD28C,1.000000*%
%ADD29C,0.750000*%
%ADD30C,1.500000*%
%ADD31C,0.254000*%
G04 APERTURE END LIST*
D10*
X145045000Y-93300000D03*
D11*
X137425000Y-93300000D03*
D10*
X105065000Y-73950000D03*
D11*
X102525000Y-73950000D03*
D10*
X93510000Y-67975000D03*
D11*
X96050000Y-67975000D03*
D10*
X116690000Y-82000000D03*
D11*
X114150000Y-82000000D03*
D10*
X116790000Y-86900000D03*
D11*
X114250000Y-86900000D03*
D10*
X102725000Y-69540000D03*
D11*
X102725000Y-67000000D03*
D10*
X107600000Y-66285000D03*
D11*
X107600000Y-68825000D03*
X104925000Y-78375000D03*
X102425000Y-78375000D03*
D12*
X98842102Y-77867102D03*
D13*
X98842102Y-77867102D02*
X98842102Y-77867102D01*
D12*
X95250000Y-74275000D03*
D14*
G36*
X93835786Y-74275000D02*
G01*
X95250000Y-72860786D01*
X96664214Y-74275000D01*
X95250000Y-75689214D01*
X93835786Y-74275000D01*
X93835786Y-74275000D01*
G37*
D15*
X134175000Y-73225000D03*
X134175000Y-75765000D03*
D10*
X122830000Y-96075000D03*
X130450000Y-63055000D03*
X122830000Y-93535000D03*
X130450000Y-65595000D03*
X122830000Y-90995000D03*
X130450000Y-68135000D03*
X122830000Y-88455000D03*
X130450000Y-70675000D03*
X122830000Y-85915000D03*
X130450000Y-73215000D03*
X122830000Y-83375000D03*
X130450000Y-75755000D03*
X122830000Y-80835000D03*
X130450000Y-78295000D03*
X122830000Y-78295000D03*
X130450000Y-80835000D03*
X122830000Y-75755000D03*
X130450000Y-83375000D03*
X122830000Y-73215000D03*
X130450000Y-85915000D03*
X122830000Y-70675000D03*
X130450000Y-88455000D03*
X122830000Y-68135000D03*
X130450000Y-90995000D03*
X122830000Y-65595000D03*
X130450000Y-93535000D03*
X122830000Y-63055000D03*
D16*
X130450000Y-96075000D03*
D17*
X149700000Y-93450000D03*
X154400000Y-93450000D03*
X159100000Y-93450000D03*
X134240000Y-55245000D03*
X129540000Y-55245000D03*
X124840000Y-55245000D03*
D18*
X151245000Y-64235000D03*
D19*
X148705000Y-64235000D03*
X146165000Y-64235000D03*
X143625000Y-64235000D03*
D18*
X168600000Y-64235000D03*
D19*
X166060000Y-64235000D03*
X163520000Y-64235000D03*
X160980000Y-64235000D03*
D18*
X151245000Y-82015000D03*
D19*
X148705000Y-82015000D03*
X146165000Y-82015000D03*
X143625000Y-82015000D03*
D18*
X168600000Y-82015000D03*
D19*
X166060000Y-82015000D03*
X163520000Y-82015000D03*
X160980000Y-82015000D03*
X116690000Y-69350000D03*
X114150000Y-69350000D03*
X116690000Y-66810000D03*
X114150000Y-66810000D03*
X116690000Y-64270000D03*
D18*
X114150000Y-64270000D03*
X151245000Y-55345000D03*
D19*
X148705000Y-55345000D03*
X146165000Y-55345000D03*
X143625000Y-55345000D03*
D18*
X168600000Y-55345000D03*
D19*
X166060000Y-55345000D03*
X163520000Y-55345000D03*
X160980000Y-55345000D03*
D18*
X151245000Y-73125000D03*
D19*
X148705000Y-73125000D03*
X146165000Y-73125000D03*
X143625000Y-73125000D03*
D18*
X168600000Y-73125000D03*
D19*
X166060000Y-73125000D03*
X163520000Y-73125000D03*
X160980000Y-73125000D03*
D20*
X102440000Y-83535000D03*
X102440000Y-95575000D03*
D21*
X105150000Y-90805000D03*
X105150000Y-88305000D03*
X107150000Y-88305000D03*
D18*
X107150000Y-90805000D03*
D22*
X105880000Y-55245000D03*
D14*
G36*
X100703513Y-53498611D02*
G01*
X100776318Y-53509411D01*
X100847714Y-53527295D01*
X100917013Y-53552090D01*
X100983548Y-53583559D01*
X101046678Y-53621398D01*
X101105795Y-53665242D01*
X101160330Y-53714670D01*
X101209758Y-53769205D01*
X101253602Y-53828322D01*
X101291441Y-53891452D01*
X101322910Y-53957987D01*
X101347705Y-54027286D01*
X101365589Y-54098682D01*
X101376389Y-54171487D01*
X101380000Y-54245000D01*
X101380000Y-56245000D01*
X101376389Y-56318513D01*
X101365589Y-56391318D01*
X101347705Y-56462714D01*
X101322910Y-56532013D01*
X101291441Y-56598548D01*
X101253602Y-56661678D01*
X101209758Y-56720795D01*
X101160330Y-56775330D01*
X101105795Y-56824758D01*
X101046678Y-56868602D01*
X100983548Y-56906441D01*
X100917013Y-56937910D01*
X100847714Y-56962705D01*
X100776318Y-56980589D01*
X100703513Y-56991389D01*
X100630000Y-56995000D01*
X99130000Y-56995000D01*
X99056487Y-56991389D01*
X98983682Y-56980589D01*
X98912286Y-56962705D01*
X98842987Y-56937910D01*
X98776452Y-56906441D01*
X98713322Y-56868602D01*
X98654205Y-56824758D01*
X98599670Y-56775330D01*
X98550242Y-56720795D01*
X98506398Y-56661678D01*
X98468559Y-56598548D01*
X98437090Y-56532013D01*
X98412295Y-56462714D01*
X98394411Y-56391318D01*
X98383611Y-56318513D01*
X98380000Y-56245000D01*
X98380000Y-54245000D01*
X98383611Y-54171487D01*
X98394411Y-54098682D01*
X98412295Y-54027286D01*
X98437090Y-53957987D01*
X98468559Y-53891452D01*
X98506398Y-53828322D01*
X98550242Y-53769205D01*
X98599670Y-53714670D01*
X98654205Y-53665242D01*
X98713322Y-53621398D01*
X98776452Y-53583559D01*
X98842987Y-53552090D01*
X98912286Y-53527295D01*
X98983682Y-53509411D01*
X99056487Y-53498611D01*
X99130000Y-53495000D01*
X100630000Y-53495000D01*
X100703513Y-53498611D01*
X100703513Y-53498611D01*
G37*
D23*
X99880000Y-55245000D03*
D14*
G36*
X103840765Y-58199213D02*
G01*
X103925704Y-58211813D01*
X104008999Y-58232677D01*
X104089848Y-58261605D01*
X104167472Y-58298319D01*
X104241124Y-58342464D01*
X104310094Y-58393616D01*
X104373718Y-58451282D01*
X104431384Y-58514906D01*
X104482536Y-58583876D01*
X104526681Y-58657528D01*
X104563395Y-58735152D01*
X104592323Y-58816001D01*
X104613187Y-58899296D01*
X104625787Y-58984235D01*
X104630000Y-59070000D01*
X104630000Y-60820000D01*
X104625787Y-60905765D01*
X104613187Y-60990704D01*
X104592323Y-61073999D01*
X104563395Y-61154848D01*
X104526681Y-61232472D01*
X104482536Y-61306124D01*
X104431384Y-61375094D01*
X104373718Y-61438718D01*
X104310094Y-61496384D01*
X104241124Y-61547536D01*
X104167472Y-61591681D01*
X104089848Y-61628395D01*
X104008999Y-61657323D01*
X103925704Y-61678187D01*
X103840765Y-61690787D01*
X103755000Y-61695000D01*
X102005000Y-61695000D01*
X101919235Y-61690787D01*
X101834296Y-61678187D01*
X101751001Y-61657323D01*
X101670152Y-61628395D01*
X101592528Y-61591681D01*
X101518876Y-61547536D01*
X101449906Y-61496384D01*
X101386282Y-61438718D01*
X101328616Y-61375094D01*
X101277464Y-61306124D01*
X101233319Y-61232472D01*
X101196605Y-61154848D01*
X101167677Y-61073999D01*
X101146813Y-60990704D01*
X101134213Y-60905765D01*
X101130000Y-60820000D01*
X101130000Y-59070000D01*
X101134213Y-58984235D01*
X101146813Y-58899296D01*
X101167677Y-58816001D01*
X101196605Y-58735152D01*
X101233319Y-58657528D01*
X101277464Y-58583876D01*
X101328616Y-58514906D01*
X101386282Y-58451282D01*
X101449906Y-58393616D01*
X101518876Y-58342464D01*
X101592528Y-58298319D01*
X101670152Y-58261605D01*
X101751001Y-58232677D01*
X101834296Y-58211813D01*
X101919235Y-58199213D01*
X102005000Y-58195000D01*
X103755000Y-58195000D01*
X103840765Y-58199213D01*
X103840765Y-58199213D01*
G37*
D20*
X102880000Y-59945000D03*
D24*
X97775000Y-64215000D03*
D25*
X97775000Y-61675000D03*
D24*
X93800000Y-64215000D03*
D25*
X93800000Y-61675000D03*
D11*
X138100000Y-70325000D03*
X138100000Y-72825000D03*
X138125000Y-78800000D03*
X138125000Y-76300000D03*
X107900000Y-62375000D03*
X110400000Y-62375000D03*
X116650000Y-76450000D03*
X116650000Y-73950000D03*
D26*
X94275000Y-71325000D03*
X155775000Y-72125000D03*
X119325000Y-71640000D03*
X153000000Y-77750000D03*
X110002817Y-86900000D03*
D27*
X100940000Y-71325000D02*
X94275000Y-71325000D01*
X102725000Y-69540000D02*
X100940000Y-71325000D01*
X104925000Y-78375000D02*
X104925000Y-79900000D01*
X104925000Y-79900000D02*
X111000000Y-85975000D01*
X108500000Y-90805000D02*
X107150000Y-90805000D01*
X111000000Y-88305000D02*
X108500000Y-90805000D01*
X111000000Y-85975000D02*
X111000000Y-88305000D01*
X127910000Y-80835000D02*
X130450000Y-80835000D01*
X122830000Y-75755000D02*
X127910000Y-80835000D01*
D28*
X99880000Y-53495000D02*
X101975000Y-51400000D01*
X99880000Y-55245000D02*
X99880000Y-53495000D01*
X149150000Y-51400000D02*
X151245000Y-53495000D01*
X101975000Y-51400000D02*
X149150000Y-51400000D01*
X168600000Y-53495000D02*
X166505000Y-51400000D01*
X168600000Y-55345000D02*
X168600000Y-53495000D01*
X153340000Y-51400000D02*
X155300000Y-51400000D01*
X151245000Y-55345000D02*
X151245000Y-53495000D01*
X151245000Y-53495000D02*
X153340000Y-51400000D01*
X166505000Y-51400000D02*
X155300000Y-51400000D01*
X155300000Y-51400000D02*
X149150000Y-51400000D01*
X151245000Y-55345000D02*
X151245000Y-64235000D01*
X151245000Y-64235000D02*
X151245000Y-73125000D01*
X151245000Y-73125000D02*
X151245000Y-82015000D01*
X168600000Y-82015000D02*
X168600000Y-73125000D01*
X168600000Y-73125000D02*
X168600000Y-64235000D01*
X168600000Y-64235000D02*
X168600000Y-55345000D01*
X99880000Y-55595000D02*
X93800000Y-61675000D01*
X99880000Y-55245000D02*
X99880000Y-55595000D01*
D27*
X107100001Y-60682575D02*
X107100001Y-61575001D01*
X101662426Y-55245000D02*
X107100001Y-60682575D01*
X107100001Y-61575001D02*
X107900000Y-62375000D01*
X99880000Y-55245000D02*
X101662426Y-55245000D01*
D29*
X99965127Y-83535000D02*
X102440000Y-83535000D01*
X92000000Y-63979998D02*
X92000000Y-75569873D01*
X93800000Y-62179998D02*
X92000000Y-63979998D01*
X92000000Y-75569873D02*
X99965127Y-83535000D01*
X93800000Y-61675000D02*
X93800000Y-62179998D01*
D30*
X102440000Y-83535000D02*
X102440000Y-95575000D01*
X102440000Y-88095000D02*
X102440000Y-83535000D01*
X105150000Y-90805000D02*
X102440000Y-88095000D01*
D27*
X104765000Y-97900000D02*
X102440000Y-95575000D01*
X143057969Y-97900000D02*
X104765000Y-97900000D01*
X149700000Y-93450000D02*
X147507969Y-93450000D01*
X147507969Y-93450000D02*
X143057969Y-97900000D01*
X138125000Y-72850000D02*
X138100000Y-72825000D01*
X138125000Y-76300000D02*
X138125000Y-72850000D01*
D28*
X102425000Y-83520000D02*
X102440000Y-83535000D01*
X102425000Y-78375000D02*
X102425000Y-83520000D01*
D27*
X116650000Y-69390000D02*
X116690000Y-69350000D01*
X116650000Y-73950000D02*
X116650000Y-69390000D01*
X105065000Y-75735000D02*
X105065000Y-73950000D01*
X102425000Y-78375000D02*
X105065000Y-75735000D01*
X115840001Y-68500001D02*
X116690000Y-69350000D01*
X113713997Y-68149999D02*
X115489999Y-68149999D01*
X112949999Y-67386001D02*
X113713997Y-68149999D01*
X112949999Y-63222997D02*
X112949999Y-67386001D01*
X115489999Y-68149999D02*
X115840001Y-68500001D01*
X110952001Y-61224999D02*
X112949999Y-63222997D01*
X109050001Y-61224999D02*
X110952001Y-61224999D01*
X107900000Y-62375000D02*
X109050001Y-61224999D01*
X131581370Y-78295000D02*
X130450000Y-78295000D01*
X138125000Y-76300000D02*
X139256370Y-76300000D01*
X139256370Y-76300000D02*
X141025000Y-78068630D01*
X134236370Y-80950000D02*
X131581370Y-78295000D01*
X141025000Y-78068630D02*
X141025000Y-80075000D01*
X141025000Y-80075000D02*
X140150000Y-80950000D01*
X140150000Y-80950000D02*
X134236370Y-80950000D01*
X122030001Y-80035001D02*
X116335001Y-80035001D01*
X122830000Y-80835000D02*
X122030001Y-80035001D01*
X116335001Y-80035001D02*
X115025000Y-78725000D01*
X115025000Y-75575000D02*
X116650000Y-73950000D01*
X115025000Y-78725000D02*
X115025000Y-75575000D01*
D28*
X148705000Y-55345000D02*
X148705000Y-64235000D01*
X148705000Y-64235000D02*
X148705000Y-73125000D01*
X148705000Y-73125000D02*
X148705000Y-82015000D01*
X151387919Y-85900000D02*
X148705000Y-83217081D01*
X166060000Y-83217081D02*
X163377081Y-85900000D01*
X148705000Y-83217081D02*
X148705000Y-82015000D01*
X163377081Y-85900000D02*
X151387919Y-85900000D01*
X166060000Y-82015000D02*
X166060000Y-83217081D01*
X166060000Y-82015000D02*
X166060000Y-73125000D01*
X166060000Y-73125000D02*
X166060000Y-64235000D01*
X166060000Y-64235000D02*
X166060000Y-55345000D01*
D27*
X102200000Y-74275000D02*
X102525000Y-73950000D01*
X95250000Y-74275000D02*
X102200000Y-74275000D01*
X110400000Y-63506370D02*
X110400000Y-62375000D01*
X110400000Y-65187002D02*
X110400000Y-63506370D01*
X108152001Y-67435001D02*
X110400000Y-65187002D01*
X107287997Y-67435001D02*
X108152001Y-67435001D01*
X102525000Y-72197998D02*
X107287997Y-67435001D01*
X102525000Y-73950000D02*
X102525000Y-72197998D01*
X130460000Y-75765000D02*
X130450000Y-75755000D01*
X134175000Y-75765000D02*
X130460000Y-75765000D01*
X137210000Y-78800000D02*
X138125000Y-78800000D01*
X134175000Y-75765000D02*
X137210000Y-78800000D01*
X130460000Y-73225000D02*
X130450000Y-73215000D01*
X134175000Y-73225000D02*
X130460000Y-73225000D01*
X137075000Y-70325000D02*
X138100000Y-70325000D01*
X134175000Y-73225000D02*
X137075000Y-70325000D01*
X155775000Y-71347183D02*
X157497183Y-69625000D01*
X155775000Y-72125000D02*
X155775000Y-71347183D01*
X160020000Y-69625000D02*
X163520000Y-73125000D01*
X157497183Y-69625000D02*
X160020000Y-69625000D01*
X160980000Y-80812919D02*
X160980000Y-73125000D01*
X160980000Y-82015000D02*
X160980000Y-80812919D01*
X127891369Y-84525001D02*
X138524999Y-84525001D01*
X122830000Y-88455000D02*
X123961370Y-88455000D01*
X123961370Y-88455000D02*
X127891369Y-84525001D01*
X142891001Y-84525001D02*
X138524999Y-84525001D01*
X144875000Y-82541002D02*
X142891001Y-84525001D01*
X144875000Y-81528998D02*
X144875000Y-82541002D01*
X146165000Y-80238998D02*
X144875000Y-81528998D01*
X146165000Y-73125000D02*
X146165000Y-80238998D01*
X143625000Y-73125000D02*
X143625000Y-70925000D01*
X143625000Y-70925000D02*
X140875000Y-68175000D01*
X140875000Y-68175000D02*
X135725000Y-68175000D01*
X133225000Y-70675000D02*
X130450000Y-70675000D01*
X135725000Y-68175000D02*
X133225000Y-70675000D01*
X143625000Y-73125000D02*
X143625000Y-82015000D01*
X142775001Y-56194999D02*
X140180001Y-56194999D01*
X143625000Y-55345000D02*
X142775001Y-56194999D01*
X140180001Y-56194999D02*
X137450000Y-58925000D01*
X137450000Y-58925000D02*
X128550000Y-58925000D01*
X128550000Y-58925000D02*
X125675000Y-61800000D01*
X125675000Y-65290000D02*
X122830000Y-68135000D01*
X125675000Y-61800000D02*
X125675000Y-65290000D01*
X143625000Y-56547081D02*
X143625000Y-64235000D01*
X143625000Y-55345000D02*
X143625000Y-56547081D01*
X119325000Y-69445000D02*
X119325000Y-71640000D01*
X116690000Y-66810000D02*
X119325000Y-69445000D01*
X134650000Y-96075000D02*
X130450000Y-96075000D01*
X137425000Y-93300000D02*
X134650000Y-96075000D01*
X114150000Y-70552081D02*
X112575000Y-72127081D01*
X114150000Y-69350000D02*
X114150000Y-70552081D01*
X127999999Y-97225001D02*
X129150000Y-96075000D01*
X112575000Y-87522002D02*
X122277999Y-97225001D01*
X129150000Y-96075000D02*
X130450000Y-96075000D01*
X122277999Y-97225001D02*
X127999999Y-97225001D01*
X112575000Y-72127081D02*
X112575000Y-87522002D01*
X117266001Y-65609999D02*
X120425000Y-68768998D01*
X114150000Y-66810000D02*
X115350001Y-65609999D01*
X115350001Y-65609999D02*
X117266001Y-65609999D01*
X120425000Y-70810000D02*
X122830000Y-73215000D01*
X120425000Y-68768998D02*
X120425000Y-70810000D01*
X117266001Y-63069999D02*
X121125000Y-66928998D01*
X114150000Y-64270000D02*
X115350001Y-63069999D01*
X115350001Y-63069999D02*
X117266001Y-63069999D01*
X121125000Y-68970000D02*
X122830000Y-70675000D01*
X121125000Y-66928998D02*
X121125000Y-68970000D01*
X163520000Y-83217081D02*
X162887081Y-83850000D01*
X163520000Y-82015000D02*
X163520000Y-83217081D01*
X162887081Y-83850000D02*
X159100000Y-83850000D01*
X159100000Y-83850000D02*
X153000000Y-77750000D01*
X153000000Y-77750000D02*
X153000000Y-77750000D01*
X131581370Y-90995000D02*
X134151370Y-88425000D01*
X130450000Y-90995000D02*
X131581370Y-90995000D01*
X134151370Y-88425000D02*
X139755000Y-88425000D01*
X146165000Y-83217081D02*
X146175000Y-83227081D01*
X146165000Y-82015000D02*
X146165000Y-83217081D01*
X146175000Y-83227081D02*
X146175000Y-85100000D01*
X145350000Y-85925000D02*
X142250000Y-85925000D01*
X146175000Y-85100000D02*
X145350000Y-85925000D01*
X139755000Y-88425000D02*
X142250000Y-85925000D01*
X142250000Y-85925000D02*
X142230000Y-85950000D01*
X129650001Y-89254999D02*
X129170001Y-89254999D01*
X130450000Y-88455000D02*
X129650001Y-89254999D01*
X117589999Y-87699999D02*
X116790000Y-86900000D01*
X126040001Y-92384999D02*
X122274999Y-92384999D01*
X122274999Y-92384999D02*
X117589999Y-87699999D01*
X129170001Y-89254999D02*
X126040001Y-92384999D01*
X129075000Y-82000000D02*
X130450000Y-83375000D01*
X116690000Y-82000000D02*
X129075000Y-82000000D01*
X131581370Y-93535000D02*
X133816370Y-91300000D01*
X130450000Y-93535000D02*
X131581370Y-93535000D01*
X152250000Y-91300000D02*
X154400000Y-93450000D01*
X133816370Y-91300000D02*
X152250000Y-91300000D01*
X109225000Y-86900000D02*
X109225000Y-86900000D01*
X106555000Y-86900000D02*
X105150000Y-88305000D01*
X110002817Y-86900000D02*
X106555000Y-86900000D01*
D31*
G36*
X169167000Y-50199875D02*
G01*
X169476408Y-50288847D01*
X169773916Y-50411880D01*
X170055790Y-50567429D01*
X170318493Y-50753543D01*
X170558725Y-50967885D01*
X170773457Y-51207751D01*
X170960008Y-51470147D01*
X171116024Y-51751764D01*
X171239551Y-52049069D01*
X171329037Y-52358335D01*
X171383356Y-52675659D01*
X171402033Y-53000644D01*
X171446587Y-86148961D01*
X171428827Y-86473590D01*
X171375486Y-86790709D01*
X171287039Y-87099875D01*
X171164597Y-87397211D01*
X171009684Y-87679016D01*
X170822211Y-87944629D01*
X163553936Y-97107183D01*
X163336779Y-97351359D01*
X163096223Y-97567213D01*
X162832928Y-97754691D01*
X162550249Y-97911401D01*
X162251766Y-98035363D01*
X161941225Y-98125017D01*
X161622599Y-98179219D01*
X161296326Y-98197487D01*
X95002551Y-98174061D01*
X94677411Y-98155690D01*
X94359888Y-98101638D01*
X94050427Y-98012387D01*
X93752887Y-97889049D01*
X93471025Y-97733181D01*
X93208381Y-97546741D01*
X92968267Y-97332079D01*
X92890125Y-97244609D01*
X100949997Y-97244609D01*
X101136073Y-97585766D01*
X101553409Y-97801513D01*
X102004815Y-97931696D01*
X102472946Y-97971313D01*
X102939811Y-97918842D01*
X103387468Y-97776297D01*
X103743927Y-97585766D01*
X103930003Y-97244609D01*
X102440000Y-95754605D01*
X100949997Y-97244609D01*
X92890125Y-97244609D01*
X92753681Y-97091879D01*
X92567338Y-96829176D01*
X92411572Y-96547263D01*
X92288340Y-96249680D01*
X92199194Y-95940172D01*
X92145255Y-95622640D01*
X92144430Y-95607946D01*
X100043687Y-95607946D01*
X100096158Y-96074811D01*
X100238703Y-96522468D01*
X100429234Y-96878927D01*
X100770391Y-97065003D01*
X102260395Y-95575000D01*
X102619605Y-95575000D01*
X104109609Y-97065003D01*
X104450766Y-96878927D01*
X104666513Y-96461591D01*
X104796696Y-96010185D01*
X104836313Y-95542054D01*
X104783842Y-95075189D01*
X104641297Y-94627532D01*
X104450766Y-94271073D01*
X104109609Y-94084997D01*
X102619605Y-95575000D01*
X102260395Y-95575000D01*
X100770391Y-94084997D01*
X100429234Y-94271073D01*
X100213487Y-94688409D01*
X100083304Y-95139815D01*
X100043687Y-95607946D01*
X92144430Y-95607946D01*
X92127000Y-95297503D01*
X92127000Y-93905391D01*
X100949997Y-93905391D01*
X102440000Y-95395395D01*
X103930003Y-93905391D01*
X103743927Y-93564234D01*
X103326591Y-93348487D01*
X102875185Y-93218304D01*
X102407054Y-93178687D01*
X101940189Y-93231158D01*
X101492532Y-93373703D01*
X101136073Y-93564234D01*
X100949997Y-93905391D01*
X92127000Y-93905391D01*
X92127000Y-90873531D01*
X103659389Y-90873531D01*
X103701401Y-91163019D01*
X103799081Y-91438747D01*
X103872528Y-91576157D01*
X104121603Y-91653792D01*
X104970395Y-90805000D01*
X104121603Y-89956208D01*
X103872528Y-90033843D01*
X103746629Y-90297883D01*
X103674661Y-90581411D01*
X103659389Y-90873531D01*
X92127000Y-90873531D01*
X92127000Y-85204609D01*
X100949997Y-85204609D01*
X101136073Y-85545766D01*
X101553409Y-85761513D01*
X102004815Y-85891696D01*
X102472946Y-85931313D01*
X102939811Y-85878842D01*
X103387468Y-85736297D01*
X103743927Y-85545766D01*
X103930003Y-85204609D01*
X102440000Y-83714605D01*
X100949997Y-85204609D01*
X92127000Y-85204609D01*
X92127000Y-83567946D01*
X100043687Y-83567946D01*
X100096158Y-84034811D01*
X100238703Y-84482468D01*
X100429234Y-84838927D01*
X100770391Y-85025003D01*
X102260395Y-83535000D01*
X102619605Y-83535000D01*
X104109609Y-85025003D01*
X104450766Y-84838927D01*
X104666513Y-84421591D01*
X104796696Y-83970185D01*
X104836313Y-83502054D01*
X104783842Y-83035189D01*
X104641297Y-82587532D01*
X104450766Y-82231073D01*
X104109609Y-82044997D01*
X102619605Y-83535000D01*
X102260395Y-83535000D01*
X100770391Y-82044997D01*
X100429234Y-82231073D01*
X100213487Y-82648409D01*
X100083304Y-83099815D01*
X100043687Y-83567946D01*
X92127000Y-83567946D01*
X92127000Y-81865391D01*
X100949997Y-81865391D01*
X102440000Y-83355395D01*
X103930003Y-81865391D01*
X103743927Y-81524234D01*
X103326591Y-81308487D01*
X102875185Y-81178304D01*
X102407054Y-81138687D01*
X101940189Y-81191158D01*
X101492532Y-81333703D01*
X101136073Y-81524234D01*
X100949997Y-81865391D01*
X92127000Y-81865391D01*
X92127000Y-77867102D01*
X97199191Y-77867102D01*
X97230759Y-78187618D01*
X97324250Y-78495817D01*
X97476071Y-78779854D01*
X97680388Y-79028816D01*
X97929350Y-79233133D01*
X98213387Y-79384954D01*
X98521586Y-79478445D01*
X98761780Y-79502102D01*
X98922424Y-79502102D01*
X99162618Y-79478445D01*
X99470817Y-79384954D01*
X99503093Y-79367702D01*
X101611903Y-79367702D01*
X101683486Y-79611671D01*
X101938996Y-79732571D01*
X102213184Y-79801300D01*
X102495512Y-79815217D01*
X102775130Y-79773787D01*
X103041292Y-79678603D01*
X103166514Y-79611671D01*
X103238097Y-79367702D01*
X102425000Y-78554605D01*
X101611903Y-79367702D01*
X99503093Y-79367702D01*
X99754854Y-79233133D01*
X100003816Y-79028816D01*
X100208133Y-78779854D01*
X100359954Y-78495817D01*
X100375213Y-78445512D01*
X100984783Y-78445512D01*
X101026213Y-78725130D01*
X101121397Y-78991292D01*
X101188329Y-79116514D01*
X101432298Y-79188097D01*
X102245395Y-78375000D01*
X102604605Y-78375000D01*
X103417702Y-79188097D01*
X103661671Y-79116514D01*
X103675324Y-79087659D01*
X103810363Y-79289759D01*
X104010241Y-79489637D01*
X104040001Y-79509522D01*
X104040001Y-79856521D01*
X104035719Y-79900000D01*
X104052805Y-80073490D01*
X104103412Y-80240313D01*
X104185590Y-80394059D01*
X104268468Y-80495046D01*
X104268471Y-80495049D01*
X104296184Y-80528817D01*
X104329952Y-80556530D01*
X109570046Y-85796625D01*
X109441509Y-85849866D01*
X109247423Y-85979550D01*
X109211973Y-86015000D01*
X106598466Y-86015000D01*
X106554999Y-86010719D01*
X106511533Y-86015000D01*
X106511523Y-86015000D01*
X106381510Y-86027805D01*
X106214687Y-86078411D01*
X106060941Y-86160589D01*
X106060939Y-86160590D01*
X106060940Y-86160590D01*
X105959953Y-86243468D01*
X105959951Y-86243470D01*
X105926183Y-86271183D01*
X105898470Y-86304951D01*
X105368960Y-86834461D01*
X105296260Y-86820000D01*
X105003740Y-86820000D01*
X104716842Y-86877068D01*
X104446589Y-86989010D01*
X104203368Y-87151525D01*
X103996525Y-87358368D01*
X103834010Y-87601589D01*
X103722068Y-87871842D01*
X103665000Y-88158740D01*
X103665000Y-88451260D01*
X103722068Y-88738158D01*
X103834010Y-89008411D01*
X103996525Y-89251632D01*
X104203368Y-89458475D01*
X104366410Y-89567416D01*
X104301208Y-89776603D01*
X105150000Y-90625395D01*
X105164143Y-90611253D01*
X105343748Y-90790858D01*
X105329605Y-90805000D01*
X105343748Y-90819143D01*
X105164143Y-90998748D01*
X105150000Y-90984605D01*
X104301208Y-91833397D01*
X104378843Y-92082472D01*
X104642883Y-92208371D01*
X104926411Y-92280339D01*
X105218531Y-92295611D01*
X105508019Y-92253599D01*
X105783747Y-92155919D01*
X105859850Y-92115241D01*
X105945506Y-92185537D01*
X106055820Y-92244502D01*
X106175518Y-92280812D01*
X106300000Y-92293072D01*
X108000000Y-92293072D01*
X108124482Y-92280812D01*
X108244180Y-92244502D01*
X108354494Y-92185537D01*
X108451185Y-92106185D01*
X108530537Y-92009494D01*
X108589502Y-91899180D01*
X108625812Y-91779482D01*
X108635518Y-91680935D01*
X108673490Y-91677195D01*
X108840313Y-91626589D01*
X108994059Y-91544411D01*
X109128817Y-91433817D01*
X109156534Y-91400044D01*
X111595049Y-88961530D01*
X111628817Y-88933817D01*
X111739411Y-88799059D01*
X111821589Y-88645313D01*
X111872195Y-88478490D01*
X111885000Y-88348477D01*
X111885000Y-88348469D01*
X111889281Y-88305000D01*
X111885000Y-88261531D01*
X111885000Y-88076267D01*
X111918468Y-88117048D01*
X111918471Y-88117051D01*
X111946184Y-88150819D01*
X111979952Y-88178532D01*
X115126834Y-91325414D01*
X114873075Y-91375890D01*
X114466331Y-91544369D01*
X114100271Y-91788962D01*
X113788962Y-92100271D01*
X113544369Y-92466331D01*
X113375890Y-92873075D01*
X113290000Y-93304872D01*
X113290000Y-93745128D01*
X113375890Y-94176925D01*
X113544369Y-94583669D01*
X113788962Y-94949729D01*
X114100271Y-95261038D01*
X114466331Y-95505631D01*
X114873075Y-95674110D01*
X115304872Y-95760000D01*
X115745128Y-95760000D01*
X116176925Y-95674110D01*
X116583669Y-95505631D01*
X116949729Y-95261038D01*
X117261038Y-94949729D01*
X117505631Y-94583669D01*
X117674110Y-94176925D01*
X117724586Y-93923166D01*
X121621469Y-97820050D01*
X121649182Y-97853818D01*
X121682950Y-97881531D01*
X121682952Y-97881533D01*
X121728413Y-97918842D01*
X121783940Y-97964412D01*
X121937686Y-98046590D01*
X122104509Y-98097196D01*
X122234522Y-98110001D01*
X122234530Y-98110001D01*
X122277999Y-98114282D01*
X122321468Y-98110001D01*
X127956530Y-98110001D01*
X127999999Y-98114282D01*
X128043468Y-98110001D01*
X128043476Y-98110001D01*
X128173489Y-98097196D01*
X128340312Y-98046590D01*
X128494058Y-97964412D01*
X128628816Y-97853818D01*
X128656533Y-97820045D01*
X129176989Y-97299590D01*
X129198815Y-97326185D01*
X129295506Y-97405537D01*
X129405820Y-97464502D01*
X129525518Y-97500812D01*
X129650000Y-97513072D01*
X131250000Y-97513072D01*
X131374482Y-97500812D01*
X131494180Y-97464502D01*
X131604494Y-97405537D01*
X131701185Y-97326185D01*
X131780537Y-97229494D01*
X131839502Y-97119180D01*
X131875812Y-96999482D01*
X131879701Y-96960000D01*
X134606531Y-96960000D01*
X134650000Y-96964281D01*
X134693469Y-96960000D01*
X134693477Y-96960000D01*
X134823490Y-96947195D01*
X134990313Y-96896589D01*
X135144059Y-96814411D01*
X135278817Y-96703817D01*
X135306534Y-96670044D01*
X136999327Y-94977251D01*
X148352354Y-94977251D01*
X148514381Y-95297930D01*
X148897675Y-95493725D01*
X149311803Y-95610981D01*
X149740848Y-95645192D01*
X150168324Y-95595042D01*
X150577802Y-95462461D01*
X150885619Y-95297930D01*
X151047646Y-94977251D01*
X149700000Y-93629605D01*
X148352354Y-94977251D01*
X136999327Y-94977251D01*
X137248561Y-94728017D01*
X137283665Y-94735000D01*
X137566335Y-94735000D01*
X137843574Y-94679853D01*
X138104727Y-94571680D01*
X138339759Y-94414637D01*
X138539637Y-94214759D01*
X138696680Y-93979727D01*
X138804853Y-93718574D01*
X138860000Y-93441335D01*
X138860000Y-93158665D01*
X138804853Y-92881426D01*
X138696680Y-92620273D01*
X138539637Y-92385241D01*
X138339759Y-92185363D01*
X138339216Y-92185000D01*
X144141628Y-92185000D01*
X144025392Y-92280392D01*
X143846068Y-92498899D01*
X143712818Y-92748192D01*
X143630764Y-93018691D01*
X143603057Y-93300000D01*
X143630764Y-93581309D01*
X143712818Y-93851808D01*
X143846068Y-94101101D01*
X144025392Y-94319608D01*
X144243899Y-94498932D01*
X144493192Y-94632182D01*
X144763691Y-94714236D01*
X144974508Y-94735000D01*
X145115492Y-94735000D01*
X145326309Y-94714236D01*
X145596808Y-94632182D01*
X145846101Y-94498932D01*
X146064608Y-94319608D01*
X146243932Y-94101101D01*
X146377182Y-93851808D01*
X146459236Y-93581309D01*
X146486943Y-93300000D01*
X146459236Y-93018691D01*
X146377182Y-92748192D01*
X146243932Y-92498899D01*
X146064608Y-92280392D01*
X145948372Y-92185000D01*
X148009179Y-92185000D01*
X147852070Y-92264381D01*
X147656275Y-92647675D01*
X147539019Y-93061803D01*
X147504808Y-93490848D01*
X147554958Y-93918324D01*
X147687539Y-94327802D01*
X147852070Y-94635619D01*
X148172749Y-94797646D01*
X149520395Y-93450000D01*
X149506253Y-93435858D01*
X149685858Y-93256253D01*
X149700000Y-93270395D01*
X149714143Y-93256253D01*
X149893748Y-93435858D01*
X149879605Y-93450000D01*
X151227251Y-94797646D01*
X151547930Y-94635619D01*
X151743725Y-94252325D01*
X151860981Y-93838197D01*
X151895192Y-93409152D01*
X151845042Y-92981676D01*
X151712461Y-92572198D01*
X151547930Y-92264381D01*
X151390821Y-92185000D01*
X151883422Y-92185000D01*
X152361095Y-92662673D01*
X152298969Y-92812659D01*
X152215000Y-93234796D01*
X152215000Y-93665204D01*
X152298969Y-94087341D01*
X152463678Y-94484985D01*
X152702800Y-94842856D01*
X153007144Y-95147200D01*
X153365015Y-95386322D01*
X153762659Y-95551031D01*
X154184796Y-95635000D01*
X154615204Y-95635000D01*
X155037341Y-95551031D01*
X155434985Y-95386322D01*
X155792856Y-95147200D01*
X156097200Y-94842856D01*
X156336322Y-94484985D01*
X156501031Y-94087341D01*
X156585000Y-93665204D01*
X156585000Y-93234796D01*
X156915000Y-93234796D01*
X156915000Y-93665204D01*
X156998969Y-94087341D01*
X157163678Y-94484985D01*
X157402800Y-94842856D01*
X157707144Y-95147200D01*
X158065015Y-95386322D01*
X158462659Y-95551031D01*
X158884796Y-95635000D01*
X159315204Y-95635000D01*
X159737341Y-95551031D01*
X160134985Y-95386322D01*
X160492856Y-95147200D01*
X160797200Y-94842856D01*
X161036322Y-94484985D01*
X161201031Y-94087341D01*
X161285000Y-93665204D01*
X161285000Y-93234796D01*
X161201031Y-92812659D01*
X161036322Y-92415015D01*
X160797200Y-92057144D01*
X160492856Y-91752800D01*
X160134985Y-91513678D01*
X159737341Y-91348969D01*
X159315204Y-91265000D01*
X158884796Y-91265000D01*
X158462659Y-91348969D01*
X158065015Y-91513678D01*
X157707144Y-91752800D01*
X157402800Y-92057144D01*
X157163678Y-92415015D01*
X156998969Y-92812659D01*
X156915000Y-93234796D01*
X156585000Y-93234796D01*
X156501031Y-92812659D01*
X156336322Y-92415015D01*
X156097200Y-92057144D01*
X155792856Y-91752800D01*
X155434985Y-91513678D01*
X155037341Y-91348969D01*
X154615204Y-91265000D01*
X154184796Y-91265000D01*
X153762659Y-91348969D01*
X153612673Y-91411095D01*
X152906534Y-90704956D01*
X152878817Y-90671183D01*
X152744059Y-90560589D01*
X152590313Y-90478411D01*
X152423490Y-90427805D01*
X152293477Y-90415000D01*
X152293469Y-90415000D01*
X152250000Y-90410719D01*
X152206531Y-90415000D01*
X133859835Y-90415000D01*
X133816369Y-90410719D01*
X133772903Y-90415000D01*
X133772893Y-90415000D01*
X133642880Y-90427805D01*
X133476057Y-90478411D01*
X133322311Y-90560589D01*
X133322309Y-90560590D01*
X133322310Y-90560590D01*
X133221323Y-90643468D01*
X133221321Y-90643470D01*
X133187553Y-90671183D01*
X133159840Y-90704951D01*
X131403584Y-92461208D01*
X131251101Y-92336068D01*
X131118142Y-92265000D01*
X131251101Y-92193932D01*
X131469608Y-92014608D01*
X131576924Y-91883843D01*
X131581370Y-91884281D01*
X131624839Y-91880000D01*
X131624847Y-91880000D01*
X131754860Y-91867195D01*
X131921683Y-91816589D01*
X132075429Y-91734411D01*
X132210187Y-91623817D01*
X132237904Y-91590044D01*
X134517949Y-89310000D01*
X139711972Y-89310000D01*
X139755890Y-89314281D01*
X139841432Y-89305769D01*
X139928490Y-89297195D01*
X139928922Y-89297064D01*
X139929363Y-89297020D01*
X140011461Y-89272026D01*
X140095313Y-89246589D01*
X140095712Y-89246376D01*
X140096135Y-89246247D01*
X140171940Y-89205632D01*
X140249059Y-89164411D01*
X140249407Y-89164126D01*
X140249798Y-89163916D01*
X140316489Y-89109072D01*
X140383817Y-89053817D01*
X140411815Y-89019701D01*
X142617098Y-86810000D01*
X145306531Y-86810000D01*
X145350000Y-86814281D01*
X145393469Y-86810000D01*
X145393477Y-86810000D01*
X145523490Y-86797195D01*
X145690313Y-86746589D01*
X145844059Y-86664411D01*
X145978817Y-86553817D01*
X146006534Y-86520044D01*
X146770049Y-85756530D01*
X146803817Y-85728817D01*
X146845932Y-85677501D01*
X146914410Y-85594060D01*
X146919420Y-85584687D01*
X146996589Y-85440313D01*
X147047195Y-85273490D01*
X147060000Y-85143477D01*
X147060000Y-85143467D01*
X147064281Y-85100001D01*
X147060000Y-85056535D01*
X147060000Y-83270546D01*
X147064281Y-83227080D01*
X147061635Y-83200211D01*
X147220134Y-83070134D01*
X147405706Y-82844014D01*
X147435000Y-82789209D01*
X147464294Y-82844014D01*
X147570000Y-82972817D01*
X147570000Y-83161330D01*
X147564509Y-83217081D01*
X147570000Y-83272832D01*
X147586423Y-83439579D01*
X147651324Y-83653527D01*
X147756716Y-83850704D01*
X147898551Y-84023530D01*
X147941865Y-84059077D01*
X150545928Y-86663141D01*
X150581470Y-86706449D01*
X150754296Y-86848284D01*
X150951472Y-86953676D01*
X151165420Y-87018577D01*
X151332167Y-87035000D01*
X151332176Y-87035000D01*
X151387918Y-87040490D01*
X151443660Y-87035000D01*
X163321330Y-87035000D01*
X163377081Y-87040491D01*
X163432832Y-87035000D01*
X163432833Y-87035000D01*
X163599580Y-87018577D01*
X163813528Y-86953676D01*
X164010704Y-86848284D01*
X164183530Y-86706449D01*
X164219077Y-86663135D01*
X166823141Y-84059072D01*
X166866449Y-84023530D01*
X167008284Y-83850704D01*
X167113676Y-83653528D01*
X167178577Y-83439580D01*
X167195000Y-83272833D01*
X167195000Y-83272824D01*
X167200490Y-83217082D01*
X167196496Y-83176526D01*
X167219463Y-83219494D01*
X167298815Y-83316185D01*
X167395506Y-83395537D01*
X167505820Y-83454502D01*
X167625518Y-83490812D01*
X167750000Y-83503072D01*
X168314250Y-83500000D01*
X168473000Y-83341250D01*
X168473000Y-82142000D01*
X168727000Y-82142000D01*
X168727000Y-83341250D01*
X168885750Y-83500000D01*
X169450000Y-83503072D01*
X169574482Y-83490812D01*
X169694180Y-83454502D01*
X169804494Y-83395537D01*
X169901185Y-83316185D01*
X169980537Y-83219494D01*
X170039502Y-83109180D01*
X170075812Y-82989482D01*
X170088072Y-82865000D01*
X170085000Y-82300750D01*
X169926250Y-82142000D01*
X168727000Y-82142000D01*
X168473000Y-82142000D01*
X168453000Y-82142000D01*
X168453000Y-81888000D01*
X168473000Y-81888000D01*
X168473000Y-80688750D01*
X168727000Y-80688750D01*
X168727000Y-81888000D01*
X169926250Y-81888000D01*
X170085000Y-81729250D01*
X170088072Y-81165000D01*
X170075812Y-81040518D01*
X170039502Y-80920820D01*
X169980537Y-80810506D01*
X169901185Y-80713815D01*
X169804494Y-80634463D01*
X169694180Y-80575498D01*
X169574482Y-80539188D01*
X169450000Y-80526928D01*
X168885750Y-80530000D01*
X168727000Y-80688750D01*
X168473000Y-80688750D01*
X168314250Y-80530000D01*
X167750000Y-80526928D01*
X167625518Y-80539188D01*
X167505820Y-80575498D01*
X167395506Y-80634463D01*
X167298815Y-80713815D01*
X167219463Y-80810506D01*
X167195000Y-80856272D01*
X167195000Y-74283728D01*
X167219463Y-74329494D01*
X167298815Y-74426185D01*
X167395506Y-74505537D01*
X167505820Y-74564502D01*
X167625518Y-74600812D01*
X167750000Y-74613072D01*
X168314250Y-74610000D01*
X168473000Y-74451250D01*
X168473000Y-73252000D01*
X168727000Y-73252000D01*
X168727000Y-74451250D01*
X168885750Y-74610000D01*
X169450000Y-74613072D01*
X169574482Y-74600812D01*
X169694180Y-74564502D01*
X169804494Y-74505537D01*
X169901185Y-74426185D01*
X169980537Y-74329494D01*
X170039502Y-74219180D01*
X170075812Y-74099482D01*
X170088072Y-73975000D01*
X170085000Y-73410750D01*
X169926250Y-73252000D01*
X168727000Y-73252000D01*
X168473000Y-73252000D01*
X168453000Y-73252000D01*
X168453000Y-72998000D01*
X168473000Y-72998000D01*
X168473000Y-71798750D01*
X168727000Y-71798750D01*
X168727000Y-72998000D01*
X169926250Y-72998000D01*
X170085000Y-72839250D01*
X170088072Y-72275000D01*
X170075812Y-72150518D01*
X170039502Y-72030820D01*
X169980537Y-71920506D01*
X169901185Y-71823815D01*
X169804494Y-71744463D01*
X169694180Y-71685498D01*
X169574482Y-71649188D01*
X169450000Y-71636928D01*
X168885750Y-71640000D01*
X168727000Y-71798750D01*
X168473000Y-71798750D01*
X168314250Y-71640000D01*
X167750000Y-71636928D01*
X167625518Y-71649188D01*
X167505820Y-71685498D01*
X167395506Y-71744463D01*
X167298815Y-71823815D01*
X167219463Y-71920506D01*
X167195000Y-71966272D01*
X167195000Y-65393728D01*
X167219463Y-65439494D01*
X167298815Y-65536185D01*
X167395506Y-65615537D01*
X167505820Y-65674502D01*
X167625518Y-65710812D01*
X167750000Y-65723072D01*
X168314250Y-65720000D01*
X168473000Y-65561250D01*
X168473000Y-64362000D01*
X168727000Y-64362000D01*
X168727000Y-65561250D01*
X168885750Y-65720000D01*
X169450000Y-65723072D01*
X169574482Y-65710812D01*
X169694180Y-65674502D01*
X169804494Y-65615537D01*
X169901185Y-65536185D01*
X169980537Y-65439494D01*
X170039502Y-65329180D01*
X170075812Y-65209482D01*
X170088072Y-65085000D01*
X170085000Y-64520750D01*
X169926250Y-64362000D01*
X168727000Y-64362000D01*
X168473000Y-64362000D01*
X168453000Y-64362000D01*
X168453000Y-64108000D01*
X168473000Y-64108000D01*
X168473000Y-62908750D01*
X168727000Y-62908750D01*
X168727000Y-64108000D01*
X169926250Y-64108000D01*
X170085000Y-63949250D01*
X170088072Y-63385000D01*
X170075812Y-63260518D01*
X170039502Y-63140820D01*
X169980537Y-63030506D01*
X169901185Y-62933815D01*
X169804494Y-62854463D01*
X169694180Y-62795498D01*
X169574482Y-62759188D01*
X169450000Y-62746928D01*
X168885750Y-62750000D01*
X168727000Y-62908750D01*
X168473000Y-62908750D01*
X168314250Y-62750000D01*
X167750000Y-62746928D01*
X167625518Y-62759188D01*
X167505820Y-62795498D01*
X167395506Y-62854463D01*
X167298815Y-62933815D01*
X167219463Y-63030506D01*
X167195000Y-63076272D01*
X167195000Y-56503728D01*
X167219463Y-56549494D01*
X167298815Y-56646185D01*
X167395506Y-56725537D01*
X167505820Y-56784502D01*
X167625518Y-56820812D01*
X167750000Y-56833072D01*
X168314250Y-56830000D01*
X168473000Y-56671250D01*
X168473000Y-55472000D01*
X168727000Y-55472000D01*
X168727000Y-56671250D01*
X168885750Y-56830000D01*
X169450000Y-56833072D01*
X169574482Y-56820812D01*
X169694180Y-56784502D01*
X169804494Y-56725537D01*
X169901185Y-56646185D01*
X169980537Y-56549494D01*
X170039502Y-56439180D01*
X170075812Y-56319482D01*
X170088072Y-56195000D01*
X170085000Y-55630750D01*
X169926250Y-55472000D01*
X168727000Y-55472000D01*
X168473000Y-55472000D01*
X168453000Y-55472000D01*
X168453000Y-55218000D01*
X168473000Y-55218000D01*
X168473000Y-54018750D01*
X168727000Y-54018750D01*
X168727000Y-55218000D01*
X169926250Y-55218000D01*
X170085000Y-55059250D01*
X170088072Y-54495000D01*
X170075812Y-54370518D01*
X170039502Y-54250820D01*
X169980537Y-54140506D01*
X169901185Y-54043815D01*
X169804494Y-53964463D01*
X169694180Y-53905498D01*
X169574482Y-53869188D01*
X169450000Y-53856928D01*
X168885750Y-53860000D01*
X168727000Y-54018750D01*
X168473000Y-54018750D01*
X168314250Y-53860000D01*
X167750000Y-53856928D01*
X167625518Y-53869188D01*
X167505820Y-53905498D01*
X167395506Y-53964463D01*
X167298815Y-54043815D01*
X167219463Y-54140506D01*
X167160498Y-54250820D01*
X167139607Y-54319687D01*
X167115134Y-54289866D01*
X166889014Y-54104294D01*
X166631034Y-53966401D01*
X166351111Y-53881487D01*
X166132950Y-53860000D01*
X165987050Y-53860000D01*
X165768889Y-53881487D01*
X165488966Y-53966401D01*
X165230986Y-54104294D01*
X165004866Y-54289866D01*
X164819294Y-54515986D01*
X164790000Y-54570791D01*
X164760706Y-54515986D01*
X164575134Y-54289866D01*
X164349014Y-54104294D01*
X164091034Y-53966401D01*
X163811111Y-53881487D01*
X163592950Y-53860000D01*
X163447050Y-53860000D01*
X163228889Y-53881487D01*
X162948966Y-53966401D01*
X162690986Y-54104294D01*
X162464866Y-54289866D01*
X162279294Y-54515986D01*
X162250000Y-54570791D01*
X162220706Y-54515986D01*
X162035134Y-54289866D01*
X161809014Y-54104294D01*
X161551034Y-53966401D01*
X161271111Y-53881487D01*
X161052950Y-53860000D01*
X160907050Y-53860000D01*
X160688889Y-53881487D01*
X160408966Y-53966401D01*
X160150986Y-54104294D01*
X159924866Y-54289866D01*
X159739294Y-54515986D01*
X159601401Y-54773966D01*
X159516487Y-55053889D01*
X159487815Y-55345000D01*
X159516487Y-55636111D01*
X159601401Y-55916034D01*
X159739294Y-56174014D01*
X159924866Y-56400134D01*
X160150986Y-56585706D01*
X160408966Y-56723599D01*
X160688889Y-56808513D01*
X160907050Y-56830000D01*
X161052950Y-56830000D01*
X161271111Y-56808513D01*
X161551034Y-56723599D01*
X161809014Y-56585706D01*
X162035134Y-56400134D01*
X162220706Y-56174014D01*
X162250000Y-56119209D01*
X162279294Y-56174014D01*
X162464866Y-56400134D01*
X162690986Y-56585706D01*
X162948966Y-56723599D01*
X163228889Y-56808513D01*
X163447050Y-56830000D01*
X163592950Y-56830000D01*
X163811111Y-56808513D01*
X164091034Y-56723599D01*
X164349014Y-56585706D01*
X164575134Y-56400134D01*
X164760706Y-56174014D01*
X164790000Y-56119209D01*
X164819294Y-56174014D01*
X164925001Y-56302818D01*
X164925000Y-63277183D01*
X164819294Y-63405986D01*
X164790000Y-63460791D01*
X164760706Y-63405986D01*
X164575134Y-63179866D01*
X164349014Y-62994294D01*
X164091034Y-62856401D01*
X163811111Y-62771487D01*
X163592950Y-62750000D01*
X163447050Y-62750000D01*
X163228889Y-62771487D01*
X162948966Y-62856401D01*
X162690986Y-62994294D01*
X162464866Y-63179866D01*
X162279294Y-63405986D01*
X162250000Y-63460791D01*
X162220706Y-63405986D01*
X162035134Y-63179866D01*
X161809014Y-62994294D01*
X161551034Y-62856401D01*
X161271111Y-62771487D01*
X161052950Y-62750000D01*
X160907050Y-62750000D01*
X160688889Y-62771487D01*
X160408966Y-62856401D01*
X160150986Y-62994294D01*
X159924866Y-63179866D01*
X159739294Y-63405986D01*
X159601401Y-63663966D01*
X159516487Y-63943889D01*
X159487815Y-64235000D01*
X159516487Y-64526111D01*
X159601401Y-64806034D01*
X159739294Y-65064014D01*
X159924866Y-65290134D01*
X160150986Y-65475706D01*
X160408966Y-65613599D01*
X160688889Y-65698513D01*
X160907050Y-65720000D01*
X161052950Y-65720000D01*
X161271111Y-65698513D01*
X161551034Y-65613599D01*
X161809014Y-65475706D01*
X162035134Y-65290134D01*
X162220706Y-65064014D01*
X162250000Y-65009209D01*
X162279294Y-65064014D01*
X162464866Y-65290134D01*
X162690986Y-65475706D01*
X162948966Y-65613599D01*
X163228889Y-65698513D01*
X163447050Y-65720000D01*
X163592950Y-65720000D01*
X163811111Y-65698513D01*
X164091034Y-65613599D01*
X164349014Y-65475706D01*
X164575134Y-65290134D01*
X164760706Y-65064014D01*
X164790000Y-65009209D01*
X164819294Y-65064014D01*
X164925001Y-65192818D01*
X164925000Y-72167183D01*
X164819294Y-72295986D01*
X164790000Y-72350791D01*
X164760706Y-72295986D01*
X164575134Y-72069866D01*
X164349014Y-71884294D01*
X164091034Y-71746401D01*
X163811111Y-71661487D01*
X163592950Y-71640000D01*
X163447050Y-71640000D01*
X163300967Y-71654388D01*
X160676534Y-69029956D01*
X160648817Y-68996183D01*
X160514059Y-68885589D01*
X160360313Y-68803411D01*
X160193490Y-68752805D01*
X160063477Y-68740000D01*
X160063469Y-68740000D01*
X160020000Y-68735719D01*
X159976531Y-68740000D01*
X157540652Y-68740000D01*
X157497183Y-68735719D01*
X157453714Y-68740000D01*
X157453706Y-68740000D01*
X157323693Y-68752805D01*
X157156869Y-68803411D01*
X157003124Y-68885589D01*
X156902136Y-68968468D01*
X156902134Y-68968470D01*
X156868366Y-68996183D01*
X156840653Y-69029951D01*
X155179951Y-70690654D01*
X155146184Y-70718366D01*
X155118471Y-70752134D01*
X155118468Y-70752137D01*
X155035590Y-70853124D01*
X154953412Y-71006870D01*
X154902805Y-71173693D01*
X154897574Y-71226808D01*
X154890000Y-71303706D01*
X154890000Y-71303714D01*
X154886674Y-71337482D01*
X154854550Y-71369606D01*
X154724866Y-71563692D01*
X154635539Y-71779348D01*
X154590000Y-72008288D01*
X154590000Y-72241712D01*
X154635539Y-72470652D01*
X154724866Y-72686308D01*
X154854550Y-72880394D01*
X155019606Y-73045450D01*
X155213692Y-73175134D01*
X155429348Y-73264461D01*
X155658288Y-73310000D01*
X155891712Y-73310000D01*
X156120652Y-73264461D01*
X156336308Y-73175134D01*
X156530394Y-73045450D01*
X156695450Y-72880394D01*
X156825134Y-72686308D01*
X156914461Y-72470652D01*
X156960000Y-72241712D01*
X156960000Y-72008288D01*
X156914461Y-71779348D01*
X156825134Y-71563692D01*
X156819100Y-71554661D01*
X157863762Y-70510000D01*
X159653422Y-70510000D01*
X160794506Y-71651085D01*
X160688889Y-71661487D01*
X160408966Y-71746401D01*
X160150986Y-71884294D01*
X159924866Y-72069866D01*
X159739294Y-72295986D01*
X159601401Y-72553966D01*
X159516487Y-72833889D01*
X159487815Y-73125000D01*
X159516487Y-73416111D01*
X159601401Y-73696034D01*
X159739294Y-73954014D01*
X159924866Y-74180134D01*
X160095001Y-74319760D01*
X160095000Y-80820241D01*
X159924866Y-80959866D01*
X159739294Y-81185986D01*
X159601401Y-81443966D01*
X159516487Y-81723889D01*
X159487815Y-82015000D01*
X159516487Y-82306111D01*
X159601401Y-82586034D01*
X159739294Y-82844014D01*
X159838585Y-82965000D01*
X159466579Y-82965000D01*
X154185000Y-77683422D01*
X154185000Y-77633288D01*
X154139461Y-77404348D01*
X154050134Y-77188692D01*
X153920450Y-76994606D01*
X153755394Y-76829550D01*
X153561308Y-76699866D01*
X153345652Y-76610539D01*
X153116712Y-76565000D01*
X152883288Y-76565000D01*
X152654348Y-76610539D01*
X152438692Y-76699866D01*
X152244606Y-76829550D01*
X152079550Y-76994606D01*
X151949866Y-77188692D01*
X151860539Y-77404348D01*
X151815000Y-77633288D01*
X151815000Y-77866712D01*
X151860539Y-78095652D01*
X151949866Y-78311308D01*
X152079550Y-78505394D01*
X152244606Y-78670450D01*
X152438692Y-78800134D01*
X152654348Y-78889461D01*
X152883288Y-78935000D01*
X152933422Y-78935000D01*
X158443470Y-84445049D01*
X158471183Y-84478817D01*
X158504951Y-84506530D01*
X158504953Y-84506532D01*
X158587080Y-84573932D01*
X158605941Y-84589411D01*
X158759687Y-84671589D01*
X158926510Y-84722195D01*
X159056523Y-84735000D01*
X159056531Y-84735000D01*
X159100000Y-84739281D01*
X159143469Y-84735000D01*
X162843612Y-84735000D01*
X162887081Y-84739281D01*
X162930550Y-84735000D01*
X162930558Y-84735000D01*
X162937648Y-84734302D01*
X162906950Y-84765000D01*
X151858051Y-84765000D01*
X150595033Y-83501983D01*
X150959250Y-83500000D01*
X151118000Y-83341250D01*
X151118000Y-82142000D01*
X151372000Y-82142000D01*
X151372000Y-83341250D01*
X151530750Y-83500000D01*
X152095000Y-83503072D01*
X152219482Y-83490812D01*
X152339180Y-83454502D01*
X152449494Y-83395537D01*
X152546185Y-83316185D01*
X152625537Y-83219494D01*
X152684502Y-83109180D01*
X152720812Y-82989482D01*
X152733072Y-82865000D01*
X152730000Y-82300750D01*
X152571250Y-82142000D01*
X151372000Y-82142000D01*
X151118000Y-82142000D01*
X151098000Y-82142000D01*
X151098000Y-81888000D01*
X151118000Y-81888000D01*
X151118000Y-80688750D01*
X151372000Y-80688750D01*
X151372000Y-81888000D01*
X152571250Y-81888000D01*
X152730000Y-81729250D01*
X152733072Y-81165000D01*
X152720812Y-81040518D01*
X152684502Y-80920820D01*
X152625537Y-80810506D01*
X152546185Y-80713815D01*
X152449494Y-80634463D01*
X152339180Y-80575498D01*
X152219482Y-80539188D01*
X152095000Y-80526928D01*
X151530750Y-80530000D01*
X151372000Y-80688750D01*
X151118000Y-80688750D01*
X150959250Y-80530000D01*
X150395000Y-80526928D01*
X150270518Y-80539188D01*
X150150820Y-80575498D01*
X150040506Y-80634463D01*
X149943815Y-80713815D01*
X149864463Y-80810506D01*
X149840000Y-80856272D01*
X149840000Y-74283728D01*
X149864463Y-74329494D01*
X149943815Y-74426185D01*
X150040506Y-74505537D01*
X150150820Y-74564502D01*
X150270518Y-74600812D01*
X150395000Y-74613072D01*
X150959250Y-74610000D01*
X151118000Y-74451250D01*
X151118000Y-73252000D01*
X151372000Y-73252000D01*
X151372000Y-74451250D01*
X151530750Y-74610000D01*
X152095000Y-74613072D01*
X152219482Y-74600812D01*
X152339180Y-74564502D01*
X152449494Y-74505537D01*
X152546185Y-74426185D01*
X152625537Y-74329494D01*
X152684502Y-74219180D01*
X152720812Y-74099482D01*
X152733072Y-73975000D01*
X152730000Y-73410750D01*
X152571250Y-73252000D01*
X151372000Y-73252000D01*
X151118000Y-73252000D01*
X151098000Y-73252000D01*
X151098000Y-72998000D01*
X151118000Y-72998000D01*
X151118000Y-71798750D01*
X151372000Y-71798750D01*
X151372000Y-72998000D01*
X152571250Y-72998000D01*
X152730000Y-72839250D01*
X152733072Y-72275000D01*
X152720812Y-72150518D01*
X152684502Y-72030820D01*
X152625537Y-71920506D01*
X152546185Y-71823815D01*
X152449494Y-71744463D01*
X152339180Y-71685498D01*
X152219482Y-71649188D01*
X152095000Y-71636928D01*
X151530750Y-71640000D01*
X151372000Y-71798750D01*
X151118000Y-71798750D01*
X150959250Y-71640000D01*
X150395000Y-71636928D01*
X150270518Y-71649188D01*
X150150820Y-71685498D01*
X150040506Y-71744463D01*
X149943815Y-71823815D01*
X149864463Y-71920506D01*
X149840000Y-71966272D01*
X149840000Y-65393728D01*
X149864463Y-65439494D01*
X149943815Y-65536185D01*
X150040506Y-65615537D01*
X150150820Y-65674502D01*
X150270518Y-65710812D01*
X150395000Y-65723072D01*
X150959250Y-65720000D01*
X151118000Y-65561250D01*
X151118000Y-64362000D01*
X151372000Y-64362000D01*
X151372000Y-65561250D01*
X151530750Y-65720000D01*
X152095000Y-65723072D01*
X152219482Y-65710812D01*
X152339180Y-65674502D01*
X152449494Y-65615537D01*
X152546185Y-65536185D01*
X152625537Y-65439494D01*
X152684502Y-65329180D01*
X152720812Y-65209482D01*
X152733072Y-65085000D01*
X152730000Y-64520750D01*
X152571250Y-64362000D01*
X151372000Y-64362000D01*
X151118000Y-64362000D01*
X151098000Y-64362000D01*
X151098000Y-64108000D01*
X151118000Y-64108000D01*
X151118000Y-62908750D01*
X151372000Y-62908750D01*
X151372000Y-64108000D01*
X152571250Y-64108000D01*
X152730000Y-63949250D01*
X152733072Y-63385000D01*
X152720812Y-63260518D01*
X152684502Y-63140820D01*
X152625537Y-63030506D01*
X152546185Y-62933815D01*
X152449494Y-62854463D01*
X152339180Y-62795498D01*
X152219482Y-62759188D01*
X152095000Y-62746928D01*
X151530750Y-62750000D01*
X151372000Y-62908750D01*
X151118000Y-62908750D01*
X150959250Y-62750000D01*
X150395000Y-62746928D01*
X150270518Y-62759188D01*
X150150820Y-62795498D01*
X150040506Y-62854463D01*
X149943815Y-62933815D01*
X149864463Y-63030506D01*
X149840000Y-63076272D01*
X149840000Y-56503728D01*
X149864463Y-56549494D01*
X149943815Y-56646185D01*
X150040506Y-56725537D01*
X150150820Y-56784502D01*
X150270518Y-56820812D01*
X150395000Y-56833072D01*
X150959250Y-56830000D01*
X151118000Y-56671250D01*
X151118000Y-55472000D01*
X151372000Y-55472000D01*
X151372000Y-56671250D01*
X151530750Y-56830000D01*
X152095000Y-56833072D01*
X152219482Y-56820812D01*
X152339180Y-56784502D01*
X152449494Y-56725537D01*
X152546185Y-56646185D01*
X152625537Y-56549494D01*
X152684502Y-56439180D01*
X152720812Y-56319482D01*
X152733072Y-56195000D01*
X152730000Y-55630750D01*
X152571250Y-55472000D01*
X151372000Y-55472000D01*
X151118000Y-55472000D01*
X151098000Y-55472000D01*
X151098000Y-55218000D01*
X151118000Y-55218000D01*
X151118000Y-54018750D01*
X151372000Y-54018750D01*
X151372000Y-55218000D01*
X152571250Y-55218000D01*
X152730000Y-55059250D01*
X152733072Y-54495000D01*
X152720812Y-54370518D01*
X152684502Y-54250820D01*
X152625537Y-54140506D01*
X152546185Y-54043815D01*
X152449494Y-53964463D01*
X152339180Y-53905498D01*
X152219482Y-53869188D01*
X152095000Y-53856928D01*
X151530750Y-53860000D01*
X151372000Y-54018750D01*
X151118000Y-54018750D01*
X150959250Y-53860000D01*
X150395000Y-53856928D01*
X150270518Y-53869188D01*
X150150820Y-53905498D01*
X150040506Y-53964463D01*
X149943815Y-54043815D01*
X149864463Y-54140506D01*
X149805498Y-54250820D01*
X149784607Y-54319687D01*
X149760134Y-54289866D01*
X149534014Y-54104294D01*
X149276034Y-53966401D01*
X148996111Y-53881487D01*
X148777950Y-53860000D01*
X148632050Y-53860000D01*
X148413889Y-53881487D01*
X148133966Y-53966401D01*
X147875986Y-54104294D01*
X147649866Y-54289866D01*
X147464294Y-54515986D01*
X147435000Y-54570791D01*
X147405706Y-54515986D01*
X147220134Y-54289866D01*
X146994014Y-54104294D01*
X146736034Y-53966401D01*
X146456111Y-53881487D01*
X146237950Y-53860000D01*
X146092050Y-53860000D01*
X145873889Y-53881487D01*
X145593966Y-53966401D01*
X145335986Y-54104294D01*
X145109866Y-54289866D01*
X144924294Y-54515986D01*
X144895000Y-54570791D01*
X144865706Y-54515986D01*
X144680134Y-54289866D01*
X144454014Y-54104294D01*
X144196034Y-53966401D01*
X143916111Y-53881487D01*
X143697950Y-53860000D01*
X143552050Y-53860000D01*
X143333889Y-53881487D01*
X143053966Y-53966401D01*
X142795986Y-54104294D01*
X142569866Y-54289866D01*
X142384294Y-54515986D01*
X142246401Y-54773966D01*
X142161487Y-55053889D01*
X142136262Y-55309999D01*
X140223466Y-55309999D01*
X140180000Y-55305718D01*
X140136534Y-55309999D01*
X140136524Y-55309999D01*
X140006511Y-55322804D01*
X139839688Y-55373410D01*
X139685942Y-55455588D01*
X139665944Y-55472000D01*
X139584954Y-55538467D01*
X139584952Y-55538469D01*
X139551184Y-55566182D01*
X139523471Y-55599950D01*
X137083422Y-58040000D01*
X128593469Y-58040000D01*
X128550000Y-58035719D01*
X128506531Y-58040000D01*
X128506523Y-58040000D01*
X128391306Y-58051348D01*
X128376509Y-58052805D01*
X128325903Y-58068157D01*
X128209687Y-58103411D01*
X128055941Y-58185589D01*
X128055939Y-58185590D01*
X128055940Y-58185590D01*
X127954953Y-58268468D01*
X127954951Y-58268470D01*
X127921183Y-58296183D01*
X127893470Y-58329951D01*
X125079956Y-61143466D01*
X125046183Y-61171183D01*
X124935589Y-61305942D01*
X124853411Y-61459688D01*
X124802805Y-61626511D01*
X124790000Y-61756524D01*
X124790000Y-61756531D01*
X124785719Y-61800000D01*
X124790000Y-61843469D01*
X124790001Y-64923420D01*
X124258178Y-65455243D01*
X124244236Y-65313691D01*
X124162182Y-65043192D01*
X124028932Y-64793899D01*
X123849608Y-64575392D01*
X123631101Y-64396068D01*
X123498142Y-64325000D01*
X123631101Y-64253932D01*
X123849608Y-64074608D01*
X124028932Y-63856101D01*
X124162182Y-63606808D01*
X124244236Y-63336309D01*
X124271943Y-63055000D01*
X124244236Y-62773691D01*
X124162182Y-62503192D01*
X124028932Y-62253899D01*
X123849608Y-62035392D01*
X123631101Y-61856068D01*
X123381808Y-61722818D01*
X123111309Y-61640764D01*
X122900492Y-61620000D01*
X122759508Y-61620000D01*
X122548691Y-61640764D01*
X122278192Y-61722818D01*
X122028899Y-61856068D01*
X121810392Y-62035392D01*
X121631068Y-62253899D01*
X121497818Y-62503192D01*
X121415764Y-62773691D01*
X121388057Y-63055000D01*
X121415764Y-63336309D01*
X121497818Y-63606808D01*
X121631068Y-63856101D01*
X121810392Y-64074608D01*
X122028899Y-64253932D01*
X122161858Y-64325000D01*
X122028899Y-64396068D01*
X121810392Y-64575392D01*
X121631068Y-64793899D01*
X121497818Y-65043192D01*
X121415764Y-65313691D01*
X121388057Y-65595000D01*
X121415764Y-65876309D01*
X121455768Y-66008188D01*
X117922535Y-62474955D01*
X117894818Y-62441182D01*
X117760060Y-62330588D01*
X117606314Y-62248410D01*
X117439491Y-62197804D01*
X117309478Y-62184999D01*
X117309470Y-62184999D01*
X117266001Y-62180718D01*
X117222532Y-62184999D01*
X115393470Y-62184999D01*
X115350001Y-62180718D01*
X115306532Y-62184999D01*
X115306524Y-62184999D01*
X115176511Y-62197804D01*
X115009687Y-62248410D01*
X114855942Y-62330588D01*
X114754954Y-62413467D01*
X114754952Y-62413469D01*
X114721184Y-62441182D01*
X114693471Y-62474950D01*
X114386493Y-62781928D01*
X113300000Y-62781928D01*
X113175518Y-62794188D01*
X113055820Y-62830498D01*
X112945506Y-62889463D01*
X112848815Y-62968815D01*
X112769463Y-63065506D01*
X112710498Y-63175820D01*
X112674188Y-63295518D01*
X112661928Y-63420000D01*
X112661928Y-65120000D01*
X112674188Y-65244482D01*
X112710498Y-65364180D01*
X112769463Y-65474494D01*
X112848815Y-65571185D01*
X112945506Y-65650537D01*
X113055820Y-65709502D01*
X113124687Y-65730393D01*
X113094866Y-65754866D01*
X112909294Y-65980986D01*
X112771401Y-66238966D01*
X112686487Y-66518889D01*
X112657815Y-66810000D01*
X112686487Y-67101111D01*
X112771401Y-67381034D01*
X112909294Y-67639014D01*
X113094866Y-67865134D01*
X113320986Y-68050706D01*
X113375791Y-68080000D01*
X113320986Y-68109294D01*
X113094866Y-68294866D01*
X112909294Y-68520986D01*
X112771401Y-68778966D01*
X112686487Y-69058889D01*
X112657815Y-69350000D01*
X112686487Y-69641111D01*
X112771401Y-69921034D01*
X112909294Y-70179014D01*
X113072555Y-70377948D01*
X111979956Y-71470547D01*
X111946183Y-71498264D01*
X111835589Y-71633023D01*
X111753411Y-71786769D01*
X111702805Y-71953592D01*
X111690000Y-72083605D01*
X111690000Y-72083612D01*
X111685719Y-72127081D01*
X111690000Y-72170550D01*
X111690001Y-85420735D01*
X111628817Y-85346183D01*
X111595051Y-85318472D01*
X105810000Y-79533422D01*
X105810000Y-79509521D01*
X105839759Y-79489637D01*
X106039637Y-79289759D01*
X106196680Y-79054727D01*
X106304853Y-78793574D01*
X106360000Y-78516335D01*
X106360000Y-78233665D01*
X106304853Y-77956426D01*
X106196680Y-77695273D01*
X106039637Y-77460241D01*
X105839759Y-77260363D01*
X105604727Y-77103320D01*
X105343574Y-76995147D01*
X105066335Y-76940000D01*
X104783665Y-76940000D01*
X104506426Y-76995147D01*
X104245273Y-77103320D01*
X104010241Y-77260363D01*
X103810363Y-77460241D01*
X103676308Y-77660869D01*
X103661671Y-77633486D01*
X103417702Y-77561903D01*
X102604605Y-78375000D01*
X102245395Y-78375000D01*
X101432298Y-77561903D01*
X101188329Y-77633486D01*
X101067429Y-77888996D01*
X100998700Y-78163184D01*
X100984783Y-78445512D01*
X100375213Y-78445512D01*
X100453445Y-78187618D01*
X100485013Y-77867102D01*
X100453445Y-77546586D01*
X100403609Y-77382298D01*
X101611903Y-77382298D01*
X102425000Y-78195395D01*
X103238097Y-77382298D01*
X103166514Y-77138329D01*
X102911004Y-77017429D01*
X102636816Y-76948700D01*
X102354488Y-76934783D01*
X102074870Y-76976213D01*
X101808708Y-77071397D01*
X101683486Y-77138329D01*
X101611903Y-77382298D01*
X100403609Y-77382298D01*
X100359954Y-77238387D01*
X100208133Y-76954350D01*
X100003816Y-76705388D01*
X99754854Y-76501071D01*
X99470817Y-76349250D01*
X99162618Y-76255759D01*
X98922424Y-76232102D01*
X98761780Y-76232102D01*
X98521586Y-76255759D01*
X98213387Y-76349250D01*
X97929350Y-76501071D01*
X97680388Y-76705388D01*
X97476071Y-76954350D01*
X97324250Y-77238387D01*
X97230759Y-77546586D01*
X97199191Y-77867102D01*
X92127000Y-77867102D01*
X92127000Y-71208288D01*
X93090000Y-71208288D01*
X93090000Y-71441712D01*
X93135539Y-71670652D01*
X93224866Y-71886308D01*
X93354550Y-72080394D01*
X93519606Y-72245450D01*
X93713692Y-72375134D01*
X93929348Y-72464461D01*
X94158288Y-72510000D01*
X94391712Y-72510000D01*
X94620652Y-72464461D01*
X94836308Y-72375134D01*
X94860553Y-72358934D01*
X94798815Y-72409601D01*
X93384601Y-73823815D01*
X93305249Y-73920506D01*
X93246284Y-74030820D01*
X93209974Y-74150518D01*
X93197714Y-74275000D01*
X93209974Y-74399482D01*
X93246284Y-74519180D01*
X93305249Y-74629494D01*
X93384601Y-74726185D01*
X94798815Y-76140399D01*
X94895506Y-76219751D01*
X95005820Y-76278716D01*
X95125518Y-76315026D01*
X95250000Y-76327286D01*
X95374482Y-76315026D01*
X95494180Y-76278716D01*
X95604494Y-76219751D01*
X95701185Y-76140399D01*
X96681584Y-75160000D01*
X101752962Y-75160000D01*
X101845273Y-75221680D01*
X102106426Y-75329853D01*
X102383665Y-75385000D01*
X102666335Y-75385000D01*
X102943574Y-75329853D01*
X103204727Y-75221680D01*
X103439759Y-75064637D01*
X103639637Y-74864759D01*
X103796680Y-74629727D01*
X103801357Y-74618435D01*
X103833963Y-74687420D01*
X104001481Y-74913414D01*
X104209869Y-75102385D01*
X104451119Y-75247070D01*
X104715960Y-75341909D01*
X104938000Y-75220624D01*
X104938000Y-74077000D01*
X105192000Y-74077000D01*
X105192000Y-75220624D01*
X105414040Y-75341909D01*
X105678881Y-75247070D01*
X105920131Y-75102385D01*
X106128519Y-74913414D01*
X106296037Y-74687420D01*
X106416246Y-74433087D01*
X106456904Y-74299039D01*
X106334915Y-74077000D01*
X105192000Y-74077000D01*
X104938000Y-74077000D01*
X104918000Y-74077000D01*
X104918000Y-73823000D01*
X104938000Y-73823000D01*
X104938000Y-72679376D01*
X105192000Y-72679376D01*
X105192000Y-73823000D01*
X106334915Y-73823000D01*
X106456904Y-73600961D01*
X106416246Y-73466913D01*
X106296037Y-73212580D01*
X106128519Y-72986586D01*
X105920131Y-72797615D01*
X105678881Y-72652930D01*
X105414040Y-72558091D01*
X105192000Y-72679376D01*
X104938000Y-72679376D01*
X104715960Y-72558091D01*
X104451119Y-72652930D01*
X104209869Y-72797615D01*
X104001481Y-72986586D01*
X103833963Y-73212580D01*
X103801357Y-73281565D01*
X103796680Y-73270273D01*
X103639637Y-73035241D01*
X103439759Y-72835363D01*
X103410000Y-72815479D01*
X103410000Y-72564576D01*
X106385009Y-69589568D01*
X106485363Y-69739759D01*
X106685241Y-69939637D01*
X106920273Y-70096680D01*
X107181426Y-70204853D01*
X107458665Y-70260000D01*
X107741335Y-70260000D01*
X108018574Y-70204853D01*
X108279727Y-70096680D01*
X108514759Y-69939637D01*
X108714637Y-69739759D01*
X108871680Y-69504727D01*
X108979853Y-69243574D01*
X109035000Y-68966335D01*
X109035000Y-68683665D01*
X108979853Y-68406426D01*
X108871680Y-68145273D01*
X108800902Y-68039346D01*
X108808535Y-68030045D01*
X110995050Y-65843531D01*
X111028817Y-65815819D01*
X111078731Y-65755000D01*
X111139411Y-65681061D01*
X111221589Y-65527316D01*
X111272195Y-65360492D01*
X111275677Y-65325134D01*
X111285000Y-65230479D01*
X111285000Y-65230471D01*
X111289281Y-65187002D01*
X111285000Y-65143533D01*
X111285000Y-63509521D01*
X111314759Y-63489637D01*
X111514637Y-63289759D01*
X111671680Y-63054727D01*
X111779853Y-62793574D01*
X111835000Y-62516335D01*
X111835000Y-62233665D01*
X111779853Y-61956426D01*
X111671680Y-61695273D01*
X111514637Y-61460241D01*
X111314759Y-61260363D01*
X111079727Y-61103320D01*
X110818574Y-60995147D01*
X110541335Y-60940000D01*
X110258665Y-60940000D01*
X109981426Y-60995147D01*
X109720273Y-61103320D01*
X109485241Y-61260363D01*
X109285363Y-61460241D01*
X109151308Y-61660869D01*
X109136671Y-61633486D01*
X108892702Y-61561903D01*
X108079605Y-62375000D01*
X108892702Y-63188097D01*
X109136671Y-63116514D01*
X109150324Y-63087659D01*
X109285363Y-63289759D01*
X109485241Y-63489637D01*
X109515000Y-63509521D01*
X109515000Y-63549846D01*
X109515001Y-63549856D01*
X109515000Y-64820423D01*
X108817251Y-65518172D01*
X108798932Y-65483899D01*
X108619608Y-65265392D01*
X108401101Y-65086068D01*
X108151808Y-64952818D01*
X107881309Y-64870764D01*
X107670492Y-64850000D01*
X107529508Y-64850000D01*
X107318691Y-64870764D01*
X107048192Y-64952818D01*
X106798899Y-65086068D01*
X106580392Y-65265392D01*
X106401068Y-65483899D01*
X106267818Y-65733192D01*
X106185764Y-66003691D01*
X106158057Y-66285000D01*
X106185764Y-66566309D01*
X106267818Y-66836808D01*
X106395582Y-67075837D01*
X104145825Y-69325594D01*
X104139236Y-69258691D01*
X104057182Y-68988192D01*
X103923932Y-68738899D01*
X103744608Y-68520392D01*
X103526101Y-68341068D01*
X103399971Y-68273650D01*
X103404727Y-68271680D01*
X103639759Y-68114637D01*
X103839637Y-67914759D01*
X103996680Y-67679727D01*
X104104853Y-67418574D01*
X104160000Y-67141335D01*
X104160000Y-66858665D01*
X104104853Y-66581426D01*
X103996680Y-66320273D01*
X103839637Y-66085241D01*
X103639759Y-65885363D01*
X103404727Y-65728320D01*
X103143574Y-65620147D01*
X102866335Y-65565000D01*
X102583665Y-65565000D01*
X102306426Y-65620147D01*
X102045273Y-65728320D01*
X101810241Y-65885363D01*
X101610363Y-66085241D01*
X101453320Y-66320273D01*
X101345147Y-66581426D01*
X101290000Y-66858665D01*
X101290000Y-67141335D01*
X101345147Y-67418574D01*
X101453320Y-67679727D01*
X101610363Y-67914759D01*
X101810241Y-68114637D01*
X102045273Y-68271680D01*
X102050029Y-68273650D01*
X101923899Y-68341068D01*
X101705392Y-68520392D01*
X101526068Y-68738899D01*
X101392818Y-68988192D01*
X101310764Y-69258691D01*
X101283057Y-69540000D01*
X101300125Y-69713296D01*
X100573422Y-70440000D01*
X95065844Y-70440000D01*
X95030394Y-70404550D01*
X94836308Y-70274866D01*
X94620652Y-70185539D01*
X94391712Y-70140000D01*
X94158288Y-70140000D01*
X93929348Y-70185539D01*
X93713692Y-70274866D01*
X93519606Y-70404550D01*
X93354550Y-70569606D01*
X93224866Y-70763692D01*
X93135539Y-70979348D01*
X93090000Y-71208288D01*
X92127000Y-71208288D01*
X92127000Y-68359281D01*
X92177818Y-68526808D01*
X92311068Y-68776101D01*
X92490392Y-68994608D01*
X92708899Y-69173932D01*
X92958192Y-69307182D01*
X93228691Y-69389236D01*
X93439508Y-69410000D01*
X93580492Y-69410000D01*
X93791309Y-69389236D01*
X94061808Y-69307182D01*
X94311101Y-69173932D01*
X94529608Y-68994608D01*
X94708932Y-68776101D01*
X94776350Y-68649971D01*
X94778320Y-68654727D01*
X94935363Y-68889759D01*
X95135241Y-69089637D01*
X95370273Y-69246680D01*
X95631426Y-69354853D01*
X95908665Y-69410000D01*
X96191335Y-69410000D01*
X96468574Y-69354853D01*
X96729727Y-69246680D01*
X96964759Y-69089637D01*
X97164637Y-68889759D01*
X97321680Y-68654727D01*
X97429853Y-68393574D01*
X97485000Y-68116335D01*
X97485000Y-67833665D01*
X97429853Y-67556426D01*
X97321680Y-67295273D01*
X97164637Y-67060241D01*
X96964759Y-66860363D01*
X96729727Y-66703320D01*
X96468574Y-66595147D01*
X96191335Y-66540000D01*
X95908665Y-66540000D01*
X95631426Y-66595147D01*
X95370273Y-66703320D01*
X95135241Y-66860363D01*
X94935363Y-67060241D01*
X94778320Y-67295273D01*
X94776350Y-67300029D01*
X94708932Y-67173899D01*
X94529608Y-66955392D01*
X94311101Y-66776068D01*
X94061808Y-66642818D01*
X93791309Y-66560764D01*
X93580492Y-66540000D01*
X93439508Y-66540000D01*
X93228691Y-66560764D01*
X92958192Y-66642818D01*
X92708899Y-66776068D01*
X92490392Y-66955392D01*
X92311068Y-67173899D01*
X92177818Y-67423192D01*
X92127000Y-67590719D01*
X92127000Y-62575000D01*
X92261928Y-62575000D01*
X92274188Y-62699482D01*
X92310498Y-62819180D01*
X92369463Y-62929494D01*
X92448815Y-63026185D01*
X92545506Y-63105537D01*
X92655820Y-63164502D01*
X92674127Y-63170056D01*
X92607688Y-63236495D01*
X92439701Y-63487905D01*
X92323989Y-63767257D01*
X92265000Y-64063816D01*
X92265000Y-64366184D01*
X92323989Y-64662743D01*
X92439701Y-64942095D01*
X92607688Y-65193505D01*
X92821495Y-65407312D01*
X93072905Y-65575299D01*
X93352257Y-65691011D01*
X93648816Y-65750000D01*
X93951184Y-65750000D01*
X94247743Y-65691011D01*
X94527095Y-65575299D01*
X94778505Y-65407312D01*
X94992312Y-65193505D01*
X95160299Y-64942095D01*
X95276011Y-64662743D01*
X95335000Y-64366184D01*
X95335000Y-64063816D01*
X95276011Y-63767257D01*
X95160299Y-63487905D01*
X94992312Y-63236495D01*
X94925873Y-63170056D01*
X94944180Y-63164502D01*
X95054494Y-63105537D01*
X95151185Y-63026185D01*
X95230537Y-62929494D01*
X95289502Y-62819180D01*
X95325812Y-62699482D01*
X95338072Y-62575000D01*
X95335000Y-61960750D01*
X95176250Y-61802000D01*
X93927000Y-61802000D01*
X93927000Y-61822000D01*
X93673000Y-61822000D01*
X93673000Y-61802000D01*
X92423750Y-61802000D01*
X92265000Y-61960750D01*
X92261928Y-62575000D01*
X92127000Y-62575000D01*
X92127000Y-60775000D01*
X92261928Y-60775000D01*
X92265000Y-61389250D01*
X92423750Y-61548000D01*
X93673000Y-61548000D01*
X93673000Y-60298750D01*
X93927000Y-60298750D01*
X93927000Y-61548000D01*
X95176250Y-61548000D01*
X95335000Y-61389250D01*
X95338072Y-60775000D01*
X96236928Y-60775000D01*
X96236928Y-62575000D01*
X96249188Y-62699482D01*
X96285498Y-62819180D01*
X96344463Y-62929494D01*
X96423815Y-63026185D01*
X96520506Y-63105537D01*
X96630820Y-63164502D01*
X96649127Y-63170056D01*
X96582688Y-63236495D01*
X96414701Y-63487905D01*
X96298989Y-63767257D01*
X96240000Y-64063816D01*
X96240000Y-64366184D01*
X96298989Y-64662743D01*
X96414701Y-64942095D01*
X96582688Y-65193505D01*
X96796495Y-65407312D01*
X97047905Y-65575299D01*
X97327257Y-65691011D01*
X97623816Y-65750000D01*
X97926184Y-65750000D01*
X98222743Y-65691011D01*
X98502095Y-65575299D01*
X98753505Y-65407312D01*
X98967312Y-65193505D01*
X99135299Y-64942095D01*
X99251011Y-64662743D01*
X99310000Y-64366184D01*
X99310000Y-64063816D01*
X99251011Y-63767257D01*
X99135299Y-63487905D01*
X99054982Y-63367702D01*
X107086903Y-63367702D01*
X107158486Y-63611671D01*
X107413996Y-63732571D01*
X107688184Y-63801300D01*
X107970512Y-63815217D01*
X108250130Y-63773787D01*
X108516292Y-63678603D01*
X108641514Y-63611671D01*
X108713097Y-63367702D01*
X107900000Y-62554605D01*
X107086903Y-63367702D01*
X99054982Y-63367702D01*
X98967312Y-63236495D01*
X98900873Y-63170056D01*
X98919180Y-63164502D01*
X99029494Y-63105537D01*
X99126185Y-63026185D01*
X99205537Y-62929494D01*
X99264502Y-62819180D01*
X99300812Y-62699482D01*
X99313072Y-62575000D01*
X99313072Y-62445512D01*
X106459783Y-62445512D01*
X106501213Y-62725130D01*
X106596397Y-62991292D01*
X106663329Y-63116514D01*
X106907298Y-63188097D01*
X107720395Y-62375000D01*
X106907298Y-61561903D01*
X106663329Y-61633486D01*
X106542429Y-61888996D01*
X106473700Y-62163184D01*
X106459783Y-62445512D01*
X99313072Y-62445512D01*
X99313072Y-60775000D01*
X99300812Y-60650518D01*
X99264502Y-60530820D01*
X99205537Y-60420506D01*
X99126185Y-60323815D01*
X99029494Y-60244463D01*
X98919180Y-60185498D01*
X98799482Y-60149188D01*
X98675000Y-60136928D01*
X96875000Y-60136928D01*
X96750518Y-60149188D01*
X96630820Y-60185498D01*
X96520506Y-60244463D01*
X96423815Y-60323815D01*
X96344463Y-60420506D01*
X96285498Y-60530820D01*
X96249188Y-60650518D01*
X96236928Y-60775000D01*
X95338072Y-60775000D01*
X95325812Y-60650518D01*
X95289502Y-60530820D01*
X95230537Y-60420506D01*
X95151185Y-60323815D01*
X95054494Y-60244463D01*
X94944180Y-60185498D01*
X94824482Y-60149188D01*
X94700000Y-60136928D01*
X94085750Y-60140000D01*
X93927000Y-60298750D01*
X93673000Y-60298750D01*
X93514250Y-60140000D01*
X92900000Y-60136928D01*
X92775518Y-60149188D01*
X92655820Y-60185498D01*
X92545506Y-60244463D01*
X92448815Y-60323815D01*
X92369463Y-60420506D01*
X92310498Y-60530820D01*
X92274188Y-60650518D01*
X92261928Y-60775000D01*
X92127000Y-60775000D01*
X92127000Y-59070000D01*
X100491928Y-59070000D01*
X100491928Y-60820000D01*
X100521001Y-61115186D01*
X100607104Y-61399028D01*
X100746927Y-61660618D01*
X100935097Y-61889903D01*
X101164382Y-62078073D01*
X101425972Y-62217896D01*
X101709814Y-62303999D01*
X102005000Y-62333072D01*
X103755000Y-62333072D01*
X104050186Y-62303999D01*
X104334028Y-62217896D01*
X104595618Y-62078073D01*
X104824903Y-61889903D01*
X105013073Y-61660618D01*
X105152896Y-61399028D01*
X105157971Y-61382298D01*
X107086903Y-61382298D01*
X107900000Y-62195395D01*
X108713097Y-61382298D01*
X108641514Y-61138329D01*
X108386004Y-61017429D01*
X108111816Y-60948700D01*
X107829488Y-60934783D01*
X107549870Y-60976213D01*
X107283708Y-61071397D01*
X107158486Y-61138329D01*
X107086903Y-61382298D01*
X105157971Y-61382298D01*
X105238999Y-61115186D01*
X105268072Y-60820000D01*
X105268072Y-59070000D01*
X105238999Y-58774814D01*
X105152896Y-58490972D01*
X105013073Y-58229382D01*
X104824903Y-58000097D01*
X104595618Y-57811927D01*
X104334028Y-57672104D01*
X104205357Y-57633072D01*
X107630000Y-57633072D01*
X107754482Y-57620812D01*
X107874180Y-57584502D01*
X107984494Y-57525537D01*
X108081185Y-57446185D01*
X108160537Y-57349494D01*
X108219502Y-57239180D01*
X108255812Y-57119482D01*
X108268072Y-56995000D01*
X108268072Y-54779872D01*
X112940000Y-54779872D01*
X112940000Y-55220128D01*
X113025890Y-55651925D01*
X113194369Y-56058669D01*
X113438962Y-56424729D01*
X113750271Y-56736038D01*
X114116331Y-56980631D01*
X114523075Y-57149110D01*
X114954872Y-57235000D01*
X115395128Y-57235000D01*
X115826925Y-57149110D01*
X116233669Y-56980631D01*
X116599729Y-56736038D01*
X116911038Y-56424729D01*
X117155631Y-56058669D01*
X117324110Y-55651925D01*
X117410000Y-55220128D01*
X117410000Y-55029796D01*
X122655000Y-55029796D01*
X122655000Y-55460204D01*
X122738969Y-55882341D01*
X122903678Y-56279985D01*
X123142800Y-56637856D01*
X123447144Y-56942200D01*
X123805015Y-57181322D01*
X124202659Y-57346031D01*
X124624796Y-57430000D01*
X125055204Y-57430000D01*
X125477341Y-57346031D01*
X125874985Y-57181322D01*
X126232856Y-56942200D01*
X126537200Y-56637856D01*
X126776322Y-56279985D01*
X126941031Y-55882341D01*
X127025000Y-55460204D01*
X127025000Y-55029796D01*
X127355000Y-55029796D01*
X127355000Y-55460204D01*
X127438969Y-55882341D01*
X127603678Y-56279985D01*
X127842800Y-56637856D01*
X128147144Y-56942200D01*
X128505015Y-57181322D01*
X128902659Y-57346031D01*
X129324796Y-57430000D01*
X129755204Y-57430000D01*
X130177341Y-57346031D01*
X130574985Y-57181322D01*
X130932856Y-56942200D01*
X131237200Y-56637856D01*
X131476322Y-56279985D01*
X131641031Y-55882341D01*
X131725000Y-55460204D01*
X131725000Y-55029796D01*
X132055000Y-55029796D01*
X132055000Y-55460204D01*
X132138969Y-55882341D01*
X132303678Y-56279985D01*
X132542800Y-56637856D01*
X132847144Y-56942200D01*
X133205015Y-57181322D01*
X133602659Y-57346031D01*
X134024796Y-57430000D01*
X134455204Y-57430000D01*
X134877341Y-57346031D01*
X135274985Y-57181322D01*
X135632856Y-56942200D01*
X135937200Y-56637856D01*
X136176322Y-56279985D01*
X136341031Y-55882341D01*
X136425000Y-55460204D01*
X136425000Y-55029796D01*
X136341031Y-54607659D01*
X136176322Y-54210015D01*
X135937200Y-53852144D01*
X135632856Y-53547800D01*
X135274985Y-53308678D01*
X134877341Y-53143969D01*
X134455204Y-53060000D01*
X134024796Y-53060000D01*
X133602659Y-53143969D01*
X133205015Y-53308678D01*
X132847144Y-53547800D01*
X132542800Y-53852144D01*
X132303678Y-54210015D01*
X132138969Y-54607659D01*
X132055000Y-55029796D01*
X131725000Y-55029796D01*
X131641031Y-54607659D01*
X131476322Y-54210015D01*
X131237200Y-53852144D01*
X130932856Y-53547800D01*
X130574985Y-53308678D01*
X130177341Y-53143969D01*
X129755204Y-53060000D01*
X129324796Y-53060000D01*
X128902659Y-53143969D01*
X128505015Y-53308678D01*
X128147144Y-53547800D01*
X127842800Y-53852144D01*
X127603678Y-54210015D01*
X127438969Y-54607659D01*
X127355000Y-55029796D01*
X127025000Y-55029796D01*
X126941031Y-54607659D01*
X126776322Y-54210015D01*
X126537200Y-53852144D01*
X126232856Y-53547800D01*
X125874985Y-53308678D01*
X125477341Y-53143969D01*
X125055204Y-53060000D01*
X124624796Y-53060000D01*
X124202659Y-53143969D01*
X123805015Y-53308678D01*
X123447144Y-53547800D01*
X123142800Y-53852144D01*
X122903678Y-54210015D01*
X122738969Y-54607659D01*
X122655000Y-55029796D01*
X117410000Y-55029796D01*
X117410000Y-54779872D01*
X117324110Y-54348075D01*
X117155631Y-53941331D01*
X116911038Y-53575271D01*
X116599729Y-53263962D01*
X116233669Y-53019369D01*
X115826925Y-52850890D01*
X115395128Y-52765000D01*
X114954872Y-52765000D01*
X114523075Y-52850890D01*
X114116331Y-53019369D01*
X113750271Y-53263962D01*
X113438962Y-53575271D01*
X113194369Y-53941331D01*
X113025890Y-54348075D01*
X112940000Y-54779872D01*
X108268072Y-54779872D01*
X108268072Y-53495000D01*
X108255812Y-53370518D01*
X108219502Y-53250820D01*
X108160537Y-53140506D01*
X108081185Y-53043815D01*
X107984494Y-52964463D01*
X107874180Y-52905498D01*
X107754482Y-52869188D01*
X107630000Y-52856928D01*
X104130000Y-52856928D01*
X104005518Y-52869188D01*
X103885820Y-52905498D01*
X103775506Y-52964463D01*
X103678815Y-53043815D01*
X103599463Y-53140506D01*
X103540498Y-53250820D01*
X103504188Y-53370518D01*
X103491928Y-53495000D01*
X103491928Y-56995000D01*
X103504188Y-57119482D01*
X103540498Y-57239180D01*
X103599463Y-57349494D01*
X103678815Y-57446185D01*
X103775506Y-57525537D01*
X103852131Y-57566494D01*
X103755000Y-57556928D01*
X102005000Y-57556928D01*
X101709814Y-57586001D01*
X101425972Y-57672104D01*
X101164382Y-57811927D01*
X100935097Y-58000097D01*
X100746927Y-58229382D01*
X100607104Y-58490972D01*
X100521001Y-58774814D01*
X100491928Y-59070000D01*
X92127000Y-59070000D01*
X92127000Y-56995000D01*
X97741928Y-56995000D01*
X97754188Y-57119482D01*
X97790498Y-57239180D01*
X97849463Y-57349494D01*
X97928815Y-57446185D01*
X98025506Y-57525537D01*
X98135820Y-57584502D01*
X98255518Y-57620812D01*
X98380000Y-57633072D01*
X99594250Y-57630000D01*
X99753000Y-57471250D01*
X99753000Y-55372000D01*
X100007000Y-55372000D01*
X100007000Y-57471250D01*
X100165750Y-57630000D01*
X101380000Y-57633072D01*
X101504482Y-57620812D01*
X101624180Y-57584502D01*
X101734494Y-57525537D01*
X101831185Y-57446185D01*
X101910537Y-57349494D01*
X101969502Y-57239180D01*
X102005812Y-57119482D01*
X102018072Y-56995000D01*
X102015000Y-55530750D01*
X101856250Y-55372000D01*
X100007000Y-55372000D01*
X99753000Y-55372000D01*
X97903750Y-55372000D01*
X97745000Y-55530750D01*
X97741928Y-56995000D01*
X92127000Y-56995000D01*
X92127000Y-53495000D01*
X97741928Y-53495000D01*
X97745000Y-54959250D01*
X97903750Y-55118000D01*
X99753000Y-55118000D01*
X99753000Y-53018750D01*
X100007000Y-53018750D01*
X100007000Y-55118000D01*
X101856250Y-55118000D01*
X102015000Y-54959250D01*
X102018072Y-53495000D01*
X102005812Y-53370518D01*
X101969502Y-53250820D01*
X101910537Y-53140506D01*
X101831185Y-53043815D01*
X101734494Y-52964463D01*
X101624180Y-52905498D01*
X101504482Y-52869188D01*
X101380000Y-52856928D01*
X100165750Y-52860000D01*
X100007000Y-53018750D01*
X99753000Y-53018750D01*
X99594250Y-52860000D01*
X98380000Y-52856928D01*
X98255518Y-52869188D01*
X98135820Y-52905498D01*
X98025506Y-52964463D01*
X97928815Y-53043815D01*
X97849463Y-53140506D01*
X97790498Y-53250820D01*
X97754188Y-53370518D01*
X97741928Y-53495000D01*
X92127000Y-53495000D01*
X92127000Y-53027615D01*
X92145256Y-52702469D01*
X92199198Y-52384923D01*
X92288345Y-52075424D01*
X92411586Y-51777827D01*
X92567360Y-51495907D01*
X92753714Y-51233198D01*
X92968305Y-50992999D01*
X93208435Y-50778334D01*
X93471087Y-50591896D01*
X93752956Y-50436035D01*
X94050507Y-50312703D01*
X94359982Y-50223457D01*
X94556566Y-50190000D01*
X169108730Y-50190000D01*
X169167000Y-50199875D01*
X169167000Y-50199875D01*
G37*
X169167000Y-50199875D02*
X169476408Y-50288847D01*
X169773916Y-50411880D01*
X170055790Y-50567429D01*
X170318493Y-50753543D01*
X170558725Y-50967885D01*
X170773457Y-51207751D01*
X170960008Y-51470147D01*
X171116024Y-51751764D01*
X171239551Y-52049069D01*
X171329037Y-52358335D01*
X171383356Y-52675659D01*
X171402033Y-53000644D01*
X171446587Y-86148961D01*
X171428827Y-86473590D01*
X171375486Y-86790709D01*
X171287039Y-87099875D01*
X171164597Y-87397211D01*
X171009684Y-87679016D01*
X170822211Y-87944629D01*
X163553936Y-97107183D01*
X163336779Y-97351359D01*
X163096223Y-97567213D01*
X162832928Y-97754691D01*
X162550249Y-97911401D01*
X162251766Y-98035363D01*
X161941225Y-98125017D01*
X161622599Y-98179219D01*
X161296326Y-98197487D01*
X95002551Y-98174061D01*
X94677411Y-98155690D01*
X94359888Y-98101638D01*
X94050427Y-98012387D01*
X93752887Y-97889049D01*
X93471025Y-97733181D01*
X93208381Y-97546741D01*
X92968267Y-97332079D01*
X92890125Y-97244609D01*
X100949997Y-97244609D01*
X101136073Y-97585766D01*
X101553409Y-97801513D01*
X102004815Y-97931696D01*
X102472946Y-97971313D01*
X102939811Y-97918842D01*
X103387468Y-97776297D01*
X103743927Y-97585766D01*
X103930003Y-97244609D01*
X102440000Y-95754605D01*
X100949997Y-97244609D01*
X92890125Y-97244609D01*
X92753681Y-97091879D01*
X92567338Y-96829176D01*
X92411572Y-96547263D01*
X92288340Y-96249680D01*
X92199194Y-95940172D01*
X92145255Y-95622640D01*
X92144430Y-95607946D01*
X100043687Y-95607946D01*
X100096158Y-96074811D01*
X100238703Y-96522468D01*
X100429234Y-96878927D01*
X100770391Y-97065003D01*
X102260395Y-95575000D01*
X102619605Y-95575000D01*
X104109609Y-97065003D01*
X104450766Y-96878927D01*
X104666513Y-96461591D01*
X104796696Y-96010185D01*
X104836313Y-95542054D01*
X104783842Y-95075189D01*
X104641297Y-94627532D01*
X104450766Y-94271073D01*
X104109609Y-94084997D01*
X102619605Y-95575000D01*
X102260395Y-95575000D01*
X100770391Y-94084997D01*
X100429234Y-94271073D01*
X100213487Y-94688409D01*
X100083304Y-95139815D01*
X100043687Y-95607946D01*
X92144430Y-95607946D01*
X92127000Y-95297503D01*
X92127000Y-93905391D01*
X100949997Y-93905391D01*
X102440000Y-95395395D01*
X103930003Y-93905391D01*
X103743927Y-93564234D01*
X103326591Y-93348487D01*
X102875185Y-93218304D01*
X102407054Y-93178687D01*
X101940189Y-93231158D01*
X101492532Y-93373703D01*
X101136073Y-93564234D01*
X100949997Y-93905391D01*
X92127000Y-93905391D01*
X92127000Y-90873531D01*
X103659389Y-90873531D01*
X103701401Y-91163019D01*
X103799081Y-91438747D01*
X103872528Y-91576157D01*
X104121603Y-91653792D01*
X104970395Y-90805000D01*
X104121603Y-89956208D01*
X103872528Y-90033843D01*
X103746629Y-90297883D01*
X103674661Y-90581411D01*
X103659389Y-90873531D01*
X92127000Y-90873531D01*
X92127000Y-85204609D01*
X100949997Y-85204609D01*
X101136073Y-85545766D01*
X101553409Y-85761513D01*
X102004815Y-85891696D01*
X102472946Y-85931313D01*
X102939811Y-85878842D01*
X103387468Y-85736297D01*
X103743927Y-85545766D01*
X103930003Y-85204609D01*
X102440000Y-83714605D01*
X100949997Y-85204609D01*
X92127000Y-85204609D01*
X92127000Y-83567946D01*
X100043687Y-83567946D01*
X100096158Y-84034811D01*
X100238703Y-84482468D01*
X100429234Y-84838927D01*
X100770391Y-85025003D01*
X102260395Y-83535000D01*
X102619605Y-83535000D01*
X104109609Y-85025003D01*
X104450766Y-84838927D01*
X104666513Y-84421591D01*
X104796696Y-83970185D01*
X104836313Y-83502054D01*
X104783842Y-83035189D01*
X104641297Y-82587532D01*
X104450766Y-82231073D01*
X104109609Y-82044997D01*
X102619605Y-83535000D01*
X102260395Y-83535000D01*
X100770391Y-82044997D01*
X100429234Y-82231073D01*
X100213487Y-82648409D01*
X100083304Y-83099815D01*
X100043687Y-83567946D01*
X92127000Y-83567946D01*
X92127000Y-81865391D01*
X100949997Y-81865391D01*
X102440000Y-83355395D01*
X103930003Y-81865391D01*
X103743927Y-81524234D01*
X103326591Y-81308487D01*
X102875185Y-81178304D01*
X102407054Y-81138687D01*
X101940189Y-81191158D01*
X101492532Y-81333703D01*
X101136073Y-81524234D01*
X100949997Y-81865391D01*
X92127000Y-81865391D01*
X92127000Y-77867102D01*
X97199191Y-77867102D01*
X97230759Y-78187618D01*
X97324250Y-78495817D01*
X97476071Y-78779854D01*
X97680388Y-79028816D01*
X97929350Y-79233133D01*
X98213387Y-79384954D01*
X98521586Y-79478445D01*
X98761780Y-79502102D01*
X98922424Y-79502102D01*
X99162618Y-79478445D01*
X99470817Y-79384954D01*
X99503093Y-79367702D01*
X101611903Y-79367702D01*
X101683486Y-79611671D01*
X101938996Y-79732571D01*
X102213184Y-79801300D01*
X102495512Y-79815217D01*
X102775130Y-79773787D01*
X103041292Y-79678603D01*
X103166514Y-79611671D01*
X103238097Y-79367702D01*
X102425000Y-78554605D01*
X101611903Y-79367702D01*
X99503093Y-79367702D01*
X99754854Y-79233133D01*
X100003816Y-79028816D01*
X100208133Y-78779854D01*
X100359954Y-78495817D01*
X100375213Y-78445512D01*
X100984783Y-78445512D01*
X101026213Y-78725130D01*
X101121397Y-78991292D01*
X101188329Y-79116514D01*
X101432298Y-79188097D01*
X102245395Y-78375000D01*
X102604605Y-78375000D01*
X103417702Y-79188097D01*
X103661671Y-79116514D01*
X103675324Y-79087659D01*
X103810363Y-79289759D01*
X104010241Y-79489637D01*
X104040001Y-79509522D01*
X104040001Y-79856521D01*
X104035719Y-79900000D01*
X104052805Y-80073490D01*
X104103412Y-80240313D01*
X104185590Y-80394059D01*
X104268468Y-80495046D01*
X104268471Y-80495049D01*
X104296184Y-80528817D01*
X104329952Y-80556530D01*
X109570046Y-85796625D01*
X109441509Y-85849866D01*
X109247423Y-85979550D01*
X109211973Y-86015000D01*
X106598466Y-86015000D01*
X106554999Y-86010719D01*
X106511533Y-86015000D01*
X106511523Y-86015000D01*
X106381510Y-86027805D01*
X106214687Y-86078411D01*
X106060941Y-86160589D01*
X106060939Y-86160590D01*
X106060940Y-86160590D01*
X105959953Y-86243468D01*
X105959951Y-86243470D01*
X105926183Y-86271183D01*
X105898470Y-86304951D01*
X105368960Y-86834461D01*
X105296260Y-86820000D01*
X105003740Y-86820000D01*
X104716842Y-86877068D01*
X104446589Y-86989010D01*
X104203368Y-87151525D01*
X103996525Y-87358368D01*
X103834010Y-87601589D01*
X103722068Y-87871842D01*
X103665000Y-88158740D01*
X103665000Y-88451260D01*
X103722068Y-88738158D01*
X103834010Y-89008411D01*
X103996525Y-89251632D01*
X104203368Y-89458475D01*
X104366410Y-89567416D01*
X104301208Y-89776603D01*
X105150000Y-90625395D01*
X105164143Y-90611253D01*
X105343748Y-90790858D01*
X105329605Y-90805000D01*
X105343748Y-90819143D01*
X105164143Y-90998748D01*
X105150000Y-90984605D01*
X104301208Y-91833397D01*
X104378843Y-92082472D01*
X104642883Y-92208371D01*
X104926411Y-92280339D01*
X105218531Y-92295611D01*
X105508019Y-92253599D01*
X105783747Y-92155919D01*
X105859850Y-92115241D01*
X105945506Y-92185537D01*
X106055820Y-92244502D01*
X106175518Y-92280812D01*
X106300000Y-92293072D01*
X108000000Y-92293072D01*
X108124482Y-92280812D01*
X108244180Y-92244502D01*
X108354494Y-92185537D01*
X108451185Y-92106185D01*
X108530537Y-92009494D01*
X108589502Y-91899180D01*
X108625812Y-91779482D01*
X108635518Y-91680935D01*
X108673490Y-91677195D01*
X108840313Y-91626589D01*
X108994059Y-91544411D01*
X109128817Y-91433817D01*
X109156534Y-91400044D01*
X111595049Y-88961530D01*
X111628817Y-88933817D01*
X111739411Y-88799059D01*
X111821589Y-88645313D01*
X111872195Y-88478490D01*
X111885000Y-88348477D01*
X111885000Y-88348469D01*
X111889281Y-88305000D01*
X111885000Y-88261531D01*
X111885000Y-88076267D01*
X111918468Y-88117048D01*
X111918471Y-88117051D01*
X111946184Y-88150819D01*
X111979952Y-88178532D01*
X115126834Y-91325414D01*
X114873075Y-91375890D01*
X114466331Y-91544369D01*
X114100271Y-91788962D01*
X113788962Y-92100271D01*
X113544369Y-92466331D01*
X113375890Y-92873075D01*
X113290000Y-93304872D01*
X113290000Y-93745128D01*
X113375890Y-94176925D01*
X113544369Y-94583669D01*
X113788962Y-94949729D01*
X114100271Y-95261038D01*
X114466331Y-95505631D01*
X114873075Y-95674110D01*
X115304872Y-95760000D01*
X115745128Y-95760000D01*
X116176925Y-95674110D01*
X116583669Y-95505631D01*
X116949729Y-95261038D01*
X117261038Y-94949729D01*
X117505631Y-94583669D01*
X117674110Y-94176925D01*
X117724586Y-93923166D01*
X121621469Y-97820050D01*
X121649182Y-97853818D01*
X121682950Y-97881531D01*
X121682952Y-97881533D01*
X121728413Y-97918842D01*
X121783940Y-97964412D01*
X121937686Y-98046590D01*
X122104509Y-98097196D01*
X122234522Y-98110001D01*
X122234530Y-98110001D01*
X122277999Y-98114282D01*
X122321468Y-98110001D01*
X127956530Y-98110001D01*
X127999999Y-98114282D01*
X128043468Y-98110001D01*
X128043476Y-98110001D01*
X128173489Y-98097196D01*
X128340312Y-98046590D01*
X128494058Y-97964412D01*
X128628816Y-97853818D01*
X128656533Y-97820045D01*
X129176989Y-97299590D01*
X129198815Y-97326185D01*
X129295506Y-97405537D01*
X129405820Y-97464502D01*
X129525518Y-97500812D01*
X129650000Y-97513072D01*
X131250000Y-97513072D01*
X131374482Y-97500812D01*
X131494180Y-97464502D01*
X131604494Y-97405537D01*
X131701185Y-97326185D01*
X131780537Y-97229494D01*
X131839502Y-97119180D01*
X131875812Y-96999482D01*
X131879701Y-96960000D01*
X134606531Y-96960000D01*
X134650000Y-96964281D01*
X134693469Y-96960000D01*
X134693477Y-96960000D01*
X134823490Y-96947195D01*
X134990313Y-96896589D01*
X135144059Y-96814411D01*
X135278817Y-96703817D01*
X135306534Y-96670044D01*
X136999327Y-94977251D01*
X148352354Y-94977251D01*
X148514381Y-95297930D01*
X148897675Y-95493725D01*
X149311803Y-95610981D01*
X149740848Y-95645192D01*
X150168324Y-95595042D01*
X150577802Y-95462461D01*
X150885619Y-95297930D01*
X151047646Y-94977251D01*
X149700000Y-93629605D01*
X148352354Y-94977251D01*
X136999327Y-94977251D01*
X137248561Y-94728017D01*
X137283665Y-94735000D01*
X137566335Y-94735000D01*
X137843574Y-94679853D01*
X138104727Y-94571680D01*
X138339759Y-94414637D01*
X138539637Y-94214759D01*
X138696680Y-93979727D01*
X138804853Y-93718574D01*
X138860000Y-93441335D01*
X138860000Y-93158665D01*
X138804853Y-92881426D01*
X138696680Y-92620273D01*
X138539637Y-92385241D01*
X138339759Y-92185363D01*
X138339216Y-92185000D01*
X144141628Y-92185000D01*
X144025392Y-92280392D01*
X143846068Y-92498899D01*
X143712818Y-92748192D01*
X143630764Y-93018691D01*
X143603057Y-93300000D01*
X143630764Y-93581309D01*
X143712818Y-93851808D01*
X143846068Y-94101101D01*
X144025392Y-94319608D01*
X144243899Y-94498932D01*
X144493192Y-94632182D01*
X144763691Y-94714236D01*
X144974508Y-94735000D01*
X145115492Y-94735000D01*
X145326309Y-94714236D01*
X145596808Y-94632182D01*
X145846101Y-94498932D01*
X146064608Y-94319608D01*
X146243932Y-94101101D01*
X146377182Y-93851808D01*
X146459236Y-93581309D01*
X146486943Y-93300000D01*
X146459236Y-93018691D01*
X146377182Y-92748192D01*
X146243932Y-92498899D01*
X146064608Y-92280392D01*
X145948372Y-92185000D01*
X148009179Y-92185000D01*
X147852070Y-92264381D01*
X147656275Y-92647675D01*
X147539019Y-93061803D01*
X147504808Y-93490848D01*
X147554958Y-93918324D01*
X147687539Y-94327802D01*
X147852070Y-94635619D01*
X148172749Y-94797646D01*
X149520395Y-93450000D01*
X149506253Y-93435858D01*
X149685858Y-93256253D01*
X149700000Y-93270395D01*
X149714143Y-93256253D01*
X149893748Y-93435858D01*
X149879605Y-93450000D01*
X151227251Y-94797646D01*
X151547930Y-94635619D01*
X151743725Y-94252325D01*
X151860981Y-93838197D01*
X151895192Y-93409152D01*
X151845042Y-92981676D01*
X151712461Y-92572198D01*
X151547930Y-92264381D01*
X151390821Y-92185000D01*
X151883422Y-92185000D01*
X152361095Y-92662673D01*
X152298969Y-92812659D01*
X152215000Y-93234796D01*
X152215000Y-93665204D01*
X152298969Y-94087341D01*
X152463678Y-94484985D01*
X152702800Y-94842856D01*
X153007144Y-95147200D01*
X153365015Y-95386322D01*
X153762659Y-95551031D01*
X154184796Y-95635000D01*
X154615204Y-95635000D01*
X155037341Y-95551031D01*
X155434985Y-95386322D01*
X155792856Y-95147200D01*
X156097200Y-94842856D01*
X156336322Y-94484985D01*
X156501031Y-94087341D01*
X156585000Y-93665204D01*
X156585000Y-93234796D01*
X156915000Y-93234796D01*
X156915000Y-93665204D01*
X156998969Y-94087341D01*
X157163678Y-94484985D01*
X157402800Y-94842856D01*
X157707144Y-95147200D01*
X158065015Y-95386322D01*
X158462659Y-95551031D01*
X158884796Y-95635000D01*
X159315204Y-95635000D01*
X159737341Y-95551031D01*
X160134985Y-95386322D01*
X160492856Y-95147200D01*
X160797200Y-94842856D01*
X161036322Y-94484985D01*
X161201031Y-94087341D01*
X161285000Y-93665204D01*
X161285000Y-93234796D01*
X161201031Y-92812659D01*
X161036322Y-92415015D01*
X160797200Y-92057144D01*
X160492856Y-91752800D01*
X160134985Y-91513678D01*
X159737341Y-91348969D01*
X159315204Y-91265000D01*
X158884796Y-91265000D01*
X158462659Y-91348969D01*
X158065015Y-91513678D01*
X157707144Y-91752800D01*
X157402800Y-92057144D01*
X157163678Y-92415015D01*
X156998969Y-92812659D01*
X156915000Y-93234796D01*
X156585000Y-93234796D01*
X156501031Y-92812659D01*
X156336322Y-92415015D01*
X156097200Y-92057144D01*
X155792856Y-91752800D01*
X155434985Y-91513678D01*
X155037341Y-91348969D01*
X154615204Y-91265000D01*
X154184796Y-91265000D01*
X153762659Y-91348969D01*
X153612673Y-91411095D01*
X152906534Y-90704956D01*
X152878817Y-90671183D01*
X152744059Y-90560589D01*
X152590313Y-90478411D01*
X152423490Y-90427805D01*
X152293477Y-90415000D01*
X152293469Y-90415000D01*
X152250000Y-90410719D01*
X152206531Y-90415000D01*
X133859835Y-90415000D01*
X133816369Y-90410719D01*
X133772903Y-90415000D01*
X133772893Y-90415000D01*
X133642880Y-90427805D01*
X133476057Y-90478411D01*
X133322311Y-90560589D01*
X133322309Y-90560590D01*
X133322310Y-90560590D01*
X133221323Y-90643468D01*
X133221321Y-90643470D01*
X133187553Y-90671183D01*
X133159840Y-90704951D01*
X131403584Y-92461208D01*
X131251101Y-92336068D01*
X131118142Y-92265000D01*
X131251101Y-92193932D01*
X131469608Y-92014608D01*
X131576924Y-91883843D01*
X131581370Y-91884281D01*
X131624839Y-91880000D01*
X131624847Y-91880000D01*
X131754860Y-91867195D01*
X131921683Y-91816589D01*
X132075429Y-91734411D01*
X132210187Y-91623817D01*
X132237904Y-91590044D01*
X134517949Y-89310000D01*
X139711972Y-89310000D01*
X139755890Y-89314281D01*
X139841432Y-89305769D01*
X139928490Y-89297195D01*
X139928922Y-89297064D01*
X139929363Y-89297020D01*
X140011461Y-89272026D01*
X140095313Y-89246589D01*
X140095712Y-89246376D01*
X140096135Y-89246247D01*
X140171940Y-89205632D01*
X140249059Y-89164411D01*
X140249407Y-89164126D01*
X140249798Y-89163916D01*
X140316489Y-89109072D01*
X140383817Y-89053817D01*
X140411815Y-89019701D01*
X142617098Y-86810000D01*
X145306531Y-86810000D01*
X145350000Y-86814281D01*
X145393469Y-86810000D01*
X145393477Y-86810000D01*
X145523490Y-86797195D01*
X145690313Y-86746589D01*
X145844059Y-86664411D01*
X145978817Y-86553817D01*
X146006534Y-86520044D01*
X146770049Y-85756530D01*
X146803817Y-85728817D01*
X146845932Y-85677501D01*
X146914410Y-85594060D01*
X146919420Y-85584687D01*
X146996589Y-85440313D01*
X147047195Y-85273490D01*
X147060000Y-85143477D01*
X147060000Y-85143467D01*
X147064281Y-85100001D01*
X147060000Y-85056535D01*
X147060000Y-83270546D01*
X147064281Y-83227080D01*
X147061635Y-83200211D01*
X147220134Y-83070134D01*
X147405706Y-82844014D01*
X147435000Y-82789209D01*
X147464294Y-82844014D01*
X147570000Y-82972817D01*
X147570000Y-83161330D01*
X147564509Y-83217081D01*
X147570000Y-83272832D01*
X147586423Y-83439579D01*
X147651324Y-83653527D01*
X147756716Y-83850704D01*
X147898551Y-84023530D01*
X147941865Y-84059077D01*
X150545928Y-86663141D01*
X150581470Y-86706449D01*
X150754296Y-86848284D01*
X150951472Y-86953676D01*
X151165420Y-87018577D01*
X151332167Y-87035000D01*
X151332176Y-87035000D01*
X151387918Y-87040490D01*
X151443660Y-87035000D01*
X163321330Y-87035000D01*
X163377081Y-87040491D01*
X163432832Y-87035000D01*
X163432833Y-87035000D01*
X163599580Y-87018577D01*
X163813528Y-86953676D01*
X164010704Y-86848284D01*
X164183530Y-86706449D01*
X164219077Y-86663135D01*
X166823141Y-84059072D01*
X166866449Y-84023530D01*
X167008284Y-83850704D01*
X167113676Y-83653528D01*
X167178577Y-83439580D01*
X167195000Y-83272833D01*
X167195000Y-83272824D01*
X167200490Y-83217082D01*
X167196496Y-83176526D01*
X167219463Y-83219494D01*
X167298815Y-83316185D01*
X167395506Y-83395537D01*
X167505820Y-83454502D01*
X167625518Y-83490812D01*
X167750000Y-83503072D01*
X168314250Y-83500000D01*
X168473000Y-83341250D01*
X168473000Y-82142000D01*
X168727000Y-82142000D01*
X168727000Y-83341250D01*
X168885750Y-83500000D01*
X169450000Y-83503072D01*
X169574482Y-83490812D01*
X169694180Y-83454502D01*
X169804494Y-83395537D01*
X169901185Y-83316185D01*
X169980537Y-83219494D01*
X170039502Y-83109180D01*
X170075812Y-82989482D01*
X170088072Y-82865000D01*
X170085000Y-82300750D01*
X169926250Y-82142000D01*
X168727000Y-82142000D01*
X168473000Y-82142000D01*
X168453000Y-82142000D01*
X168453000Y-81888000D01*
X168473000Y-81888000D01*
X168473000Y-80688750D01*
X168727000Y-80688750D01*
X168727000Y-81888000D01*
X169926250Y-81888000D01*
X170085000Y-81729250D01*
X170088072Y-81165000D01*
X170075812Y-81040518D01*
X170039502Y-80920820D01*
X169980537Y-80810506D01*
X169901185Y-80713815D01*
X169804494Y-80634463D01*
X169694180Y-80575498D01*
X169574482Y-80539188D01*
X169450000Y-80526928D01*
X168885750Y-80530000D01*
X168727000Y-80688750D01*
X168473000Y-80688750D01*
X168314250Y-80530000D01*
X167750000Y-80526928D01*
X167625518Y-80539188D01*
X167505820Y-80575498D01*
X167395506Y-80634463D01*
X167298815Y-80713815D01*
X167219463Y-80810506D01*
X167195000Y-80856272D01*
X167195000Y-74283728D01*
X167219463Y-74329494D01*
X167298815Y-74426185D01*
X167395506Y-74505537D01*
X167505820Y-74564502D01*
X167625518Y-74600812D01*
X167750000Y-74613072D01*
X168314250Y-74610000D01*
X168473000Y-74451250D01*
X168473000Y-73252000D01*
X168727000Y-73252000D01*
X168727000Y-74451250D01*
X168885750Y-74610000D01*
X169450000Y-74613072D01*
X169574482Y-74600812D01*
X169694180Y-74564502D01*
X169804494Y-74505537D01*
X169901185Y-74426185D01*
X169980537Y-74329494D01*
X170039502Y-74219180D01*
X170075812Y-74099482D01*
X170088072Y-73975000D01*
X170085000Y-73410750D01*
X169926250Y-73252000D01*
X168727000Y-73252000D01*
X168473000Y-73252000D01*
X168453000Y-73252000D01*
X168453000Y-72998000D01*
X168473000Y-72998000D01*
X168473000Y-71798750D01*
X168727000Y-71798750D01*
X168727000Y-72998000D01*
X169926250Y-72998000D01*
X170085000Y-72839250D01*
X170088072Y-72275000D01*
X170075812Y-72150518D01*
X170039502Y-72030820D01*
X169980537Y-71920506D01*
X169901185Y-71823815D01*
X169804494Y-71744463D01*
X169694180Y-71685498D01*
X169574482Y-71649188D01*
X169450000Y-71636928D01*
X168885750Y-71640000D01*
X168727000Y-71798750D01*
X168473000Y-71798750D01*
X168314250Y-71640000D01*
X167750000Y-71636928D01*
X167625518Y-71649188D01*
X167505820Y-71685498D01*
X167395506Y-71744463D01*
X167298815Y-71823815D01*
X167219463Y-71920506D01*
X167195000Y-71966272D01*
X167195000Y-65393728D01*
X167219463Y-65439494D01*
X167298815Y-65536185D01*
X167395506Y-65615537D01*
X167505820Y-65674502D01*
X167625518Y-65710812D01*
X167750000Y-65723072D01*
X168314250Y-65720000D01*
X168473000Y-65561250D01*
X168473000Y-64362000D01*
X168727000Y-64362000D01*
X168727000Y-65561250D01*
X168885750Y-65720000D01*
X169450000Y-65723072D01*
X169574482Y-65710812D01*
X169694180Y-65674502D01*
X169804494Y-65615537D01*
X169901185Y-65536185D01*
X169980537Y-65439494D01*
X170039502Y-65329180D01*
X170075812Y-65209482D01*
X170088072Y-65085000D01*
X170085000Y-64520750D01*
X169926250Y-64362000D01*
X168727000Y-64362000D01*
X168473000Y-64362000D01*
X168453000Y-64362000D01*
X168453000Y-64108000D01*
X168473000Y-64108000D01*
X168473000Y-62908750D01*
X168727000Y-62908750D01*
X168727000Y-64108000D01*
X169926250Y-64108000D01*
X170085000Y-63949250D01*
X170088072Y-63385000D01*
X170075812Y-63260518D01*
X170039502Y-63140820D01*
X169980537Y-63030506D01*
X169901185Y-62933815D01*
X169804494Y-62854463D01*
X169694180Y-62795498D01*
X169574482Y-62759188D01*
X169450000Y-62746928D01*
X168885750Y-62750000D01*
X168727000Y-62908750D01*
X168473000Y-62908750D01*
X168314250Y-62750000D01*
X167750000Y-62746928D01*
X167625518Y-62759188D01*
X167505820Y-62795498D01*
X167395506Y-62854463D01*
X167298815Y-62933815D01*
X167219463Y-63030506D01*
X167195000Y-63076272D01*
X167195000Y-56503728D01*
X167219463Y-56549494D01*
X167298815Y-56646185D01*
X167395506Y-56725537D01*
X167505820Y-56784502D01*
X167625518Y-56820812D01*
X167750000Y-56833072D01*
X168314250Y-56830000D01*
X168473000Y-56671250D01*
X168473000Y-55472000D01*
X168727000Y-55472000D01*
X168727000Y-56671250D01*
X168885750Y-56830000D01*
X169450000Y-56833072D01*
X169574482Y-56820812D01*
X169694180Y-56784502D01*
X169804494Y-56725537D01*
X169901185Y-56646185D01*
X169980537Y-56549494D01*
X170039502Y-56439180D01*
X170075812Y-56319482D01*
X170088072Y-56195000D01*
X170085000Y-55630750D01*
X169926250Y-55472000D01*
X168727000Y-55472000D01*
X168473000Y-55472000D01*
X168453000Y-55472000D01*
X168453000Y-55218000D01*
X168473000Y-55218000D01*
X168473000Y-54018750D01*
X168727000Y-54018750D01*
X168727000Y-55218000D01*
X169926250Y-55218000D01*
X170085000Y-55059250D01*
X170088072Y-54495000D01*
X170075812Y-54370518D01*
X170039502Y-54250820D01*
X169980537Y-54140506D01*
X169901185Y-54043815D01*
X169804494Y-53964463D01*
X169694180Y-53905498D01*
X169574482Y-53869188D01*
X169450000Y-53856928D01*
X168885750Y-53860000D01*
X168727000Y-54018750D01*
X168473000Y-54018750D01*
X168314250Y-53860000D01*
X167750000Y-53856928D01*
X167625518Y-53869188D01*
X167505820Y-53905498D01*
X167395506Y-53964463D01*
X167298815Y-54043815D01*
X167219463Y-54140506D01*
X167160498Y-54250820D01*
X167139607Y-54319687D01*
X167115134Y-54289866D01*
X166889014Y-54104294D01*
X166631034Y-53966401D01*
X166351111Y-53881487D01*
X166132950Y-53860000D01*
X165987050Y-53860000D01*
X165768889Y-53881487D01*
X165488966Y-53966401D01*
X165230986Y-54104294D01*
X165004866Y-54289866D01*
X164819294Y-54515986D01*
X164790000Y-54570791D01*
X164760706Y-54515986D01*
X164575134Y-54289866D01*
X164349014Y-54104294D01*
X164091034Y-53966401D01*
X163811111Y-53881487D01*
X163592950Y-53860000D01*
X163447050Y-53860000D01*
X163228889Y-53881487D01*
X162948966Y-53966401D01*
X162690986Y-54104294D01*
X162464866Y-54289866D01*
X162279294Y-54515986D01*
X162250000Y-54570791D01*
X162220706Y-54515986D01*
X162035134Y-54289866D01*
X161809014Y-54104294D01*
X161551034Y-53966401D01*
X161271111Y-53881487D01*
X161052950Y-53860000D01*
X160907050Y-53860000D01*
X160688889Y-53881487D01*
X160408966Y-53966401D01*
X160150986Y-54104294D01*
X159924866Y-54289866D01*
X159739294Y-54515986D01*
X159601401Y-54773966D01*
X159516487Y-55053889D01*
X159487815Y-55345000D01*
X159516487Y-55636111D01*
X159601401Y-55916034D01*
X159739294Y-56174014D01*
X159924866Y-56400134D01*
X160150986Y-56585706D01*
X160408966Y-56723599D01*
X160688889Y-56808513D01*
X160907050Y-56830000D01*
X161052950Y-56830000D01*
X161271111Y-56808513D01*
X161551034Y-56723599D01*
X161809014Y-56585706D01*
X162035134Y-56400134D01*
X162220706Y-56174014D01*
X162250000Y-56119209D01*
X162279294Y-56174014D01*
X162464866Y-56400134D01*
X162690986Y-56585706D01*
X162948966Y-56723599D01*
X163228889Y-56808513D01*
X163447050Y-56830000D01*
X163592950Y-56830000D01*
X163811111Y-56808513D01*
X164091034Y-56723599D01*
X164349014Y-56585706D01*
X164575134Y-56400134D01*
X164760706Y-56174014D01*
X164790000Y-56119209D01*
X164819294Y-56174014D01*
X164925001Y-56302818D01*
X164925000Y-63277183D01*
X164819294Y-63405986D01*
X164790000Y-63460791D01*
X164760706Y-63405986D01*
X164575134Y-63179866D01*
X164349014Y-62994294D01*
X164091034Y-62856401D01*
X163811111Y-62771487D01*
X163592950Y-62750000D01*
X163447050Y-62750000D01*
X163228889Y-62771487D01*
X162948966Y-62856401D01*
X162690986Y-62994294D01*
X162464866Y-63179866D01*
X162279294Y-63405986D01*
X162250000Y-63460791D01*
X162220706Y-63405986D01*
X162035134Y-63179866D01*
X161809014Y-62994294D01*
X161551034Y-62856401D01*
X161271111Y-62771487D01*
X161052950Y-62750000D01*
X160907050Y-62750000D01*
X160688889Y-62771487D01*
X160408966Y-62856401D01*
X160150986Y-62994294D01*
X159924866Y-63179866D01*
X159739294Y-63405986D01*
X159601401Y-63663966D01*
X159516487Y-63943889D01*
X159487815Y-64235000D01*
X159516487Y-64526111D01*
X159601401Y-64806034D01*
X159739294Y-65064014D01*
X159924866Y-65290134D01*
X160150986Y-65475706D01*
X160408966Y-65613599D01*
X160688889Y-65698513D01*
X160907050Y-65720000D01*
X161052950Y-65720000D01*
X161271111Y-65698513D01*
X161551034Y-65613599D01*
X161809014Y-65475706D01*
X162035134Y-65290134D01*
X162220706Y-65064014D01*
X162250000Y-65009209D01*
X162279294Y-65064014D01*
X162464866Y-65290134D01*
X162690986Y-65475706D01*
X162948966Y-65613599D01*
X163228889Y-65698513D01*
X163447050Y-65720000D01*
X163592950Y-65720000D01*
X163811111Y-65698513D01*
X164091034Y-65613599D01*
X164349014Y-65475706D01*
X164575134Y-65290134D01*
X164760706Y-65064014D01*
X164790000Y-65009209D01*
X164819294Y-65064014D01*
X164925001Y-65192818D01*
X164925000Y-72167183D01*
X164819294Y-72295986D01*
X164790000Y-72350791D01*
X164760706Y-72295986D01*
X164575134Y-72069866D01*
X164349014Y-71884294D01*
X164091034Y-71746401D01*
X163811111Y-71661487D01*
X163592950Y-71640000D01*
X163447050Y-71640000D01*
X163300967Y-71654388D01*
X160676534Y-69029956D01*
X160648817Y-68996183D01*
X160514059Y-68885589D01*
X160360313Y-68803411D01*
X160193490Y-68752805D01*
X160063477Y-68740000D01*
X160063469Y-68740000D01*
X160020000Y-68735719D01*
X159976531Y-68740000D01*
X157540652Y-68740000D01*
X157497183Y-68735719D01*
X157453714Y-68740000D01*
X157453706Y-68740000D01*
X157323693Y-68752805D01*
X157156869Y-68803411D01*
X157003124Y-68885589D01*
X156902136Y-68968468D01*
X156902134Y-68968470D01*
X156868366Y-68996183D01*
X156840653Y-69029951D01*
X155179951Y-70690654D01*
X155146184Y-70718366D01*
X155118471Y-70752134D01*
X155118468Y-70752137D01*
X155035590Y-70853124D01*
X154953412Y-71006870D01*
X154902805Y-71173693D01*
X154897574Y-71226808D01*
X154890000Y-71303706D01*
X154890000Y-71303714D01*
X154886674Y-71337482D01*
X154854550Y-71369606D01*
X154724866Y-71563692D01*
X154635539Y-71779348D01*
X154590000Y-72008288D01*
X154590000Y-72241712D01*
X154635539Y-72470652D01*
X154724866Y-72686308D01*
X154854550Y-72880394D01*
X155019606Y-73045450D01*
X155213692Y-73175134D01*
X155429348Y-73264461D01*
X155658288Y-73310000D01*
X155891712Y-73310000D01*
X156120652Y-73264461D01*
X156336308Y-73175134D01*
X156530394Y-73045450D01*
X156695450Y-72880394D01*
X156825134Y-72686308D01*
X156914461Y-72470652D01*
X156960000Y-72241712D01*
X156960000Y-72008288D01*
X156914461Y-71779348D01*
X156825134Y-71563692D01*
X156819100Y-71554661D01*
X157863762Y-70510000D01*
X159653422Y-70510000D01*
X160794506Y-71651085D01*
X160688889Y-71661487D01*
X160408966Y-71746401D01*
X160150986Y-71884294D01*
X159924866Y-72069866D01*
X159739294Y-72295986D01*
X159601401Y-72553966D01*
X159516487Y-72833889D01*
X159487815Y-73125000D01*
X159516487Y-73416111D01*
X159601401Y-73696034D01*
X159739294Y-73954014D01*
X159924866Y-74180134D01*
X160095001Y-74319760D01*
X160095000Y-80820241D01*
X159924866Y-80959866D01*
X159739294Y-81185986D01*
X159601401Y-81443966D01*
X159516487Y-81723889D01*
X159487815Y-82015000D01*
X159516487Y-82306111D01*
X159601401Y-82586034D01*
X159739294Y-82844014D01*
X159838585Y-82965000D01*
X159466579Y-82965000D01*
X154185000Y-77683422D01*
X154185000Y-77633288D01*
X154139461Y-77404348D01*
X154050134Y-77188692D01*
X153920450Y-76994606D01*
X153755394Y-76829550D01*
X153561308Y-76699866D01*
X153345652Y-76610539D01*
X153116712Y-76565000D01*
X152883288Y-76565000D01*
X152654348Y-76610539D01*
X152438692Y-76699866D01*
X152244606Y-76829550D01*
X152079550Y-76994606D01*
X151949866Y-77188692D01*
X151860539Y-77404348D01*
X151815000Y-77633288D01*
X151815000Y-77866712D01*
X151860539Y-78095652D01*
X151949866Y-78311308D01*
X152079550Y-78505394D01*
X152244606Y-78670450D01*
X152438692Y-78800134D01*
X152654348Y-78889461D01*
X152883288Y-78935000D01*
X152933422Y-78935000D01*
X158443470Y-84445049D01*
X158471183Y-84478817D01*
X158504951Y-84506530D01*
X158504953Y-84506532D01*
X158587080Y-84573932D01*
X158605941Y-84589411D01*
X158759687Y-84671589D01*
X158926510Y-84722195D01*
X159056523Y-84735000D01*
X159056531Y-84735000D01*
X159100000Y-84739281D01*
X159143469Y-84735000D01*
X162843612Y-84735000D01*
X162887081Y-84739281D01*
X162930550Y-84735000D01*
X162930558Y-84735000D01*
X162937648Y-84734302D01*
X162906950Y-84765000D01*
X151858051Y-84765000D01*
X150595033Y-83501983D01*
X150959250Y-83500000D01*
X151118000Y-83341250D01*
X151118000Y-82142000D01*
X151372000Y-82142000D01*
X151372000Y-83341250D01*
X151530750Y-83500000D01*
X152095000Y-83503072D01*
X152219482Y-83490812D01*
X152339180Y-83454502D01*
X152449494Y-83395537D01*
X152546185Y-83316185D01*
X152625537Y-83219494D01*
X152684502Y-83109180D01*
X152720812Y-82989482D01*
X152733072Y-82865000D01*
X152730000Y-82300750D01*
X152571250Y-82142000D01*
X151372000Y-82142000D01*
X151118000Y-82142000D01*
X151098000Y-82142000D01*
X151098000Y-81888000D01*
X151118000Y-81888000D01*
X151118000Y-80688750D01*
X151372000Y-80688750D01*
X151372000Y-81888000D01*
X152571250Y-81888000D01*
X152730000Y-81729250D01*
X152733072Y-81165000D01*
X152720812Y-81040518D01*
X152684502Y-80920820D01*
X152625537Y-80810506D01*
X152546185Y-80713815D01*
X152449494Y-80634463D01*
X152339180Y-80575498D01*
X152219482Y-80539188D01*
X152095000Y-80526928D01*
X151530750Y-80530000D01*
X151372000Y-80688750D01*
X151118000Y-80688750D01*
X150959250Y-80530000D01*
X150395000Y-80526928D01*
X150270518Y-80539188D01*
X150150820Y-80575498D01*
X150040506Y-80634463D01*
X149943815Y-80713815D01*
X149864463Y-80810506D01*
X149840000Y-80856272D01*
X149840000Y-74283728D01*
X149864463Y-74329494D01*
X149943815Y-74426185D01*
X150040506Y-74505537D01*
X150150820Y-74564502D01*
X150270518Y-74600812D01*
X150395000Y-74613072D01*
X150959250Y-74610000D01*
X151118000Y-74451250D01*
X151118000Y-73252000D01*
X151372000Y-73252000D01*
X151372000Y-74451250D01*
X151530750Y-74610000D01*
X152095000Y-74613072D01*
X152219482Y-74600812D01*
X152339180Y-74564502D01*
X152449494Y-74505537D01*
X152546185Y-74426185D01*
X152625537Y-74329494D01*
X152684502Y-74219180D01*
X152720812Y-74099482D01*
X152733072Y-73975000D01*
X152730000Y-73410750D01*
X152571250Y-73252000D01*
X151372000Y-73252000D01*
X151118000Y-73252000D01*
X151098000Y-73252000D01*
X151098000Y-72998000D01*
X151118000Y-72998000D01*
X151118000Y-71798750D01*
X151372000Y-71798750D01*
X151372000Y-72998000D01*
X152571250Y-72998000D01*
X152730000Y-72839250D01*
X152733072Y-72275000D01*
X152720812Y-72150518D01*
X152684502Y-72030820D01*
X152625537Y-71920506D01*
X152546185Y-71823815D01*
X152449494Y-71744463D01*
X152339180Y-71685498D01*
X152219482Y-71649188D01*
X152095000Y-71636928D01*
X151530750Y-71640000D01*
X151372000Y-71798750D01*
X151118000Y-71798750D01*
X150959250Y-71640000D01*
X150395000Y-71636928D01*
X150270518Y-71649188D01*
X150150820Y-71685498D01*
X150040506Y-71744463D01*
X149943815Y-71823815D01*
X149864463Y-71920506D01*
X149840000Y-71966272D01*
X149840000Y-65393728D01*
X149864463Y-65439494D01*
X149943815Y-65536185D01*
X150040506Y-65615537D01*
X150150820Y-65674502D01*
X150270518Y-65710812D01*
X150395000Y-65723072D01*
X150959250Y-65720000D01*
X151118000Y-65561250D01*
X151118000Y-64362000D01*
X151372000Y-64362000D01*
X151372000Y-65561250D01*
X151530750Y-65720000D01*
X152095000Y-65723072D01*
X152219482Y-65710812D01*
X152339180Y-65674502D01*
X152449494Y-65615537D01*
X152546185Y-65536185D01*
X152625537Y-65439494D01*
X152684502Y-65329180D01*
X152720812Y-65209482D01*
X152733072Y-65085000D01*
X152730000Y-64520750D01*
X152571250Y-64362000D01*
X151372000Y-64362000D01*
X151118000Y-64362000D01*
X151098000Y-64362000D01*
X151098000Y-64108000D01*
X151118000Y-64108000D01*
X151118000Y-62908750D01*
X151372000Y-62908750D01*
X151372000Y-64108000D01*
X152571250Y-64108000D01*
X152730000Y-63949250D01*
X152733072Y-63385000D01*
X152720812Y-63260518D01*
X152684502Y-63140820D01*
X152625537Y-63030506D01*
X152546185Y-62933815D01*
X152449494Y-62854463D01*
X152339180Y-62795498D01*
X152219482Y-62759188D01*
X152095000Y-62746928D01*
X151530750Y-62750000D01*
X151372000Y-62908750D01*
X151118000Y-62908750D01*
X150959250Y-62750000D01*
X150395000Y-62746928D01*
X150270518Y-62759188D01*
X150150820Y-62795498D01*
X150040506Y-62854463D01*
X149943815Y-62933815D01*
X149864463Y-63030506D01*
X149840000Y-63076272D01*
X149840000Y-56503728D01*
X149864463Y-56549494D01*
X149943815Y-56646185D01*
X150040506Y-56725537D01*
X150150820Y-56784502D01*
X150270518Y-56820812D01*
X150395000Y-56833072D01*
X150959250Y-56830000D01*
X151118000Y-56671250D01*
X151118000Y-55472000D01*
X151372000Y-55472000D01*
X151372000Y-56671250D01*
X151530750Y-56830000D01*
X152095000Y-56833072D01*
X152219482Y-56820812D01*
X152339180Y-56784502D01*
X152449494Y-56725537D01*
X152546185Y-56646185D01*
X152625537Y-56549494D01*
X152684502Y-56439180D01*
X152720812Y-56319482D01*
X152733072Y-56195000D01*
X152730000Y-55630750D01*
X152571250Y-55472000D01*
X151372000Y-55472000D01*
X151118000Y-55472000D01*
X151098000Y-55472000D01*
X151098000Y-55218000D01*
X151118000Y-55218000D01*
X151118000Y-54018750D01*
X151372000Y-54018750D01*
X151372000Y-55218000D01*
X152571250Y-55218000D01*
X152730000Y-55059250D01*
X152733072Y-54495000D01*
X152720812Y-54370518D01*
X152684502Y-54250820D01*
X152625537Y-54140506D01*
X152546185Y-54043815D01*
X152449494Y-53964463D01*
X152339180Y-53905498D01*
X152219482Y-53869188D01*
X152095000Y-53856928D01*
X151530750Y-53860000D01*
X151372000Y-54018750D01*
X151118000Y-54018750D01*
X150959250Y-53860000D01*
X150395000Y-53856928D01*
X150270518Y-53869188D01*
X150150820Y-53905498D01*
X150040506Y-53964463D01*
X149943815Y-54043815D01*
X149864463Y-54140506D01*
X149805498Y-54250820D01*
X149784607Y-54319687D01*
X149760134Y-54289866D01*
X149534014Y-54104294D01*
X149276034Y-53966401D01*
X148996111Y-53881487D01*
X148777950Y-53860000D01*
X148632050Y-53860000D01*
X148413889Y-53881487D01*
X148133966Y-53966401D01*
X147875986Y-54104294D01*
X147649866Y-54289866D01*
X147464294Y-54515986D01*
X147435000Y-54570791D01*
X147405706Y-54515986D01*
X147220134Y-54289866D01*
X146994014Y-54104294D01*
X146736034Y-53966401D01*
X146456111Y-53881487D01*
X146237950Y-53860000D01*
X146092050Y-53860000D01*
X145873889Y-53881487D01*
X145593966Y-53966401D01*
X145335986Y-54104294D01*
X145109866Y-54289866D01*
X144924294Y-54515986D01*
X144895000Y-54570791D01*
X144865706Y-54515986D01*
X144680134Y-54289866D01*
X144454014Y-54104294D01*
X144196034Y-53966401D01*
X143916111Y-53881487D01*
X143697950Y-53860000D01*
X143552050Y-53860000D01*
X143333889Y-53881487D01*
X143053966Y-53966401D01*
X142795986Y-54104294D01*
X142569866Y-54289866D01*
X142384294Y-54515986D01*
X142246401Y-54773966D01*
X142161487Y-55053889D01*
X142136262Y-55309999D01*
X140223466Y-55309999D01*
X140180000Y-55305718D01*
X140136534Y-55309999D01*
X140136524Y-55309999D01*
X140006511Y-55322804D01*
X139839688Y-55373410D01*
X139685942Y-55455588D01*
X139665944Y-55472000D01*
X139584954Y-55538467D01*
X139584952Y-55538469D01*
X139551184Y-55566182D01*
X139523471Y-55599950D01*
X137083422Y-58040000D01*
X128593469Y-58040000D01*
X128550000Y-58035719D01*
X128506531Y-58040000D01*
X128506523Y-58040000D01*
X128391306Y-58051348D01*
X128376509Y-58052805D01*
X128325903Y-58068157D01*
X128209687Y-58103411D01*
X128055941Y-58185589D01*
X128055939Y-58185590D01*
X128055940Y-58185590D01*
X127954953Y-58268468D01*
X127954951Y-58268470D01*
X127921183Y-58296183D01*
X127893470Y-58329951D01*
X125079956Y-61143466D01*
X125046183Y-61171183D01*
X124935589Y-61305942D01*
X124853411Y-61459688D01*
X124802805Y-61626511D01*
X124790000Y-61756524D01*
X124790000Y-61756531D01*
X124785719Y-61800000D01*
X124790000Y-61843469D01*
X124790001Y-64923420D01*
X124258178Y-65455243D01*
X124244236Y-65313691D01*
X124162182Y-65043192D01*
X124028932Y-64793899D01*
X123849608Y-64575392D01*
X123631101Y-64396068D01*
X123498142Y-64325000D01*
X123631101Y-64253932D01*
X123849608Y-64074608D01*
X124028932Y-63856101D01*
X124162182Y-63606808D01*
X124244236Y-63336309D01*
X124271943Y-63055000D01*
X124244236Y-62773691D01*
X124162182Y-62503192D01*
X124028932Y-62253899D01*
X123849608Y-62035392D01*
X123631101Y-61856068D01*
X123381808Y-61722818D01*
X123111309Y-61640764D01*
X122900492Y-61620000D01*
X122759508Y-61620000D01*
X122548691Y-61640764D01*
X122278192Y-61722818D01*
X122028899Y-61856068D01*
X121810392Y-62035392D01*
X121631068Y-62253899D01*
X121497818Y-62503192D01*
X121415764Y-62773691D01*
X121388057Y-63055000D01*
X121415764Y-63336309D01*
X121497818Y-63606808D01*
X121631068Y-63856101D01*
X121810392Y-64074608D01*
X122028899Y-64253932D01*
X122161858Y-64325000D01*
X122028899Y-64396068D01*
X121810392Y-64575392D01*
X121631068Y-64793899D01*
X121497818Y-65043192D01*
X121415764Y-65313691D01*
X121388057Y-65595000D01*
X121415764Y-65876309D01*
X121455768Y-66008188D01*
X117922535Y-62474955D01*
X117894818Y-62441182D01*
X117760060Y-62330588D01*
X117606314Y-62248410D01*
X117439491Y-62197804D01*
X117309478Y-62184999D01*
X117309470Y-62184999D01*
X117266001Y-62180718D01*
X117222532Y-62184999D01*
X115393470Y-62184999D01*
X115350001Y-62180718D01*
X115306532Y-62184999D01*
X115306524Y-62184999D01*
X115176511Y-62197804D01*
X115009687Y-62248410D01*
X114855942Y-62330588D01*
X114754954Y-62413467D01*
X114754952Y-62413469D01*
X114721184Y-62441182D01*
X114693471Y-62474950D01*
X114386493Y-62781928D01*
X113300000Y-62781928D01*
X113175518Y-62794188D01*
X113055820Y-62830498D01*
X112945506Y-62889463D01*
X112848815Y-62968815D01*
X112769463Y-63065506D01*
X112710498Y-63175820D01*
X112674188Y-63295518D01*
X112661928Y-63420000D01*
X112661928Y-65120000D01*
X112674188Y-65244482D01*
X112710498Y-65364180D01*
X112769463Y-65474494D01*
X112848815Y-65571185D01*
X112945506Y-65650537D01*
X113055820Y-65709502D01*
X113124687Y-65730393D01*
X113094866Y-65754866D01*
X112909294Y-65980986D01*
X112771401Y-66238966D01*
X112686487Y-66518889D01*
X112657815Y-66810000D01*
X112686487Y-67101111D01*
X112771401Y-67381034D01*
X112909294Y-67639014D01*
X113094866Y-67865134D01*
X113320986Y-68050706D01*
X113375791Y-68080000D01*
X113320986Y-68109294D01*
X113094866Y-68294866D01*
X112909294Y-68520986D01*
X112771401Y-68778966D01*
X112686487Y-69058889D01*
X112657815Y-69350000D01*
X112686487Y-69641111D01*
X112771401Y-69921034D01*
X112909294Y-70179014D01*
X113072555Y-70377948D01*
X111979956Y-71470547D01*
X111946183Y-71498264D01*
X111835589Y-71633023D01*
X111753411Y-71786769D01*
X111702805Y-71953592D01*
X111690000Y-72083605D01*
X111690000Y-72083612D01*
X111685719Y-72127081D01*
X111690000Y-72170550D01*
X111690001Y-85420735D01*
X111628817Y-85346183D01*
X111595051Y-85318472D01*
X105810000Y-79533422D01*
X105810000Y-79509521D01*
X105839759Y-79489637D01*
X106039637Y-79289759D01*
X106196680Y-79054727D01*
X106304853Y-78793574D01*
X106360000Y-78516335D01*
X106360000Y-78233665D01*
X106304853Y-77956426D01*
X106196680Y-77695273D01*
X106039637Y-77460241D01*
X105839759Y-77260363D01*
X105604727Y-77103320D01*
X105343574Y-76995147D01*
X105066335Y-76940000D01*
X104783665Y-76940000D01*
X104506426Y-76995147D01*
X104245273Y-77103320D01*
X104010241Y-77260363D01*
X103810363Y-77460241D01*
X103676308Y-77660869D01*
X103661671Y-77633486D01*
X103417702Y-77561903D01*
X102604605Y-78375000D01*
X102245395Y-78375000D01*
X101432298Y-77561903D01*
X101188329Y-77633486D01*
X101067429Y-77888996D01*
X100998700Y-78163184D01*
X100984783Y-78445512D01*
X100375213Y-78445512D01*
X100453445Y-78187618D01*
X100485013Y-77867102D01*
X100453445Y-77546586D01*
X100403609Y-77382298D01*
X101611903Y-77382298D01*
X102425000Y-78195395D01*
X103238097Y-77382298D01*
X103166514Y-77138329D01*
X102911004Y-77017429D01*
X102636816Y-76948700D01*
X102354488Y-76934783D01*
X102074870Y-76976213D01*
X101808708Y-77071397D01*
X101683486Y-77138329D01*
X101611903Y-77382298D01*
X100403609Y-77382298D01*
X100359954Y-77238387D01*
X100208133Y-76954350D01*
X100003816Y-76705388D01*
X99754854Y-76501071D01*
X99470817Y-76349250D01*
X99162618Y-76255759D01*
X98922424Y-76232102D01*
X98761780Y-76232102D01*
X98521586Y-76255759D01*
X98213387Y-76349250D01*
X97929350Y-76501071D01*
X97680388Y-76705388D01*
X97476071Y-76954350D01*
X97324250Y-77238387D01*
X97230759Y-77546586D01*
X97199191Y-77867102D01*
X92127000Y-77867102D01*
X92127000Y-71208288D01*
X93090000Y-71208288D01*
X93090000Y-71441712D01*
X93135539Y-71670652D01*
X93224866Y-71886308D01*
X93354550Y-72080394D01*
X93519606Y-72245450D01*
X93713692Y-72375134D01*
X93929348Y-72464461D01*
X94158288Y-72510000D01*
X94391712Y-72510000D01*
X94620652Y-72464461D01*
X94836308Y-72375134D01*
X94860553Y-72358934D01*
X94798815Y-72409601D01*
X93384601Y-73823815D01*
X93305249Y-73920506D01*
X93246284Y-74030820D01*
X93209974Y-74150518D01*
X93197714Y-74275000D01*
X93209974Y-74399482D01*
X93246284Y-74519180D01*
X93305249Y-74629494D01*
X93384601Y-74726185D01*
X94798815Y-76140399D01*
X94895506Y-76219751D01*
X95005820Y-76278716D01*
X95125518Y-76315026D01*
X95250000Y-76327286D01*
X95374482Y-76315026D01*
X95494180Y-76278716D01*
X95604494Y-76219751D01*
X95701185Y-76140399D01*
X96681584Y-75160000D01*
X101752962Y-75160000D01*
X101845273Y-75221680D01*
X102106426Y-75329853D01*
X102383665Y-75385000D01*
X102666335Y-75385000D01*
X102943574Y-75329853D01*
X103204727Y-75221680D01*
X103439759Y-75064637D01*
X103639637Y-74864759D01*
X103796680Y-74629727D01*
X103801357Y-74618435D01*
X103833963Y-74687420D01*
X104001481Y-74913414D01*
X104209869Y-75102385D01*
X104451119Y-75247070D01*
X104715960Y-75341909D01*
X104938000Y-75220624D01*
X104938000Y-74077000D01*
X105192000Y-74077000D01*
X105192000Y-75220624D01*
X105414040Y-75341909D01*
X105678881Y-75247070D01*
X105920131Y-75102385D01*
X106128519Y-74913414D01*
X106296037Y-74687420D01*
X106416246Y-74433087D01*
X106456904Y-74299039D01*
X106334915Y-74077000D01*
X105192000Y-74077000D01*
X104938000Y-74077000D01*
X104918000Y-74077000D01*
X104918000Y-73823000D01*
X104938000Y-73823000D01*
X104938000Y-72679376D01*
X105192000Y-72679376D01*
X105192000Y-73823000D01*
X106334915Y-73823000D01*
X106456904Y-73600961D01*
X106416246Y-73466913D01*
X106296037Y-73212580D01*
X106128519Y-72986586D01*
X105920131Y-72797615D01*
X105678881Y-72652930D01*
X105414040Y-72558091D01*
X105192000Y-72679376D01*
X104938000Y-72679376D01*
X104715960Y-72558091D01*
X104451119Y-72652930D01*
X104209869Y-72797615D01*
X104001481Y-72986586D01*
X103833963Y-73212580D01*
X103801357Y-73281565D01*
X103796680Y-73270273D01*
X103639637Y-73035241D01*
X103439759Y-72835363D01*
X103410000Y-72815479D01*
X103410000Y-72564576D01*
X106385009Y-69589568D01*
X106485363Y-69739759D01*
X106685241Y-69939637D01*
X106920273Y-70096680D01*
X107181426Y-70204853D01*
X107458665Y-70260000D01*
X107741335Y-70260000D01*
X108018574Y-70204853D01*
X108279727Y-70096680D01*
X108514759Y-69939637D01*
X108714637Y-69739759D01*
X108871680Y-69504727D01*
X108979853Y-69243574D01*
X109035000Y-68966335D01*
X109035000Y-68683665D01*
X108979853Y-68406426D01*
X108871680Y-68145273D01*
X108800902Y-68039346D01*
X108808535Y-68030045D01*
X110995050Y-65843531D01*
X111028817Y-65815819D01*
X111078731Y-65755000D01*
X111139411Y-65681061D01*
X111221589Y-65527316D01*
X111272195Y-65360492D01*
X111275677Y-65325134D01*
X111285000Y-65230479D01*
X111285000Y-65230471D01*
X111289281Y-65187002D01*
X111285000Y-65143533D01*
X111285000Y-63509521D01*
X111314759Y-63489637D01*
X111514637Y-63289759D01*
X111671680Y-63054727D01*
X111779853Y-62793574D01*
X111835000Y-62516335D01*
X111835000Y-62233665D01*
X111779853Y-61956426D01*
X111671680Y-61695273D01*
X111514637Y-61460241D01*
X111314759Y-61260363D01*
X111079727Y-61103320D01*
X110818574Y-60995147D01*
X110541335Y-60940000D01*
X110258665Y-60940000D01*
X109981426Y-60995147D01*
X109720273Y-61103320D01*
X109485241Y-61260363D01*
X109285363Y-61460241D01*
X109151308Y-61660869D01*
X109136671Y-61633486D01*
X108892702Y-61561903D01*
X108079605Y-62375000D01*
X108892702Y-63188097D01*
X109136671Y-63116514D01*
X109150324Y-63087659D01*
X109285363Y-63289759D01*
X109485241Y-63489637D01*
X109515000Y-63509521D01*
X109515000Y-63549846D01*
X109515001Y-63549856D01*
X109515000Y-64820423D01*
X108817251Y-65518172D01*
X108798932Y-65483899D01*
X108619608Y-65265392D01*
X108401101Y-65086068D01*
X108151808Y-64952818D01*
X107881309Y-64870764D01*
X107670492Y-64850000D01*
X107529508Y-64850000D01*
X107318691Y-64870764D01*
X107048192Y-64952818D01*
X106798899Y-65086068D01*
X106580392Y-65265392D01*
X106401068Y-65483899D01*
X106267818Y-65733192D01*
X106185764Y-66003691D01*
X106158057Y-66285000D01*
X106185764Y-66566309D01*
X106267818Y-66836808D01*
X106395582Y-67075837D01*
X104145825Y-69325594D01*
X104139236Y-69258691D01*
X104057182Y-68988192D01*
X103923932Y-68738899D01*
X103744608Y-68520392D01*
X103526101Y-68341068D01*
X103399971Y-68273650D01*
X103404727Y-68271680D01*
X103639759Y-68114637D01*
X103839637Y-67914759D01*
X103996680Y-67679727D01*
X104104853Y-67418574D01*
X104160000Y-67141335D01*
X104160000Y-66858665D01*
X104104853Y-66581426D01*
X103996680Y-66320273D01*
X103839637Y-66085241D01*
X103639759Y-65885363D01*
X103404727Y-65728320D01*
X103143574Y-65620147D01*
X102866335Y-65565000D01*
X102583665Y-65565000D01*
X102306426Y-65620147D01*
X102045273Y-65728320D01*
X101810241Y-65885363D01*
X101610363Y-66085241D01*
X101453320Y-66320273D01*
X101345147Y-66581426D01*
X101290000Y-66858665D01*
X101290000Y-67141335D01*
X101345147Y-67418574D01*
X101453320Y-67679727D01*
X101610363Y-67914759D01*
X101810241Y-68114637D01*
X102045273Y-68271680D01*
X102050029Y-68273650D01*
X101923899Y-68341068D01*
X101705392Y-68520392D01*
X101526068Y-68738899D01*
X101392818Y-68988192D01*
X101310764Y-69258691D01*
X101283057Y-69540000D01*
X101300125Y-69713296D01*
X100573422Y-70440000D01*
X95065844Y-70440000D01*
X95030394Y-70404550D01*
X94836308Y-70274866D01*
X94620652Y-70185539D01*
X94391712Y-70140000D01*
X94158288Y-70140000D01*
X93929348Y-70185539D01*
X93713692Y-70274866D01*
X93519606Y-70404550D01*
X93354550Y-70569606D01*
X93224866Y-70763692D01*
X93135539Y-70979348D01*
X93090000Y-71208288D01*
X92127000Y-71208288D01*
X92127000Y-68359281D01*
X92177818Y-68526808D01*
X92311068Y-68776101D01*
X92490392Y-68994608D01*
X92708899Y-69173932D01*
X92958192Y-69307182D01*
X93228691Y-69389236D01*
X93439508Y-69410000D01*
X93580492Y-69410000D01*
X93791309Y-69389236D01*
X94061808Y-69307182D01*
X94311101Y-69173932D01*
X94529608Y-68994608D01*
X94708932Y-68776101D01*
X94776350Y-68649971D01*
X94778320Y-68654727D01*
X94935363Y-68889759D01*
X95135241Y-69089637D01*
X95370273Y-69246680D01*
X95631426Y-69354853D01*
X95908665Y-69410000D01*
X96191335Y-69410000D01*
X96468574Y-69354853D01*
X96729727Y-69246680D01*
X96964759Y-69089637D01*
X97164637Y-68889759D01*
X97321680Y-68654727D01*
X97429853Y-68393574D01*
X97485000Y-68116335D01*
X97485000Y-67833665D01*
X97429853Y-67556426D01*
X97321680Y-67295273D01*
X97164637Y-67060241D01*
X96964759Y-66860363D01*
X96729727Y-66703320D01*
X96468574Y-66595147D01*
X96191335Y-66540000D01*
X95908665Y-66540000D01*
X95631426Y-66595147D01*
X95370273Y-66703320D01*
X95135241Y-66860363D01*
X94935363Y-67060241D01*
X94778320Y-67295273D01*
X94776350Y-67300029D01*
X94708932Y-67173899D01*
X94529608Y-66955392D01*
X94311101Y-66776068D01*
X94061808Y-66642818D01*
X93791309Y-66560764D01*
X93580492Y-66540000D01*
X93439508Y-66540000D01*
X93228691Y-66560764D01*
X92958192Y-66642818D01*
X92708899Y-66776068D01*
X92490392Y-66955392D01*
X92311068Y-67173899D01*
X92177818Y-67423192D01*
X92127000Y-67590719D01*
X92127000Y-62575000D01*
X92261928Y-62575000D01*
X92274188Y-62699482D01*
X92310498Y-62819180D01*
X92369463Y-62929494D01*
X92448815Y-63026185D01*
X92545506Y-63105537D01*
X92655820Y-63164502D01*
X92674127Y-63170056D01*
X92607688Y-63236495D01*
X92439701Y-63487905D01*
X92323989Y-63767257D01*
X92265000Y-64063816D01*
X92265000Y-64366184D01*
X92323989Y-64662743D01*
X92439701Y-64942095D01*
X92607688Y-65193505D01*
X92821495Y-65407312D01*
X93072905Y-65575299D01*
X93352257Y-65691011D01*
X93648816Y-65750000D01*
X93951184Y-65750000D01*
X94247743Y-65691011D01*
X94527095Y-65575299D01*
X94778505Y-65407312D01*
X94992312Y-65193505D01*
X95160299Y-64942095D01*
X95276011Y-64662743D01*
X95335000Y-64366184D01*
X95335000Y-64063816D01*
X95276011Y-63767257D01*
X95160299Y-63487905D01*
X94992312Y-63236495D01*
X94925873Y-63170056D01*
X94944180Y-63164502D01*
X95054494Y-63105537D01*
X95151185Y-63026185D01*
X95230537Y-62929494D01*
X95289502Y-62819180D01*
X95325812Y-62699482D01*
X95338072Y-62575000D01*
X95335000Y-61960750D01*
X95176250Y-61802000D01*
X93927000Y-61802000D01*
X93927000Y-61822000D01*
X93673000Y-61822000D01*
X93673000Y-61802000D01*
X92423750Y-61802000D01*
X92265000Y-61960750D01*
X92261928Y-62575000D01*
X92127000Y-62575000D01*
X92127000Y-60775000D01*
X92261928Y-60775000D01*
X92265000Y-61389250D01*
X92423750Y-61548000D01*
X93673000Y-61548000D01*
X93673000Y-60298750D01*
X93927000Y-60298750D01*
X93927000Y-61548000D01*
X95176250Y-61548000D01*
X95335000Y-61389250D01*
X95338072Y-60775000D01*
X96236928Y-60775000D01*
X96236928Y-62575000D01*
X96249188Y-62699482D01*
X96285498Y-62819180D01*
X96344463Y-62929494D01*
X96423815Y-63026185D01*
X96520506Y-63105537D01*
X96630820Y-63164502D01*
X96649127Y-63170056D01*
X96582688Y-63236495D01*
X96414701Y-63487905D01*
X96298989Y-63767257D01*
X96240000Y-64063816D01*
X96240000Y-64366184D01*
X96298989Y-64662743D01*
X96414701Y-64942095D01*
X96582688Y-65193505D01*
X96796495Y-65407312D01*
X97047905Y-65575299D01*
X97327257Y-65691011D01*
X97623816Y-65750000D01*
X97926184Y-65750000D01*
X98222743Y-65691011D01*
X98502095Y-65575299D01*
X98753505Y-65407312D01*
X98967312Y-65193505D01*
X99135299Y-64942095D01*
X99251011Y-64662743D01*
X99310000Y-64366184D01*
X99310000Y-64063816D01*
X99251011Y-63767257D01*
X99135299Y-63487905D01*
X99054982Y-63367702D01*
X107086903Y-63367702D01*
X107158486Y-63611671D01*
X107413996Y-63732571D01*
X107688184Y-63801300D01*
X107970512Y-63815217D01*
X108250130Y-63773787D01*
X108516292Y-63678603D01*
X108641514Y-63611671D01*
X108713097Y-63367702D01*
X107900000Y-62554605D01*
X107086903Y-63367702D01*
X99054982Y-63367702D01*
X98967312Y-63236495D01*
X98900873Y-63170056D01*
X98919180Y-63164502D01*
X99029494Y-63105537D01*
X99126185Y-63026185D01*
X99205537Y-62929494D01*
X99264502Y-62819180D01*
X99300812Y-62699482D01*
X99313072Y-62575000D01*
X99313072Y-62445512D01*
X106459783Y-62445512D01*
X106501213Y-62725130D01*
X106596397Y-62991292D01*
X106663329Y-63116514D01*
X106907298Y-63188097D01*
X107720395Y-62375000D01*
X106907298Y-61561903D01*
X106663329Y-61633486D01*
X106542429Y-61888996D01*
X106473700Y-62163184D01*
X106459783Y-62445512D01*
X99313072Y-62445512D01*
X99313072Y-60775000D01*
X99300812Y-60650518D01*
X99264502Y-60530820D01*
X99205537Y-60420506D01*
X99126185Y-60323815D01*
X99029494Y-60244463D01*
X98919180Y-60185498D01*
X98799482Y-60149188D01*
X98675000Y-60136928D01*
X96875000Y-60136928D01*
X96750518Y-60149188D01*
X96630820Y-60185498D01*
X96520506Y-60244463D01*
X96423815Y-60323815D01*
X96344463Y-60420506D01*
X96285498Y-60530820D01*
X96249188Y-60650518D01*
X96236928Y-60775000D01*
X95338072Y-60775000D01*
X95325812Y-60650518D01*
X95289502Y-60530820D01*
X95230537Y-60420506D01*
X95151185Y-60323815D01*
X95054494Y-60244463D01*
X94944180Y-60185498D01*
X94824482Y-60149188D01*
X94700000Y-60136928D01*
X94085750Y-60140000D01*
X93927000Y-60298750D01*
X93673000Y-60298750D01*
X93514250Y-60140000D01*
X92900000Y-60136928D01*
X92775518Y-60149188D01*
X92655820Y-60185498D01*
X92545506Y-60244463D01*
X92448815Y-60323815D01*
X92369463Y-60420506D01*
X92310498Y-60530820D01*
X92274188Y-60650518D01*
X92261928Y-60775000D01*
X92127000Y-60775000D01*
X92127000Y-59070000D01*
X100491928Y-59070000D01*
X100491928Y-60820000D01*
X100521001Y-61115186D01*
X100607104Y-61399028D01*
X100746927Y-61660618D01*
X100935097Y-61889903D01*
X101164382Y-62078073D01*
X101425972Y-62217896D01*
X101709814Y-62303999D01*
X102005000Y-62333072D01*
X103755000Y-62333072D01*
X104050186Y-62303999D01*
X104334028Y-62217896D01*
X104595618Y-62078073D01*
X104824903Y-61889903D01*
X105013073Y-61660618D01*
X105152896Y-61399028D01*
X105157971Y-61382298D01*
X107086903Y-61382298D01*
X107900000Y-62195395D01*
X108713097Y-61382298D01*
X108641514Y-61138329D01*
X108386004Y-61017429D01*
X108111816Y-60948700D01*
X107829488Y-60934783D01*
X107549870Y-60976213D01*
X107283708Y-61071397D01*
X107158486Y-61138329D01*
X107086903Y-61382298D01*
X105157971Y-61382298D01*
X105238999Y-61115186D01*
X105268072Y-60820000D01*
X105268072Y-59070000D01*
X105238999Y-58774814D01*
X105152896Y-58490972D01*
X105013073Y-58229382D01*
X104824903Y-58000097D01*
X104595618Y-57811927D01*
X104334028Y-57672104D01*
X104205357Y-57633072D01*
X107630000Y-57633072D01*
X107754482Y-57620812D01*
X107874180Y-57584502D01*
X107984494Y-57525537D01*
X108081185Y-57446185D01*
X108160537Y-57349494D01*
X108219502Y-57239180D01*
X108255812Y-57119482D01*
X108268072Y-56995000D01*
X108268072Y-54779872D01*
X112940000Y-54779872D01*
X112940000Y-55220128D01*
X113025890Y-55651925D01*
X113194369Y-56058669D01*
X113438962Y-56424729D01*
X113750271Y-56736038D01*
X114116331Y-56980631D01*
X114523075Y-57149110D01*
X114954872Y-57235000D01*
X115395128Y-57235000D01*
X115826925Y-57149110D01*
X116233669Y-56980631D01*
X116599729Y-56736038D01*
X116911038Y-56424729D01*
X117155631Y-56058669D01*
X117324110Y-55651925D01*
X117410000Y-55220128D01*
X117410000Y-55029796D01*
X122655000Y-55029796D01*
X122655000Y-55460204D01*
X122738969Y-55882341D01*
X122903678Y-56279985D01*
X123142800Y-56637856D01*
X123447144Y-56942200D01*
X123805015Y-57181322D01*
X124202659Y-57346031D01*
X124624796Y-57430000D01*
X125055204Y-57430000D01*
X125477341Y-57346031D01*
X125874985Y-57181322D01*
X126232856Y-56942200D01*
X126537200Y-56637856D01*
X126776322Y-56279985D01*
X126941031Y-55882341D01*
X127025000Y-55460204D01*
X127025000Y-55029796D01*
X127355000Y-55029796D01*
X127355000Y-55460204D01*
X127438969Y-55882341D01*
X127603678Y-56279985D01*
X127842800Y-56637856D01*
X128147144Y-56942200D01*
X128505015Y-57181322D01*
X128902659Y-57346031D01*
X129324796Y-57430000D01*
X129755204Y-57430000D01*
X130177341Y-57346031D01*
X130574985Y-57181322D01*
X130932856Y-56942200D01*
X131237200Y-56637856D01*
X131476322Y-56279985D01*
X131641031Y-55882341D01*
X131725000Y-55460204D01*
X131725000Y-55029796D01*
X132055000Y-55029796D01*
X132055000Y-55460204D01*
X132138969Y-55882341D01*
X132303678Y-56279985D01*
X132542800Y-56637856D01*
X132847144Y-56942200D01*
X133205015Y-57181322D01*
X133602659Y-57346031D01*
X134024796Y-57430000D01*
X134455204Y-57430000D01*
X134877341Y-57346031D01*
X135274985Y-57181322D01*
X135632856Y-56942200D01*
X135937200Y-56637856D01*
X136176322Y-56279985D01*
X136341031Y-55882341D01*
X136425000Y-55460204D01*
X136425000Y-55029796D01*
X136341031Y-54607659D01*
X136176322Y-54210015D01*
X135937200Y-53852144D01*
X135632856Y-53547800D01*
X135274985Y-53308678D01*
X134877341Y-53143969D01*
X134455204Y-53060000D01*
X134024796Y-53060000D01*
X133602659Y-53143969D01*
X133205015Y-53308678D01*
X132847144Y-53547800D01*
X132542800Y-53852144D01*
X132303678Y-54210015D01*
X132138969Y-54607659D01*
X132055000Y-55029796D01*
X131725000Y-55029796D01*
X131641031Y-54607659D01*
X131476322Y-54210015D01*
X131237200Y-53852144D01*
X130932856Y-53547800D01*
X130574985Y-53308678D01*
X130177341Y-53143969D01*
X129755204Y-53060000D01*
X129324796Y-53060000D01*
X128902659Y-53143969D01*
X128505015Y-53308678D01*
X128147144Y-53547800D01*
X127842800Y-53852144D01*
X127603678Y-54210015D01*
X127438969Y-54607659D01*
X127355000Y-55029796D01*
X127025000Y-55029796D01*
X126941031Y-54607659D01*
X126776322Y-54210015D01*
X126537200Y-53852144D01*
X126232856Y-53547800D01*
X125874985Y-53308678D01*
X125477341Y-53143969D01*
X125055204Y-53060000D01*
X124624796Y-53060000D01*
X124202659Y-53143969D01*
X123805015Y-53308678D01*
X123447144Y-53547800D01*
X123142800Y-53852144D01*
X122903678Y-54210015D01*
X122738969Y-54607659D01*
X122655000Y-55029796D01*
X117410000Y-55029796D01*
X117410000Y-54779872D01*
X117324110Y-54348075D01*
X117155631Y-53941331D01*
X116911038Y-53575271D01*
X116599729Y-53263962D01*
X116233669Y-53019369D01*
X115826925Y-52850890D01*
X115395128Y-52765000D01*
X114954872Y-52765000D01*
X114523075Y-52850890D01*
X114116331Y-53019369D01*
X113750271Y-53263962D01*
X113438962Y-53575271D01*
X113194369Y-53941331D01*
X113025890Y-54348075D01*
X112940000Y-54779872D01*
X108268072Y-54779872D01*
X108268072Y-53495000D01*
X108255812Y-53370518D01*
X108219502Y-53250820D01*
X108160537Y-53140506D01*
X108081185Y-53043815D01*
X107984494Y-52964463D01*
X107874180Y-52905498D01*
X107754482Y-52869188D01*
X107630000Y-52856928D01*
X104130000Y-52856928D01*
X104005518Y-52869188D01*
X103885820Y-52905498D01*
X103775506Y-52964463D01*
X103678815Y-53043815D01*
X103599463Y-53140506D01*
X103540498Y-53250820D01*
X103504188Y-53370518D01*
X103491928Y-53495000D01*
X103491928Y-56995000D01*
X103504188Y-57119482D01*
X103540498Y-57239180D01*
X103599463Y-57349494D01*
X103678815Y-57446185D01*
X103775506Y-57525537D01*
X103852131Y-57566494D01*
X103755000Y-57556928D01*
X102005000Y-57556928D01*
X101709814Y-57586001D01*
X101425972Y-57672104D01*
X101164382Y-57811927D01*
X100935097Y-58000097D01*
X100746927Y-58229382D01*
X100607104Y-58490972D01*
X100521001Y-58774814D01*
X100491928Y-59070000D01*
X92127000Y-59070000D01*
X92127000Y-56995000D01*
X97741928Y-56995000D01*
X97754188Y-57119482D01*
X97790498Y-57239180D01*
X97849463Y-57349494D01*
X97928815Y-57446185D01*
X98025506Y-57525537D01*
X98135820Y-57584502D01*
X98255518Y-57620812D01*
X98380000Y-57633072D01*
X99594250Y-57630000D01*
X99753000Y-57471250D01*
X99753000Y-55372000D01*
X100007000Y-55372000D01*
X100007000Y-57471250D01*
X100165750Y-57630000D01*
X101380000Y-57633072D01*
X101504482Y-57620812D01*
X101624180Y-57584502D01*
X101734494Y-57525537D01*
X101831185Y-57446185D01*
X101910537Y-57349494D01*
X101969502Y-57239180D01*
X102005812Y-57119482D01*
X102018072Y-56995000D01*
X102015000Y-55530750D01*
X101856250Y-55372000D01*
X100007000Y-55372000D01*
X99753000Y-55372000D01*
X97903750Y-55372000D01*
X97745000Y-55530750D01*
X97741928Y-56995000D01*
X92127000Y-56995000D01*
X92127000Y-53495000D01*
X97741928Y-53495000D01*
X97745000Y-54959250D01*
X97903750Y-55118000D01*
X99753000Y-55118000D01*
X99753000Y-53018750D01*
X100007000Y-53018750D01*
X100007000Y-55118000D01*
X101856250Y-55118000D01*
X102015000Y-54959250D01*
X102018072Y-53495000D01*
X102005812Y-53370518D01*
X101969502Y-53250820D01*
X101910537Y-53140506D01*
X101831185Y-53043815D01*
X101734494Y-52964463D01*
X101624180Y-52905498D01*
X101504482Y-52869188D01*
X101380000Y-52856928D01*
X100165750Y-52860000D01*
X100007000Y-53018750D01*
X99753000Y-53018750D01*
X99594250Y-52860000D01*
X98380000Y-52856928D01*
X98255518Y-52869188D01*
X98135820Y-52905498D01*
X98025506Y-52964463D01*
X97928815Y-53043815D01*
X97849463Y-53140506D01*
X97790498Y-53250820D01*
X97754188Y-53370518D01*
X97741928Y-53495000D01*
X92127000Y-53495000D01*
X92127000Y-53027615D01*
X92145256Y-52702469D01*
X92199198Y-52384923D01*
X92288345Y-52075424D01*
X92411586Y-51777827D01*
X92567360Y-51495907D01*
X92753714Y-51233198D01*
X92968305Y-50992999D01*
X93208435Y-50778334D01*
X93471087Y-50591896D01*
X93752956Y-50436035D01*
X94050507Y-50312703D01*
X94359982Y-50223457D01*
X94556566Y-50190000D01*
X169108730Y-50190000D01*
X169167000Y-50199875D01*
G36*
X142740000Y-57080833D02*
G01*
X142740001Y-63040240D01*
X142569866Y-63179866D01*
X142384294Y-63405986D01*
X142246401Y-63663966D01*
X142161487Y-63943889D01*
X142132815Y-64235000D01*
X142161487Y-64526111D01*
X142246401Y-64806034D01*
X142384294Y-65064014D01*
X142569866Y-65290134D01*
X142795986Y-65475706D01*
X143053966Y-65613599D01*
X143333889Y-65698513D01*
X143552050Y-65720000D01*
X143697950Y-65720000D01*
X143916111Y-65698513D01*
X144196034Y-65613599D01*
X144454014Y-65475706D01*
X144680134Y-65290134D01*
X144865706Y-65064014D01*
X144895000Y-65009209D01*
X144924294Y-65064014D01*
X145109866Y-65290134D01*
X145335986Y-65475706D01*
X145593966Y-65613599D01*
X145873889Y-65698513D01*
X146092050Y-65720000D01*
X146237950Y-65720000D01*
X146456111Y-65698513D01*
X146736034Y-65613599D01*
X146994014Y-65475706D01*
X147220134Y-65290134D01*
X147405706Y-65064014D01*
X147435000Y-65009209D01*
X147464294Y-65064014D01*
X147570000Y-65192817D01*
X147570001Y-72167182D01*
X147464294Y-72295986D01*
X147435000Y-72350791D01*
X147405706Y-72295986D01*
X147220134Y-72069866D01*
X146994014Y-71884294D01*
X146736034Y-71746401D01*
X146456111Y-71661487D01*
X146237950Y-71640000D01*
X146092050Y-71640000D01*
X145873889Y-71661487D01*
X145593966Y-71746401D01*
X145335986Y-71884294D01*
X145109866Y-72069866D01*
X144924294Y-72295986D01*
X144895000Y-72350791D01*
X144865706Y-72295986D01*
X144680134Y-72069866D01*
X144510000Y-71930241D01*
X144510000Y-70968465D01*
X144514281Y-70924999D01*
X144510000Y-70881533D01*
X144510000Y-70881523D01*
X144497195Y-70751510D01*
X144446589Y-70584687D01*
X144364411Y-70430941D01*
X144285416Y-70334686D01*
X144281532Y-70329953D01*
X144281530Y-70329951D01*
X144253817Y-70296183D01*
X144220049Y-70268470D01*
X141531534Y-67579956D01*
X141503817Y-67546183D01*
X141369059Y-67435589D01*
X141215313Y-67353411D01*
X141048490Y-67302805D01*
X140918477Y-67290000D01*
X140918469Y-67290000D01*
X140875000Y-67285719D01*
X140831531Y-67290000D01*
X135768469Y-67290000D01*
X135725000Y-67285719D01*
X135681531Y-67290000D01*
X135681523Y-67290000D01*
X135551510Y-67302805D01*
X135384687Y-67353411D01*
X135232041Y-67435001D01*
X135230941Y-67435589D01*
X135129953Y-67518468D01*
X135129951Y-67518470D01*
X135096183Y-67546183D01*
X135068470Y-67579951D01*
X132858422Y-69790000D01*
X131580078Y-69790000D01*
X131469608Y-69655392D01*
X131251101Y-69476068D01*
X131118142Y-69405000D01*
X131251101Y-69333932D01*
X131469608Y-69154608D01*
X131648932Y-68936101D01*
X131782182Y-68686808D01*
X131864236Y-68416309D01*
X131891943Y-68135000D01*
X131864236Y-67853691D01*
X131782182Y-67583192D01*
X131648932Y-67333899D01*
X131469608Y-67115392D01*
X131251101Y-66936068D01*
X131118142Y-66865000D01*
X131251101Y-66793932D01*
X131469608Y-66614608D01*
X131648932Y-66396101D01*
X131782182Y-66146808D01*
X131864236Y-65876309D01*
X131891943Y-65595000D01*
X131864236Y-65313691D01*
X131782182Y-65043192D01*
X131648932Y-64793899D01*
X131469608Y-64575392D01*
X131251101Y-64396068D01*
X131118142Y-64325000D01*
X131251101Y-64253932D01*
X131469608Y-64074608D01*
X131648932Y-63856101D01*
X131782182Y-63606808D01*
X131864236Y-63336309D01*
X131891943Y-63055000D01*
X131864236Y-62773691D01*
X131782182Y-62503192D01*
X131648932Y-62253899D01*
X131469608Y-62035392D01*
X131251101Y-61856068D01*
X131001808Y-61722818D01*
X130731309Y-61640764D01*
X130520492Y-61620000D01*
X130379508Y-61620000D01*
X130168691Y-61640764D01*
X129898192Y-61722818D01*
X129648899Y-61856068D01*
X129430392Y-62035392D01*
X129251068Y-62253899D01*
X129117818Y-62503192D01*
X129035764Y-62773691D01*
X129008057Y-63055000D01*
X129035764Y-63336309D01*
X129117818Y-63606808D01*
X129251068Y-63856101D01*
X129430392Y-64074608D01*
X129648899Y-64253932D01*
X129781858Y-64325000D01*
X129648899Y-64396068D01*
X129430392Y-64575392D01*
X129251068Y-64793899D01*
X129117818Y-65043192D01*
X129035764Y-65313691D01*
X129008057Y-65595000D01*
X129035764Y-65876309D01*
X129117818Y-66146808D01*
X129251068Y-66396101D01*
X129430392Y-66614608D01*
X129648899Y-66793932D01*
X129781858Y-66865000D01*
X129648899Y-66936068D01*
X129430392Y-67115392D01*
X129251068Y-67333899D01*
X129117818Y-67583192D01*
X129035764Y-67853691D01*
X129008057Y-68135000D01*
X129035764Y-68416309D01*
X129117818Y-68686808D01*
X129251068Y-68936101D01*
X129430392Y-69154608D01*
X129648899Y-69333932D01*
X129781858Y-69405000D01*
X129648899Y-69476068D01*
X129430392Y-69655392D01*
X129251068Y-69873899D01*
X129117818Y-70123192D01*
X129035764Y-70393691D01*
X129008057Y-70675000D01*
X129035764Y-70956309D01*
X129117818Y-71226808D01*
X129251068Y-71476101D01*
X129430392Y-71694608D01*
X129648899Y-71873932D01*
X129781858Y-71945000D01*
X129648899Y-72016068D01*
X129430392Y-72195392D01*
X129251068Y-72413899D01*
X129117818Y-72663192D01*
X129035764Y-72933691D01*
X129008057Y-73215000D01*
X129035764Y-73496309D01*
X129117818Y-73766808D01*
X129251068Y-74016101D01*
X129430392Y-74234608D01*
X129648899Y-74413932D01*
X129781858Y-74485000D01*
X129648899Y-74556068D01*
X129430392Y-74735392D01*
X129251068Y-74953899D01*
X129117818Y-75203192D01*
X129035764Y-75473691D01*
X129008057Y-75755000D01*
X129035764Y-76036309D01*
X129117818Y-76306808D01*
X129251068Y-76556101D01*
X129430392Y-76774608D01*
X129648899Y-76953932D01*
X129786682Y-77027579D01*
X129594869Y-77142615D01*
X129386481Y-77331586D01*
X129218963Y-77557580D01*
X129098754Y-77811913D01*
X129058096Y-77945961D01*
X129180085Y-78168000D01*
X130323000Y-78168000D01*
X130323000Y-78148000D01*
X130577000Y-78148000D01*
X130577000Y-78168000D01*
X131719915Y-78168000D01*
X131841904Y-77945961D01*
X131801246Y-77811913D01*
X131681037Y-77557580D01*
X131513519Y-77331586D01*
X131305131Y-77142615D01*
X131113318Y-77027579D01*
X131251101Y-76953932D01*
X131469608Y-76774608D01*
X131571871Y-76650000D01*
X133086182Y-76650000D01*
X133089880Y-76655535D01*
X133284465Y-76850120D01*
X133513273Y-77003005D01*
X133767510Y-77108314D01*
X134037408Y-77162000D01*
X134312592Y-77162000D01*
X134319123Y-77160701D01*
X136553470Y-79395049D01*
X136581183Y-79428817D01*
X136614951Y-79456530D01*
X136614953Y-79456532D01*
X136641654Y-79478445D01*
X136715941Y-79539411D01*
X136869687Y-79621589D01*
X136968045Y-79651426D01*
X137010363Y-79714759D01*
X137210241Y-79914637D01*
X137445273Y-80071680D01*
X137706426Y-80179853D01*
X137983665Y-80235000D01*
X138266335Y-80235000D01*
X138543574Y-80179853D01*
X138804727Y-80071680D01*
X139039759Y-79914637D01*
X139239637Y-79714759D01*
X139396680Y-79479727D01*
X139504853Y-79218574D01*
X139560000Y-78941335D01*
X139560000Y-78658665D01*
X139504853Y-78381426D01*
X139396680Y-78120273D01*
X139239637Y-77885241D01*
X139039759Y-77685363D01*
X138839131Y-77551308D01*
X138866514Y-77536671D01*
X138938097Y-77292702D01*
X138125000Y-76479605D01*
X137311903Y-77292702D01*
X137383486Y-77536671D01*
X137412341Y-77550324D01*
X137292187Y-77630608D01*
X136032091Y-76370512D01*
X136684783Y-76370512D01*
X136726213Y-76650130D01*
X136821397Y-76916292D01*
X136888329Y-77041514D01*
X137132298Y-77113097D01*
X137945395Y-76300000D01*
X138304605Y-76300000D01*
X139117702Y-77113097D01*
X139361671Y-77041514D01*
X139482571Y-76786004D01*
X139551300Y-76511816D01*
X139565217Y-76229488D01*
X139523787Y-75949870D01*
X139428603Y-75683708D01*
X139361671Y-75558486D01*
X139117702Y-75486903D01*
X138304605Y-76300000D01*
X137945395Y-76300000D01*
X137132298Y-75486903D01*
X136888329Y-75558486D01*
X136767429Y-75813996D01*
X136698700Y-76088184D01*
X136684783Y-76370512D01*
X136032091Y-76370512D01*
X135570701Y-75909123D01*
X135572000Y-75902592D01*
X135572000Y-75627408D01*
X135518314Y-75357510D01*
X135497516Y-75307298D01*
X137311903Y-75307298D01*
X138125000Y-76120395D01*
X138938097Y-75307298D01*
X138866514Y-75063329D01*
X138611004Y-74942429D01*
X138336816Y-74873700D01*
X138054488Y-74859783D01*
X137774870Y-74901213D01*
X137508708Y-74996397D01*
X137383486Y-75063329D01*
X137311903Y-75307298D01*
X135497516Y-75307298D01*
X135413005Y-75103273D01*
X135260120Y-74874465D01*
X135065535Y-74679880D01*
X134836727Y-74526995D01*
X134759485Y-74495000D01*
X134836727Y-74463005D01*
X135065535Y-74310120D01*
X135260120Y-74115535D01*
X135413005Y-73886727D01*
X135441596Y-73817702D01*
X137286903Y-73817702D01*
X137358486Y-74061671D01*
X137613996Y-74182571D01*
X137888184Y-74251300D01*
X138170512Y-74265217D01*
X138450130Y-74223787D01*
X138716292Y-74128603D01*
X138841514Y-74061671D01*
X138913097Y-73817702D01*
X138100000Y-73004605D01*
X137286903Y-73817702D01*
X135441596Y-73817702D01*
X135518314Y-73632490D01*
X135572000Y-73362592D01*
X135572000Y-73087408D01*
X135570701Y-73080877D01*
X135756066Y-72895512D01*
X136659783Y-72895512D01*
X136701213Y-73175130D01*
X136796397Y-73441292D01*
X136863329Y-73566514D01*
X137107298Y-73638097D01*
X137920395Y-72825000D01*
X138279605Y-72825000D01*
X139092702Y-73638097D01*
X139336671Y-73566514D01*
X139457571Y-73311004D01*
X139526300Y-73036816D01*
X139540217Y-72754488D01*
X139498787Y-72474870D01*
X139403603Y-72208708D01*
X139336671Y-72083486D01*
X139092702Y-72011903D01*
X138279605Y-72825000D01*
X137920395Y-72825000D01*
X137107298Y-72011903D01*
X136863329Y-72083486D01*
X136742429Y-72338996D01*
X136673700Y-72613184D01*
X136659783Y-72895512D01*
X135756066Y-72895512D01*
X137201247Y-71450332D01*
X137385869Y-71573692D01*
X137358486Y-71588329D01*
X137286903Y-71832298D01*
X138100000Y-72645395D01*
X138913097Y-71832298D01*
X138841514Y-71588329D01*
X138812659Y-71574676D01*
X139014759Y-71439637D01*
X139214637Y-71239759D01*
X139371680Y-71004727D01*
X139479853Y-70743574D01*
X139535000Y-70466335D01*
X139535000Y-70183665D01*
X139479853Y-69906426D01*
X139371680Y-69645273D01*
X139214637Y-69410241D01*
X139014759Y-69210363D01*
X138789724Y-69060000D01*
X140508422Y-69060000D01*
X142740001Y-71291580D01*
X142740001Y-71930240D01*
X142569866Y-72069866D01*
X142384294Y-72295986D01*
X142246401Y-72553966D01*
X142161487Y-72833889D01*
X142132815Y-73125000D01*
X142161487Y-73416111D01*
X142246401Y-73696034D01*
X142384294Y-73954014D01*
X142569866Y-74180134D01*
X142740000Y-74319760D01*
X142740001Y-80820240D01*
X142569866Y-80959866D01*
X142384294Y-81185986D01*
X142246401Y-81443966D01*
X142161487Y-81723889D01*
X142132815Y-82015000D01*
X142161487Y-82306111D01*
X142246401Y-82586034D01*
X142384294Y-82844014D01*
X142569866Y-83070134D01*
X142795986Y-83255706D01*
X142869450Y-83294973D01*
X142524423Y-83640001D01*
X131865842Y-83640001D01*
X131891943Y-83375000D01*
X131864236Y-83093691D01*
X131782182Y-82823192D01*
X131648932Y-82573899D01*
X131469608Y-82355392D01*
X131251101Y-82176068D01*
X131118142Y-82105000D01*
X131251101Y-82033932D01*
X131469608Y-81854608D01*
X131648932Y-81636101D01*
X131782182Y-81386808D01*
X131864236Y-81116309D01*
X131891943Y-80835000D01*
X131864236Y-80553691D01*
X131782182Y-80283192D01*
X131648932Y-80033899D01*
X131469608Y-79815392D01*
X131251101Y-79636068D01*
X131113318Y-79562421D01*
X131305131Y-79447385D01*
X131513519Y-79258414D01*
X131681037Y-79032420D01*
X131801246Y-78778087D01*
X131841904Y-78644039D01*
X131719915Y-78422000D01*
X130577000Y-78422000D01*
X130577000Y-78442000D01*
X130323000Y-78442000D01*
X130323000Y-78422000D01*
X129180085Y-78422000D01*
X129058096Y-78644039D01*
X129098754Y-78778087D01*
X129218963Y-79032420D01*
X129386481Y-79258414D01*
X129594869Y-79447385D01*
X129786682Y-79562421D01*
X129648899Y-79636068D01*
X129430392Y-79815392D01*
X129319922Y-79950000D01*
X128276579Y-79950000D01*
X124254875Y-75928296D01*
X124271943Y-75755000D01*
X124244236Y-75473691D01*
X124162182Y-75203192D01*
X124028932Y-74953899D01*
X123849608Y-74735392D01*
X123631101Y-74556068D01*
X123498142Y-74485000D01*
X123631101Y-74413932D01*
X123849608Y-74234608D01*
X124028932Y-74016101D01*
X124162182Y-73766808D01*
X124244236Y-73496309D01*
X124271943Y-73215000D01*
X124244236Y-72933691D01*
X124162182Y-72663192D01*
X124028932Y-72413899D01*
X123849608Y-72195392D01*
X123631101Y-72016068D01*
X123498142Y-71945000D01*
X123631101Y-71873932D01*
X123849608Y-71694608D01*
X124028932Y-71476101D01*
X124162182Y-71226808D01*
X124244236Y-70956309D01*
X124271943Y-70675000D01*
X124244236Y-70393691D01*
X124162182Y-70123192D01*
X124028932Y-69873899D01*
X123849608Y-69655392D01*
X123631101Y-69476068D01*
X123498142Y-69405000D01*
X123631101Y-69333932D01*
X123849608Y-69154608D01*
X124028932Y-68936101D01*
X124162182Y-68686808D01*
X124244236Y-68416309D01*
X124271943Y-68135000D01*
X124254875Y-67961704D01*
X126270049Y-65946530D01*
X126303817Y-65918817D01*
X126414411Y-65784059D01*
X126469464Y-65681061D01*
X126496589Y-65630314D01*
X126547195Y-65463490D01*
X126552728Y-65407312D01*
X126560000Y-65333477D01*
X126560000Y-65333469D01*
X126564281Y-65290000D01*
X126560000Y-65246531D01*
X126560000Y-62166578D01*
X128916579Y-59810000D01*
X137406531Y-59810000D01*
X137450000Y-59814281D01*
X137493469Y-59810000D01*
X137493477Y-59810000D01*
X137623490Y-59797195D01*
X137790313Y-59746589D01*
X137944059Y-59664411D01*
X138078817Y-59553817D01*
X138106534Y-59520044D01*
X140546580Y-57079999D01*
X142731532Y-57079999D01*
X142740000Y-57080833D01*
X142740000Y-57080833D01*
G37*
X142740000Y-57080833D02*
X142740001Y-63040240D01*
X142569866Y-63179866D01*
X142384294Y-63405986D01*
X142246401Y-63663966D01*
X142161487Y-63943889D01*
X142132815Y-64235000D01*
X142161487Y-64526111D01*
X142246401Y-64806034D01*
X142384294Y-65064014D01*
X142569866Y-65290134D01*
X142795986Y-65475706D01*
X143053966Y-65613599D01*
X143333889Y-65698513D01*
X143552050Y-65720000D01*
X143697950Y-65720000D01*
X143916111Y-65698513D01*
X144196034Y-65613599D01*
X144454014Y-65475706D01*
X144680134Y-65290134D01*
X144865706Y-65064014D01*
X144895000Y-65009209D01*
X144924294Y-65064014D01*
X145109866Y-65290134D01*
X145335986Y-65475706D01*
X145593966Y-65613599D01*
X145873889Y-65698513D01*
X146092050Y-65720000D01*
X146237950Y-65720000D01*
X146456111Y-65698513D01*
X146736034Y-65613599D01*
X146994014Y-65475706D01*
X147220134Y-65290134D01*
X147405706Y-65064014D01*
X147435000Y-65009209D01*
X147464294Y-65064014D01*
X147570000Y-65192817D01*
X147570001Y-72167182D01*
X147464294Y-72295986D01*
X147435000Y-72350791D01*
X147405706Y-72295986D01*
X147220134Y-72069866D01*
X146994014Y-71884294D01*
X146736034Y-71746401D01*
X146456111Y-71661487D01*
X146237950Y-71640000D01*
X146092050Y-71640000D01*
X145873889Y-71661487D01*
X145593966Y-71746401D01*
X145335986Y-71884294D01*
X145109866Y-72069866D01*
X144924294Y-72295986D01*
X144895000Y-72350791D01*
X144865706Y-72295986D01*
X144680134Y-72069866D01*
X144510000Y-71930241D01*
X144510000Y-70968465D01*
X144514281Y-70924999D01*
X144510000Y-70881533D01*
X144510000Y-70881523D01*
X144497195Y-70751510D01*
X144446589Y-70584687D01*
X144364411Y-70430941D01*
X144285416Y-70334686D01*
X144281532Y-70329953D01*
X144281530Y-70329951D01*
X144253817Y-70296183D01*
X144220049Y-70268470D01*
X141531534Y-67579956D01*
X141503817Y-67546183D01*
X141369059Y-67435589D01*
X141215313Y-67353411D01*
X141048490Y-67302805D01*
X140918477Y-67290000D01*
X140918469Y-67290000D01*
X140875000Y-67285719D01*
X140831531Y-67290000D01*
X135768469Y-67290000D01*
X135725000Y-67285719D01*
X135681531Y-67290000D01*
X135681523Y-67290000D01*
X135551510Y-67302805D01*
X135384687Y-67353411D01*
X135232041Y-67435001D01*
X135230941Y-67435589D01*
X135129953Y-67518468D01*
X135129951Y-67518470D01*
X135096183Y-67546183D01*
X135068470Y-67579951D01*
X132858422Y-69790000D01*
X131580078Y-69790000D01*
X131469608Y-69655392D01*
X131251101Y-69476068D01*
X131118142Y-69405000D01*
X131251101Y-69333932D01*
X131469608Y-69154608D01*
X131648932Y-68936101D01*
X131782182Y-68686808D01*
X131864236Y-68416309D01*
X131891943Y-68135000D01*
X131864236Y-67853691D01*
X131782182Y-67583192D01*
X131648932Y-67333899D01*
X131469608Y-67115392D01*
X131251101Y-66936068D01*
X131118142Y-66865000D01*
X131251101Y-66793932D01*
X131469608Y-66614608D01*
X131648932Y-66396101D01*
X131782182Y-66146808D01*
X131864236Y-65876309D01*
X131891943Y-65595000D01*
X131864236Y-65313691D01*
X131782182Y-65043192D01*
X131648932Y-64793899D01*
X131469608Y-64575392D01*
X131251101Y-64396068D01*
X131118142Y-64325000D01*
X131251101Y-64253932D01*
X131469608Y-64074608D01*
X131648932Y-63856101D01*
X131782182Y-63606808D01*
X131864236Y-63336309D01*
X131891943Y-63055000D01*
X131864236Y-62773691D01*
X131782182Y-62503192D01*
X131648932Y-62253899D01*
X131469608Y-62035392D01*
X131251101Y-61856068D01*
X131001808Y-61722818D01*
X130731309Y-61640764D01*
X130520492Y-61620000D01*
X130379508Y-61620000D01*
X130168691Y-61640764D01*
X129898192Y-61722818D01*
X129648899Y-61856068D01*
X129430392Y-62035392D01*
X129251068Y-62253899D01*
X129117818Y-62503192D01*
X129035764Y-62773691D01*
X129008057Y-63055000D01*
X129035764Y-63336309D01*
X129117818Y-63606808D01*
X129251068Y-63856101D01*
X129430392Y-64074608D01*
X129648899Y-64253932D01*
X129781858Y-64325000D01*
X129648899Y-64396068D01*
X129430392Y-64575392D01*
X129251068Y-64793899D01*
X129117818Y-65043192D01*
X129035764Y-65313691D01*
X129008057Y-65595000D01*
X129035764Y-65876309D01*
X129117818Y-66146808D01*
X129251068Y-66396101D01*
X129430392Y-66614608D01*
X129648899Y-66793932D01*
X129781858Y-66865000D01*
X129648899Y-66936068D01*
X129430392Y-67115392D01*
X129251068Y-67333899D01*
X129117818Y-67583192D01*
X129035764Y-67853691D01*
X129008057Y-68135000D01*
X129035764Y-68416309D01*
X129117818Y-68686808D01*
X129251068Y-68936101D01*
X129430392Y-69154608D01*
X129648899Y-69333932D01*
X129781858Y-69405000D01*
X129648899Y-69476068D01*
X129430392Y-69655392D01*
X129251068Y-69873899D01*
X129117818Y-70123192D01*
X129035764Y-70393691D01*
X129008057Y-70675000D01*
X129035764Y-70956309D01*
X129117818Y-71226808D01*
X129251068Y-71476101D01*
X129430392Y-71694608D01*
X129648899Y-71873932D01*
X129781858Y-71945000D01*
X129648899Y-72016068D01*
X129430392Y-72195392D01*
X129251068Y-72413899D01*
X129117818Y-72663192D01*
X129035764Y-72933691D01*
X129008057Y-73215000D01*
X129035764Y-73496309D01*
X129117818Y-73766808D01*
X129251068Y-74016101D01*
X129430392Y-74234608D01*
X129648899Y-74413932D01*
X129781858Y-74485000D01*
X129648899Y-74556068D01*
X129430392Y-74735392D01*
X129251068Y-74953899D01*
X129117818Y-75203192D01*
X129035764Y-75473691D01*
X129008057Y-75755000D01*
X129035764Y-76036309D01*
X129117818Y-76306808D01*
X129251068Y-76556101D01*
X129430392Y-76774608D01*
X129648899Y-76953932D01*
X129786682Y-77027579D01*
X129594869Y-77142615D01*
X129386481Y-77331586D01*
X129218963Y-77557580D01*
X129098754Y-77811913D01*
X129058096Y-77945961D01*
X129180085Y-78168000D01*
X130323000Y-78168000D01*
X130323000Y-78148000D01*
X130577000Y-78148000D01*
X130577000Y-78168000D01*
X131719915Y-78168000D01*
X131841904Y-77945961D01*
X131801246Y-77811913D01*
X131681037Y-77557580D01*
X131513519Y-77331586D01*
X131305131Y-77142615D01*
X131113318Y-77027579D01*
X131251101Y-76953932D01*
X131469608Y-76774608D01*
X131571871Y-76650000D01*
X133086182Y-76650000D01*
X133089880Y-76655535D01*
X133284465Y-76850120D01*
X133513273Y-77003005D01*
X133767510Y-77108314D01*
X134037408Y-77162000D01*
X134312592Y-77162000D01*
X134319123Y-77160701D01*
X136553470Y-79395049D01*
X136581183Y-79428817D01*
X136614951Y-79456530D01*
X136614953Y-79456532D01*
X136641654Y-79478445D01*
X136715941Y-79539411D01*
X136869687Y-79621589D01*
X136968045Y-79651426D01*
X137010363Y-79714759D01*
X137210241Y-79914637D01*
X137445273Y-80071680D01*
X137706426Y-80179853D01*
X137983665Y-80235000D01*
X138266335Y-80235000D01*
X138543574Y-80179853D01*
X138804727Y-80071680D01*
X139039759Y-79914637D01*
X139239637Y-79714759D01*
X139396680Y-79479727D01*
X139504853Y-79218574D01*
X139560000Y-78941335D01*
X139560000Y-78658665D01*
X139504853Y-78381426D01*
X139396680Y-78120273D01*
X139239637Y-77885241D01*
X139039759Y-77685363D01*
X138839131Y-77551308D01*
X138866514Y-77536671D01*
X138938097Y-77292702D01*
X138125000Y-76479605D01*
X137311903Y-77292702D01*
X137383486Y-77536671D01*
X137412341Y-77550324D01*
X137292187Y-77630608D01*
X136032091Y-76370512D01*
X136684783Y-76370512D01*
X136726213Y-76650130D01*
X136821397Y-76916292D01*
X136888329Y-77041514D01*
X137132298Y-77113097D01*
X137945395Y-76300000D01*
X138304605Y-76300000D01*
X139117702Y-77113097D01*
X139361671Y-77041514D01*
X139482571Y-76786004D01*
X139551300Y-76511816D01*
X139565217Y-76229488D01*
X139523787Y-75949870D01*
X139428603Y-75683708D01*
X139361671Y-75558486D01*
X139117702Y-75486903D01*
X138304605Y-76300000D01*
X137945395Y-76300000D01*
X137132298Y-75486903D01*
X136888329Y-75558486D01*
X136767429Y-75813996D01*
X136698700Y-76088184D01*
X136684783Y-76370512D01*
X136032091Y-76370512D01*
X135570701Y-75909123D01*
X135572000Y-75902592D01*
X135572000Y-75627408D01*
X135518314Y-75357510D01*
X135497516Y-75307298D01*
X137311903Y-75307298D01*
X138125000Y-76120395D01*
X138938097Y-75307298D01*
X138866514Y-75063329D01*
X138611004Y-74942429D01*
X138336816Y-74873700D01*
X138054488Y-74859783D01*
X137774870Y-74901213D01*
X137508708Y-74996397D01*
X137383486Y-75063329D01*
X137311903Y-75307298D01*
X135497516Y-75307298D01*
X135413005Y-75103273D01*
X135260120Y-74874465D01*
X135065535Y-74679880D01*
X134836727Y-74526995D01*
X134759485Y-74495000D01*
X134836727Y-74463005D01*
X135065535Y-74310120D01*
X135260120Y-74115535D01*
X135413005Y-73886727D01*
X135441596Y-73817702D01*
X137286903Y-73817702D01*
X137358486Y-74061671D01*
X137613996Y-74182571D01*
X137888184Y-74251300D01*
X138170512Y-74265217D01*
X138450130Y-74223787D01*
X138716292Y-74128603D01*
X138841514Y-74061671D01*
X138913097Y-73817702D01*
X138100000Y-73004605D01*
X137286903Y-73817702D01*
X135441596Y-73817702D01*
X135518314Y-73632490D01*
X135572000Y-73362592D01*
X135572000Y-73087408D01*
X135570701Y-73080877D01*
X135756066Y-72895512D01*
X136659783Y-72895512D01*
X136701213Y-73175130D01*
X136796397Y-73441292D01*
X136863329Y-73566514D01*
X137107298Y-73638097D01*
X137920395Y-72825000D01*
X138279605Y-72825000D01*
X139092702Y-73638097D01*
X139336671Y-73566514D01*
X139457571Y-73311004D01*
X139526300Y-73036816D01*
X139540217Y-72754488D01*
X139498787Y-72474870D01*
X139403603Y-72208708D01*
X139336671Y-72083486D01*
X139092702Y-72011903D01*
X138279605Y-72825000D01*
X137920395Y-72825000D01*
X137107298Y-72011903D01*
X136863329Y-72083486D01*
X136742429Y-72338996D01*
X136673700Y-72613184D01*
X136659783Y-72895512D01*
X135756066Y-72895512D01*
X137201247Y-71450332D01*
X137385869Y-71573692D01*
X137358486Y-71588329D01*
X137286903Y-71832298D01*
X138100000Y-72645395D01*
X138913097Y-71832298D01*
X138841514Y-71588329D01*
X138812659Y-71574676D01*
X139014759Y-71439637D01*
X139214637Y-71239759D01*
X139371680Y-71004727D01*
X139479853Y-70743574D01*
X139535000Y-70466335D01*
X139535000Y-70183665D01*
X139479853Y-69906426D01*
X139371680Y-69645273D01*
X139214637Y-69410241D01*
X139014759Y-69210363D01*
X138789724Y-69060000D01*
X140508422Y-69060000D01*
X142740001Y-71291580D01*
X142740001Y-71930240D01*
X142569866Y-72069866D01*
X142384294Y-72295986D01*
X142246401Y-72553966D01*
X142161487Y-72833889D01*
X142132815Y-73125000D01*
X142161487Y-73416111D01*
X142246401Y-73696034D01*
X142384294Y-73954014D01*
X142569866Y-74180134D01*
X142740000Y-74319760D01*
X142740001Y-80820240D01*
X142569866Y-80959866D01*
X142384294Y-81185986D01*
X142246401Y-81443966D01*
X142161487Y-81723889D01*
X142132815Y-82015000D01*
X142161487Y-82306111D01*
X142246401Y-82586034D01*
X142384294Y-82844014D01*
X142569866Y-83070134D01*
X142795986Y-83255706D01*
X142869450Y-83294973D01*
X142524423Y-83640001D01*
X131865842Y-83640001D01*
X131891943Y-83375000D01*
X131864236Y-83093691D01*
X131782182Y-82823192D01*
X131648932Y-82573899D01*
X131469608Y-82355392D01*
X131251101Y-82176068D01*
X131118142Y-82105000D01*
X131251101Y-82033932D01*
X131469608Y-81854608D01*
X131648932Y-81636101D01*
X131782182Y-81386808D01*
X131864236Y-81116309D01*
X131891943Y-80835000D01*
X131864236Y-80553691D01*
X131782182Y-80283192D01*
X131648932Y-80033899D01*
X131469608Y-79815392D01*
X131251101Y-79636068D01*
X131113318Y-79562421D01*
X131305131Y-79447385D01*
X131513519Y-79258414D01*
X131681037Y-79032420D01*
X131801246Y-78778087D01*
X131841904Y-78644039D01*
X131719915Y-78422000D01*
X130577000Y-78422000D01*
X130577000Y-78442000D01*
X130323000Y-78442000D01*
X130323000Y-78422000D01*
X129180085Y-78422000D01*
X129058096Y-78644039D01*
X129098754Y-78778087D01*
X129218963Y-79032420D01*
X129386481Y-79258414D01*
X129594869Y-79447385D01*
X129786682Y-79562421D01*
X129648899Y-79636068D01*
X129430392Y-79815392D01*
X129319922Y-79950000D01*
X128276579Y-79950000D01*
X124254875Y-75928296D01*
X124271943Y-75755000D01*
X124244236Y-75473691D01*
X124162182Y-75203192D01*
X124028932Y-74953899D01*
X123849608Y-74735392D01*
X123631101Y-74556068D01*
X123498142Y-74485000D01*
X123631101Y-74413932D01*
X123849608Y-74234608D01*
X124028932Y-74016101D01*
X124162182Y-73766808D01*
X124244236Y-73496309D01*
X124271943Y-73215000D01*
X124244236Y-72933691D01*
X124162182Y-72663192D01*
X124028932Y-72413899D01*
X123849608Y-72195392D01*
X123631101Y-72016068D01*
X123498142Y-71945000D01*
X123631101Y-71873932D01*
X123849608Y-71694608D01*
X124028932Y-71476101D01*
X124162182Y-71226808D01*
X124244236Y-70956309D01*
X124271943Y-70675000D01*
X124244236Y-70393691D01*
X124162182Y-70123192D01*
X124028932Y-69873899D01*
X123849608Y-69655392D01*
X123631101Y-69476068D01*
X123498142Y-69405000D01*
X123631101Y-69333932D01*
X123849608Y-69154608D01*
X124028932Y-68936101D01*
X124162182Y-68686808D01*
X124244236Y-68416309D01*
X124271943Y-68135000D01*
X124254875Y-67961704D01*
X126270049Y-65946530D01*
X126303817Y-65918817D01*
X126414411Y-65784059D01*
X126469464Y-65681061D01*
X126496589Y-65630314D01*
X126547195Y-65463490D01*
X126552728Y-65407312D01*
X126560000Y-65333477D01*
X126560000Y-65333469D01*
X126564281Y-65290000D01*
X126560000Y-65246531D01*
X126560000Y-62166578D01*
X128916579Y-59810000D01*
X137406531Y-59810000D01*
X137450000Y-59814281D01*
X137493469Y-59810000D01*
X137493477Y-59810000D01*
X137623490Y-59797195D01*
X137790313Y-59746589D01*
X137944059Y-59664411D01*
X138078817Y-59553817D01*
X138106534Y-59520044D01*
X140546580Y-57079999D01*
X142731532Y-57079999D01*
X142740000Y-57080833D01*
G36*
X116817000Y-69223000D02*
G01*
X116837000Y-69223000D01*
X116837000Y-69477000D01*
X116817000Y-69477000D01*
X116817000Y-70670814D01*
X117046891Y-70791481D01*
X117321252Y-70694157D01*
X117571355Y-70545178D01*
X117787588Y-70350269D01*
X117961641Y-70116920D01*
X118086825Y-69854099D01*
X118131476Y-69706890D01*
X118010156Y-69477002D01*
X118105423Y-69477002D01*
X118440000Y-69811579D01*
X118440001Y-70849155D01*
X118404550Y-70884606D01*
X118274866Y-71078692D01*
X118185539Y-71294348D01*
X118140000Y-71523288D01*
X118140000Y-71756712D01*
X118185539Y-71985652D01*
X118274866Y-72201308D01*
X118404550Y-72395394D01*
X118569606Y-72560450D01*
X118763692Y-72690134D01*
X118979348Y-72779461D01*
X119208288Y-72825000D01*
X119441712Y-72825000D01*
X119670652Y-72779461D01*
X119886308Y-72690134D01*
X120080394Y-72560450D01*
X120245450Y-72395394D01*
X120375134Y-72201308D01*
X120430665Y-72067243D01*
X121405125Y-73041704D01*
X121388057Y-73215000D01*
X121415764Y-73496309D01*
X121497818Y-73766808D01*
X121631068Y-74016101D01*
X121810392Y-74234608D01*
X122028899Y-74413932D01*
X122161858Y-74485000D01*
X122028899Y-74556068D01*
X121810392Y-74735392D01*
X121631068Y-74953899D01*
X121497818Y-75203192D01*
X121415764Y-75473691D01*
X121388057Y-75755000D01*
X121415764Y-76036309D01*
X121497818Y-76306808D01*
X121631068Y-76556101D01*
X121810392Y-76774608D01*
X122028899Y-76953932D01*
X122161858Y-77025000D01*
X122028899Y-77096068D01*
X121810392Y-77275392D01*
X121631068Y-77493899D01*
X121497818Y-77743192D01*
X121415764Y-78013691D01*
X121388057Y-78295000D01*
X121415764Y-78576309D01*
X121497818Y-78846808D01*
X121631068Y-79096101D01*
X121810392Y-79314608D01*
X122028899Y-79493932D01*
X122166682Y-79567579D01*
X121974869Y-79682615D01*
X121766481Y-79871586D01*
X121598963Y-80097580D01*
X121478754Y-80351913D01*
X121438096Y-80485961D01*
X121560085Y-80708000D01*
X122703000Y-80708000D01*
X122703000Y-80688000D01*
X122957000Y-80688000D01*
X122957000Y-80708000D01*
X124099915Y-80708000D01*
X124221904Y-80485961D01*
X124181246Y-80351913D01*
X124061037Y-80097580D01*
X123893519Y-79871586D01*
X123685131Y-79682615D01*
X123493318Y-79567579D01*
X123631101Y-79493932D01*
X123849608Y-79314608D01*
X124028932Y-79096101D01*
X124162182Y-78846808D01*
X124244236Y-78576309D01*
X124258178Y-78434756D01*
X126938421Y-81115000D01*
X124183974Y-81115000D01*
X124099915Y-80962000D01*
X122957000Y-80962000D01*
X122957000Y-80982000D01*
X122703000Y-80982000D01*
X122703000Y-80962000D01*
X121560085Y-80962000D01*
X121476026Y-81115000D01*
X117820078Y-81115000D01*
X117709608Y-80980392D01*
X117491101Y-80801068D01*
X117241808Y-80667818D01*
X116971309Y-80585764D01*
X116760492Y-80565000D01*
X116619508Y-80565000D01*
X116408691Y-80585764D01*
X116138192Y-80667818D01*
X115888899Y-80801068D01*
X115670392Y-80980392D01*
X115491068Y-81198899D01*
X115423650Y-81325029D01*
X115421680Y-81320273D01*
X115264637Y-81085241D01*
X115064759Y-80885363D01*
X114829727Y-80728320D01*
X114568574Y-80620147D01*
X114291335Y-80565000D01*
X114008665Y-80565000D01*
X113731426Y-80620147D01*
X113470273Y-80728320D01*
X113460000Y-80735184D01*
X113460000Y-76308665D01*
X115215000Y-76308665D01*
X115215000Y-76591335D01*
X115270147Y-76868574D01*
X115378320Y-77129727D01*
X115535363Y-77364759D01*
X115735241Y-77564637D01*
X115970273Y-77721680D01*
X116231426Y-77829853D01*
X116508665Y-77885000D01*
X116791335Y-77885000D01*
X117068574Y-77829853D01*
X117329727Y-77721680D01*
X117564759Y-77564637D01*
X117764637Y-77364759D01*
X117921680Y-77129727D01*
X118029853Y-76868574D01*
X118085000Y-76591335D01*
X118085000Y-76308665D01*
X118029853Y-76031426D01*
X117921680Y-75770273D01*
X117764637Y-75535241D01*
X117564759Y-75335363D01*
X117364131Y-75201308D01*
X117391514Y-75186671D01*
X117463097Y-74942702D01*
X116650000Y-74129605D01*
X115836903Y-74942702D01*
X115908486Y-75186671D01*
X115937341Y-75200324D01*
X115735241Y-75335363D01*
X115535363Y-75535241D01*
X115378320Y-75770273D01*
X115270147Y-76031426D01*
X115215000Y-76308665D01*
X113460000Y-76308665D01*
X113460000Y-74020512D01*
X115209783Y-74020512D01*
X115251213Y-74300130D01*
X115346397Y-74566292D01*
X115413329Y-74691514D01*
X115657298Y-74763097D01*
X116470395Y-73950000D01*
X116829605Y-73950000D01*
X117642702Y-74763097D01*
X117886671Y-74691514D01*
X118007571Y-74436004D01*
X118076300Y-74161816D01*
X118090217Y-73879488D01*
X118048787Y-73599870D01*
X117953603Y-73333708D01*
X117886671Y-73208486D01*
X117642702Y-73136903D01*
X116829605Y-73950000D01*
X116470395Y-73950000D01*
X115657298Y-73136903D01*
X115413329Y-73208486D01*
X115292429Y-73463996D01*
X115223700Y-73738184D01*
X115209783Y-74020512D01*
X113460000Y-74020512D01*
X113460000Y-72957298D01*
X115836903Y-72957298D01*
X116650000Y-73770395D01*
X117463097Y-72957298D01*
X117391514Y-72713329D01*
X117136004Y-72592429D01*
X116861816Y-72523700D01*
X116579488Y-72509783D01*
X116299870Y-72551213D01*
X116033708Y-72646397D01*
X115908486Y-72713329D01*
X115836903Y-72957298D01*
X113460000Y-72957298D01*
X113460000Y-72493659D01*
X114745049Y-71208611D01*
X114778817Y-71180898D01*
X114889411Y-71046140D01*
X114971589Y-70892394D01*
X115022195Y-70725571D01*
X115035000Y-70595558D01*
X115035000Y-70595548D01*
X115039281Y-70552082D01*
X115038294Y-70542056D01*
X115205134Y-70405134D01*
X115390706Y-70179014D01*
X115421584Y-70121244D01*
X115592412Y-70350269D01*
X115808645Y-70545178D01*
X116058748Y-70694157D01*
X116333109Y-70791481D01*
X116563000Y-70670814D01*
X116563000Y-69477000D01*
X116543000Y-69477000D01*
X116543000Y-69223000D01*
X116563000Y-69223000D01*
X116563000Y-69203000D01*
X116817000Y-69203000D01*
X116817000Y-69223000D01*
X116817000Y-69223000D01*
G37*
X116817000Y-69223000D02*
X116837000Y-69223000D01*
X116837000Y-69477000D01*
X116817000Y-69477000D01*
X116817000Y-70670814D01*
X117046891Y-70791481D01*
X117321252Y-70694157D01*
X117571355Y-70545178D01*
X117787588Y-70350269D01*
X117961641Y-70116920D01*
X118086825Y-69854099D01*
X118131476Y-69706890D01*
X118010156Y-69477002D01*
X118105423Y-69477002D01*
X118440000Y-69811579D01*
X118440001Y-70849155D01*
X118404550Y-70884606D01*
X118274866Y-71078692D01*
X118185539Y-71294348D01*
X118140000Y-71523288D01*
X118140000Y-71756712D01*
X118185539Y-71985652D01*
X118274866Y-72201308D01*
X118404550Y-72395394D01*
X118569606Y-72560450D01*
X118763692Y-72690134D01*
X118979348Y-72779461D01*
X119208288Y-72825000D01*
X119441712Y-72825000D01*
X119670652Y-72779461D01*
X119886308Y-72690134D01*
X120080394Y-72560450D01*
X120245450Y-72395394D01*
X120375134Y-72201308D01*
X120430665Y-72067243D01*
X121405125Y-73041704D01*
X121388057Y-73215000D01*
X121415764Y-73496309D01*
X121497818Y-73766808D01*
X121631068Y-74016101D01*
X121810392Y-74234608D01*
X122028899Y-74413932D01*
X122161858Y-74485000D01*
X122028899Y-74556068D01*
X121810392Y-74735392D01*
X121631068Y-74953899D01*
X121497818Y-75203192D01*
X121415764Y-75473691D01*
X121388057Y-75755000D01*
X121415764Y-76036309D01*
X121497818Y-76306808D01*
X121631068Y-76556101D01*
X121810392Y-76774608D01*
X122028899Y-76953932D01*
X122161858Y-77025000D01*
X122028899Y-77096068D01*
X121810392Y-77275392D01*
X121631068Y-77493899D01*
X121497818Y-77743192D01*
X121415764Y-78013691D01*
X121388057Y-78295000D01*
X121415764Y-78576309D01*
X121497818Y-78846808D01*
X121631068Y-79096101D01*
X121810392Y-79314608D01*
X122028899Y-79493932D01*
X122166682Y-79567579D01*
X121974869Y-79682615D01*
X121766481Y-79871586D01*
X121598963Y-80097580D01*
X121478754Y-80351913D01*
X121438096Y-80485961D01*
X121560085Y-80708000D01*
X122703000Y-80708000D01*
X122703000Y-80688000D01*
X122957000Y-80688000D01*
X122957000Y-80708000D01*
X124099915Y-80708000D01*
X124221904Y-80485961D01*
X124181246Y-80351913D01*
X124061037Y-80097580D01*
X123893519Y-79871586D01*
X123685131Y-79682615D01*
X123493318Y-79567579D01*
X123631101Y-79493932D01*
X123849608Y-79314608D01*
X124028932Y-79096101D01*
X124162182Y-78846808D01*
X124244236Y-78576309D01*
X124258178Y-78434756D01*
X126938421Y-81115000D01*
X124183974Y-81115000D01*
X124099915Y-80962000D01*
X122957000Y-80962000D01*
X122957000Y-80982000D01*
X122703000Y-80982000D01*
X122703000Y-80962000D01*
X121560085Y-80962000D01*
X121476026Y-81115000D01*
X117820078Y-81115000D01*
X117709608Y-80980392D01*
X117491101Y-80801068D01*
X117241808Y-80667818D01*
X116971309Y-80585764D01*
X116760492Y-80565000D01*
X116619508Y-80565000D01*
X116408691Y-80585764D01*
X116138192Y-80667818D01*
X115888899Y-80801068D01*
X115670392Y-80980392D01*
X115491068Y-81198899D01*
X115423650Y-81325029D01*
X115421680Y-81320273D01*
X115264637Y-81085241D01*
X115064759Y-80885363D01*
X114829727Y-80728320D01*
X114568574Y-80620147D01*
X114291335Y-80565000D01*
X114008665Y-80565000D01*
X113731426Y-80620147D01*
X113470273Y-80728320D01*
X113460000Y-80735184D01*
X113460000Y-76308665D01*
X115215000Y-76308665D01*
X115215000Y-76591335D01*
X115270147Y-76868574D01*
X115378320Y-77129727D01*
X115535363Y-77364759D01*
X115735241Y-77564637D01*
X115970273Y-77721680D01*
X116231426Y-77829853D01*
X116508665Y-77885000D01*
X116791335Y-77885000D01*
X117068574Y-77829853D01*
X117329727Y-77721680D01*
X117564759Y-77564637D01*
X117764637Y-77364759D01*
X117921680Y-77129727D01*
X118029853Y-76868574D01*
X118085000Y-76591335D01*
X118085000Y-76308665D01*
X118029853Y-76031426D01*
X117921680Y-75770273D01*
X117764637Y-75535241D01*
X117564759Y-75335363D01*
X117364131Y-75201308D01*
X117391514Y-75186671D01*
X117463097Y-74942702D01*
X116650000Y-74129605D01*
X115836903Y-74942702D01*
X115908486Y-75186671D01*
X115937341Y-75200324D01*
X115735241Y-75335363D01*
X115535363Y-75535241D01*
X115378320Y-75770273D01*
X115270147Y-76031426D01*
X115215000Y-76308665D01*
X113460000Y-76308665D01*
X113460000Y-74020512D01*
X115209783Y-74020512D01*
X115251213Y-74300130D01*
X115346397Y-74566292D01*
X115413329Y-74691514D01*
X115657298Y-74763097D01*
X116470395Y-73950000D01*
X116829605Y-73950000D01*
X117642702Y-74763097D01*
X117886671Y-74691514D01*
X118007571Y-74436004D01*
X118076300Y-74161816D01*
X118090217Y-73879488D01*
X118048787Y-73599870D01*
X117953603Y-73333708D01*
X117886671Y-73208486D01*
X117642702Y-73136903D01*
X116829605Y-73950000D01*
X116470395Y-73950000D01*
X115657298Y-73136903D01*
X115413329Y-73208486D01*
X115292429Y-73463996D01*
X115223700Y-73738184D01*
X115209783Y-74020512D01*
X113460000Y-74020512D01*
X113460000Y-72957298D01*
X115836903Y-72957298D01*
X116650000Y-73770395D01*
X117463097Y-72957298D01*
X117391514Y-72713329D01*
X117136004Y-72592429D01*
X116861816Y-72523700D01*
X116579488Y-72509783D01*
X116299870Y-72551213D01*
X116033708Y-72646397D01*
X115908486Y-72713329D01*
X115836903Y-72957298D01*
X113460000Y-72957298D01*
X113460000Y-72493659D01*
X114745049Y-71208611D01*
X114778817Y-71180898D01*
X114889411Y-71046140D01*
X114971589Y-70892394D01*
X115022195Y-70725571D01*
X115035000Y-70595558D01*
X115035000Y-70595548D01*
X115039281Y-70552082D01*
X115038294Y-70542056D01*
X115205134Y-70405134D01*
X115390706Y-70179014D01*
X115421584Y-70121244D01*
X115592412Y-70350269D01*
X115808645Y-70545178D01*
X116058748Y-70694157D01*
X116333109Y-70791481D01*
X116563000Y-70670814D01*
X116563000Y-69477000D01*
X116543000Y-69477000D01*
X116543000Y-69223000D01*
X116563000Y-69223000D01*
X116563000Y-69203000D01*
X116817000Y-69203000D01*
X116817000Y-69223000D01*
G36*
X115449294Y-67639014D02*
G01*
X115634866Y-67865134D01*
X115860986Y-68050706D01*
X115925523Y-68085201D01*
X115808645Y-68154822D01*
X115592412Y-68349731D01*
X115421584Y-68578756D01*
X115390706Y-68520986D01*
X115205134Y-68294866D01*
X114979014Y-68109294D01*
X114924209Y-68080000D01*
X114979014Y-68050706D01*
X115205134Y-67865134D01*
X115390706Y-67639014D01*
X115420000Y-67584209D01*
X115449294Y-67639014D01*
X115449294Y-67639014D01*
G37*
X115449294Y-67639014D02*
X115634866Y-67865134D01*
X115860986Y-68050706D01*
X115925523Y-68085201D01*
X115808645Y-68154822D01*
X115592412Y-68349731D01*
X115421584Y-68578756D01*
X115390706Y-68520986D01*
X115205134Y-68294866D01*
X114979014Y-68109294D01*
X114924209Y-68080000D01*
X114979014Y-68050706D01*
X115205134Y-67865134D01*
X115390706Y-67639014D01*
X115420000Y-67584209D01*
X115449294Y-67639014D01*
M02*
